<?xml version="1.0" encoding="UTF-8"?>
<svg xmlns="http://www.w3.org/2000/svg"
     xmlns:inkscape="http://www.inkscape.org/namespaces/inkscape"
     width="2.391in" height="3.250in"
     viewBox="0 0 229.573 311.995">
  <g inkscape:groupmode="layer" inkscape:label="art" id="art">
    <g transform="translate(-96.562 -66.975) scale(2.11349)"><path d="M 66.964 153.105 L 66.897 153.280 L 66.848 153.411 L 66.788 153.578 L 66.743 153.710 L 66.589 154.176 L 66.547 154.309 L 66.495 154.480 L 66.456 154.614 L 66.325 155.087 L 66.290 155.221 L 66.247 155.394 L 66.214 155.530 L 66.107 156.009 L 66.078 156.145 L 66.043 156.320 L 66.018 156.457 L 65.934 156.941 L 65.912 157.078 L 65.885 157.255 L 65.867 157.393 L 65.807 157.880 L 65.791 158.018 L 65.774 158.196 L 65.762 158.335 L 65.726 158.824 L 65.717 158.963 L 65.708 159.142 L 65.703 159.281 L 65.691 159.771 L 65.689 159.911 L 65.689 160.089 L 65.691 160.229 L 65.703 160.719 L 65.708 160.858 L 65.717 161.037 L 65.726 161.176 L 65.762 161.665 L 65.774 161.804 L 65.791 161.982 L 65.807 162.120 L 65.867 162.607 L 65.885 162.745 L 65.912 162.922 L 65.934 163.059 L 66.018 163.543 L 66.043 163.680 L 66.078 163.855 L 66.107 163.991 L 66.214 164.470 L 66.247 164.606 L 66.290 164.779 L 66.325 164.913 L 66.456 165.386 L 66.495 165.520 L 66.547 165.691 L 66.589 165.824 L 66.743 166.290 L 66.788 166.422 L 66.848 166.589 L 66.897 166.720 L 67.074 167.178 L 67.125 167.307 L 67.194 167.472 L 67.248 167.600 L 67.447 168.049 L 67.505 168.176 L 67.582 168.337 L 67.643 168.462 L 67.863 168.901 L 67.928 169.024 L 68.012 169.182 L 68.079 169.304 L 68.321 169.731 L 68.391 169.851 L 68.483 170.004 L 68.556 170.123 L 68.818 170.537 L 68.894 170.654 L 68.993 170.803 L 69.072 170.917 L 69.355 171.319 L 69.437 171.432 L 69.543 171.575 L 69.627 171.686 L 69.929 172.073 L 70.016 172.182 L 70.129 172.319 L 70.219 172.426 L 70.540 172.798 L 70.632 172.902 L 70.752 173.034 L 70.847 173.136 L 71.185 173.492 L 71.282 173.592 L 71.408 173.718 L 71.508 173.815 L 71.864 174.153 L 71.966 174.248 L 72.098 174.368 L 72.202 174.460 L 72.574 174.781 L 72.681 174.871 L 72.818 174.984 L 72.927 175.071 L 73.314 175.373 L 73.425 175.457 L 73.568 175.563 L 73.681 175.645 L 74.083 175.928 L 74.197 176.007 L 74.346 176.106 L 74.463 176.182 L 74.877 176.444 L 74.996 176.517 L 75.149 176.609 L 75.269 176.679 L 75.696 176.921 L 75.818 176.988 L 75.976 177.072 L 76.099 177.137 L 76.538 177.357 L 76.663 177.418 L 76.824 177.495 L 76.951 177.553 L 77.400 177.752 L 77.528 177.806 L 77.693 177.875 L 77.822 177.926 L 78.280 178.103 L 78.411 178.152 L 78.578 178.212 L 78.710 178.257 L 79.176 178.411 L 79.309 178.453 L 79.480 178.505 L 79.614 178.544 L 80.087 178.675 L 80.221 178.710 L 80.394 178.753 L 80.530 178.786 L 81.009 178.893 L 81.145 178.922 L 81.320 178.957 L 81.457 178.982 L 81.941 179.066 L 82.078 179.088 L 82.255 179.115 L 82.393 179.133 L 82.880 179.193 L 83.018 179.209 L 83.196 179.226 L 83.335 179.238 L 83.824 179.274 L 83.963 179.283 L 84.142 179.292 L 84.281 179.297 L 84.771 179.309 L 84.911 179.311 L 85.089 179.311 L 85.229 179.309 L 85.719 179.297 L 85.858 179.292 L 86.037 179.283 L 86.176 179.274 L 86.665 179.238 L 86.804 179.226 L 86.982 179.209 L 87.120 179.193 L 87.607 179.133 L 87.745 179.115 L 87.922 179.088 L 88.059 179.066 L 88.543 178.982 L 88.680 178.957 L 88.855 178.922 L 88.991 178.893 L 89.470 178.786 L 89.606 178.753 L 89.779 178.710 L 89.913 178.675 L 90.386 178.544 L 90.520 178.505 L 90.691 178.453 L 90.824 178.411 L 91.290 178.257 L 91.422 178.212 L 91.589 178.152 L 91.720 178.103 L 92.178 177.926 L 92.307 177.875 L 92.472 177.806 L 92.600 177.752 L 93.049 177.553 L 93.176 177.495 L 93.337 177.418 L 93.462 177.357 L 93.901 177.137 L 94.024 177.072 L 94.182 176.988 L 94.304 176.921 L 94.731 176.679 L 94.851 176.609 L 95.004 176.517 L 95.123 176.444 L 95.537 176.182 L 95.654 176.106 L 95.803 176.007 L 95.917 175.928 L 96.319 175.645 L 96.432 175.563 L 96.575 175.457 L 96.686 175.373 L 97.073 175.071 L 97.182 174.984 L 97.319 174.871 L 97.426 174.781 L 97.798 174.460 L 97.902 174.368 L 98.034 174.248 L 98.136 174.153 L 98.492 173.815 L 98.592 173.718 L 98.718 173.592 L 98.815 173.492 L 99.153 173.136 L 99.248 173.034 L 99.368 172.902 L 99.460 172.798 L 99.781 172.426 L 99.871 172.319 L 99.984 172.182 L 100.000 172.161 L 100.016 172.182 L 100.129 172.319 L 100.219 172.426 L 100.540 172.798 L 100.632 172.902 L 100.752 173.034 L 100.847 173.136 L 101.185 173.492 L 101.282 173.592 L 101.408 173.718 L 101.508 173.815 L 101.864 174.153 L 101.966 174.248 L 102.098 174.368 L 102.202 174.460 L 102.574 174.781 L 102.681 174.871 L 102.818 174.984 L 102.927 175.071 L 103.314 175.373 L 103.425 175.457 L 103.568 175.563 L 103.681 175.645 L 104.083 175.928 L 104.197 176.007 L 104.346 176.106 L 104.463 176.182 L 104.877 176.444 L 104.996 176.517 L 105.149 176.609 L 105.269 176.679 L 105.696 176.921 L 105.818 176.988 L 105.976 177.072 L 106.099 177.137 L 106.538 177.357 L 106.663 177.418 L 106.824 177.495 L 106.951 177.553 L 107.400 177.752 L 107.528 177.806 L 107.693 177.875 L 107.822 177.926 L 108.280 178.103 L 108.411 178.152 L 108.578 178.212 L 108.710 178.257 L 109.176 178.411 L 109.309 178.453 L 109.480 178.505 L 109.614 178.544 L 110.087 178.675 L 110.221 178.710 L 110.394 178.753 L 110.530 178.786 L 111.009 178.893 L 111.145 178.922 L 111.320 178.957 L 111.457 178.982 L 111.941 179.066 L 112.078 179.088 L 112.255 179.115 L 112.393 179.133 L 112.880 179.193 L 113.018 179.209 L 113.196 179.226 L 113.335 179.238 L 113.824 179.274 L 113.963 179.283 L 114.142 179.292 L 114.281 179.297 L 114.771 179.309 L 114.911 179.311 L 115.089 179.311 L 115.229 179.309 L 115.719 179.297 L 115.858 179.292 L 116.037 179.283 L 116.176 179.274 L 116.665 179.238 L 116.804 179.226 L 116.982 179.209 L 117.120 179.193 L 117.607 179.133 L 117.745 179.115 L 117.922 179.088 L 118.059 179.066 L 118.543 178.982 L 118.680 178.957 L 118.855 178.922 L 118.991 178.893 L 119.470 178.786 L 119.606 178.753 L 119.779 178.710 L 119.913 178.675 L 120.386 178.544 L 120.520 178.505 L 120.691 178.453 L 120.824 178.411 L 121.290 178.257 L 121.422 178.212 L 121.589 178.152 L 121.720 178.103 L 122.178 177.926 L 122.307 177.875 L 122.472 177.806 L 122.600 177.752 L 123.049 177.553 L 123.176 177.495 L 123.337 177.418 L 123.462 177.357 L 123.901 177.137 L 124.024 177.072 L 124.182 176.988 L 124.304 176.921 L 124.731 176.679 L 124.851 176.609 L 125.004 176.517 L 125.123 176.444 L 125.537 176.182 L 125.654 176.106 L 125.803 176.007 L 125.917 175.928 L 126.319 175.645 L 126.432 175.563 L 126.575 175.457 L 126.686 175.373 L 127.073 175.071 L 127.182 174.984 L 127.319 174.871 L 127.426 174.781 L 127.798 174.460 L 127.902 174.368 L 128.034 174.248 L 128.136 174.153 L 128.492 173.815 L 128.592 173.718 L 128.718 173.592 L 128.815 173.492 L 129.153 173.136 L 129.248 173.034 L 129.368 172.902 L 129.460 172.798 L 129.781 172.426 L 129.871 172.319 L 129.984 172.182 L 130.071 172.073 L 130.373 171.686 L 130.457 171.575 L 130.563 171.432 L 130.645 171.319 L 130.928 170.917 L 131.007 170.803 L 131.106 170.654 L 131.182 170.537 L 131.444 170.123 L 131.517 170.004 L 131.609 169.851 L 131.679 169.731 L 131.921 169.304 L 131.988 169.182 L 132.072 169.024 L 132.137 168.901 L 132.357 168.462 L 132.418 168.337 L 132.495 168.176 L 132.553 168.049 L 132.752 167.600 L 132.806 167.472 L 132.875 167.307 L 132.926 167.178 L 133.103 166.720 L 133.152 166.589 L 133.212 166.422 L 133.257 166.290 L 133.411 165.824 L 133.453 165.691 L 133.505 165.520 L 133.544 165.386 L 133.675 164.913 L 133.710 164.779 L 133.753 164.606 L 133.786 164.470 L 133.893 163.991 L 133.922 163.855 L 133.957 163.680 L 133.982 163.543 L 134.066 163.059 L 134.088 162.922 L 134.115 162.745 L 134.133 162.607 L 134.193 162.120 L 134.209 161.982 L 134.226 161.804 L 134.238 161.665 L 134.274 161.176 L 134.283 161.037 L 134.292 160.858 L 134.297 160.719 L 134.309 160.229 L 134.311 160.089 L 134.311 159.911 L 134.309 159.771 L 134.297 159.281 L 134.292 159.142 L 134.283 158.963 L 134.274 158.824 L 134.238 158.335 L 134.226 158.196 L 134.209 158.018 L 134.193 157.880 L 134.133 157.393 L 134.115 157.255 L 134.088 157.078 L 134.066 156.941 L 133.982 156.457 L 133.957 156.320 L 133.922 156.145 L 133.893 156.009 L 133.786 155.530 L 133.753 155.394 L 133.710 155.221 L 133.675 155.087 L 133.544 154.614 L 133.505 154.480 L 133.453 154.309 L 133.411 154.176 L 133.257 153.710 L 133.212 153.578 L 133.152 153.411 L 133.103 153.280 L 133.036 153.105 L 133.324 152.886 L 133.379 152.844 L 133.449 152.789 L 133.504 152.746 L 134.366 152.055 L 134.420 152.012 L 134.489 151.955 L 134.543 151.910 L 135.388 151.199 L 135.441 151.154 L 135.508 151.096 L 135.561 151.050 L 136.388 150.318 L 136.440 150.272 L 136.506 150.212 L 136.558 150.165 L 137.367 149.413 L 137.418 149.366 L 137.482 149.304 L 137.532 149.256 L 138.323 148.484 L 138.372 148.435 L 138.435 148.372 L 138.484 148.323 L 139.256 147.532 L 139.304 147.482 L 139.366 147.418 L 139.413 147.367 L 140.165 146.558 L 140.212 146.506 L 140.272 146.440 L 140.318 146.388 L 141.050 145.561 L 141.096 145.508 L 141.154 145.441 L 141.199 145.388 L 141.910 144.543 L 141.955 144.489 L 142.012 144.420 L 142.055 144.366 L 142.746 143.504 L 142.789 143.449 L 142.844 143.379 L 142.886 143.324 L 143.555 142.445 L 143.597 142.389 L 143.650 142.317 L 143.691 142.261 L 144.338 141.366 L 144.378 141.309 L 144.430 141.236 L 144.470 141.179 L 145.094 140.269 L 145.133 140.211 L 145.183 140.137 L 145.221 140.079 L 145.824 139.153 L 145.861 139.094 L 145.909 139.019 L 145.946 138.960 L 146.525 138.019 L 146.561 137.960 L 146.607 137.883 L 146.643 137.823 L 147.199 136.869 L 147.234 136.809 L 147.278 136.731 L 147.312 136.670 L 147.844 135.703 L 147.877 135.642 L 147.919 135.563 L 147.952 135.501 L 148.460 134.521 L 148.492 134.459 L 148.532 134.379 L 148.563 134.317 L 149.048 133.324 L 149.078 133.261 L 149.116 133.181 L 149.145 133.118 L 149.605 132.113 L 149.634 132.050 L 149.670 131.968 L 149.698 131.905 L 150.133 130.889 L 150.160 130.825 L 150.194 130.743 L 150.220 130.678 L 150.631 129.653 L 150.656 129.588 L 150.688 129.505 L 150.713 129.440 L 151.098 128.404 L 151.122 128.339 L 151.152 128.255 L 151.175 128.189 L 151.534 127.145 L 151.556 127.079 L 151.584 126.994 L 151.606 126.928 L 151.939 125.875 L 151.960 125.808 L 151.986 125.723 L 152.005 125.656 L 152.313 124.596 L 152.332 124.529 L 152.356 124.443 L 152.374 124.375 L 152.656 123.307 L 152.673 123.240 L 152.695 123.153 L 152.711 123.086 L 152.966 122.011 L 152.982 121.943 L 153.001 121.856 L 153.016 121.788 L 153.245 120.708 L 153.259 120.639 L 153.276 120.552 L 153.290 120.483 L 153.492 119.398 L 153.504 119.329 L 153.519 119.241 L 153.531 119.173 L 153.706 118.082 L 153.717 118.013 L 153.730 117.925 L 153.740 117.856 L 153.888 116.762 L 153.897 116.693 L 153.908 116.604 L 153.916 116.535 L 154.038 115.437 L 154.045 115.368 L 154.054 115.279 L 154.061 115.210 L 154.155 114.109 L 154.161 114.040 L 154.167 113.951 L 154.172 113.881 L 154.240 112.779 L 154.244 112.709 L 154.248 112.620 L 154.251 112.551 L 154.292 111.447 L 154.294 111.377 L 154.296 111.288 L 154.297 111.219 L 154.311 110.114 L 154.311 110.045 L 154.311 109.955 L 154.311 109.886 L 154.297 108.781 L 154.296 108.712 L 154.294 108.623 L 154.292 108.553 L 154.251 107.449 L 154.248 107.380 L 154.244 107.291 L 154.240 107.221 L 154.172 106.119 L 154.167 106.049 L 154.161 105.960 L 154.155 105.891 L 154.061 104.790 L 154.054 104.721 L 154.045 104.632 L 154.038 104.563 L 153.916 103.465 L 153.908 103.396 L 153.897 103.307 L 153.888 103.238 L 153.740 102.144 L 153.730 102.075 L 153.717 101.987 L 153.706 101.918 L 153.531 100.827 L 153.519 100.759 L 153.504 100.671 L 153.492 100.602 L 153.290 99.517 L 153.276 99.448 L 153.259 99.361 L 153.245 99.292 L 153.016 98.212 L 153.001 98.144 L 152.982 98.057 L 152.966 97.989 L 152.711 96.914 L 152.695 96.847 L 152.673 96.760 L 152.656 96.693 L 152.374 95.625 L 152.356 95.557 L 152.332 95.471 L 152.313 95.404 L 152.005 94.344 L 151.986 94.277 L 151.960 94.192 L 151.939 94.125 L 151.606 93.072 L 151.584 93.006 L 151.556 92.921 L 151.534 92.855 L 151.175 91.811 L 151.152 91.745 L 151.122 91.661 L 151.098 91.596 L 150.713 90.560 L 150.688 90.495 L 150.656 90.412 L 150.631 90.347 L 150.220 89.322 L 150.194 89.257 L 150.160 89.175 L 150.133 89.111 L 149.698 88.095 L 149.670 88.032 L 149.634 87.950 L 149.605 87.887 L 149.145 86.882 L 149.116 86.819 L 149.078 86.739 L 149.048 86.676 L 148.563 85.683 L 148.532 85.621 L 148.492 85.541 L 148.460 85.479 L 147.952 84.499 L 147.919 84.437 L 147.877 84.358 L 147.844 84.297 L 147.312 83.330 L 147.278 83.269 L 147.234 83.191 L 147.199 83.131 L 146.643 82.177 L 146.607 82.117 L 146.561 82.040 L 146.525 81.981 L 145.946 81.040 L 145.909 80.981 L 145.861 80.906 L 145.824 80.847 L 145.221 79.921 L 145.183 79.863 L 145.133 79.789 L 145.094 79.731 L 144.470 78.821 L 144.430 78.764 L 144.378 78.691 L 144.338 78.634 L 143.691 77.739 L 143.650 77.683 L 143.597 77.611 L 143.555 77.555 L 142.886 76.676 L 142.844 76.621 L 142.789 76.551 L 142.746 76.496 L 142.055 75.634 L 142.012 75.580 L 141.955 75.511 L 141.910 75.457 L 141.199 74.612 L 141.154 74.559 L 141.096 74.492 L 141.050 74.439 L 140.318 73.612 L 140.272 73.560 L 140.212 73.494 L 140.165 73.442 L 139.413 72.633 L 139.366 72.582 L 139.304 72.518 L 139.256 72.468 L 138.484 71.677 L 138.435 71.628 L 138.372 71.565 L 138.323 71.516 L 137.532 70.744 L 137.482 70.696 L 137.418 70.634 L 137.367 70.587 L 136.558 69.835 L 136.506 69.788 L 136.440 69.728 L 136.388 69.682 L 135.561 68.950 L 135.508 68.904 L 135.441 68.846 L 135.388 68.801 L 134.543 68.090 L 134.489 68.045 L 134.420 67.988 L 134.366 67.945 L 133.504 67.254 L 133.449 67.211 L 133.379 67.156 L 133.324 67.114 L 132.445 66.445 L 132.389 66.403 L 132.317 66.350 L 132.261 66.309 L 131.366 65.662 L 131.309 65.622 L 131.236 65.570 L 131.179 65.530 L 130.269 64.906 L 130.211 64.867 L 130.137 64.817 L 130.079 64.779 L 129.153 64.176 L 129.094 64.139 L 129.019 64.091 L 128.960 64.054 L 128.019 63.475 L 127.960 63.439 L 127.883 63.393 L 127.823 63.357 L 126.869 62.801 L 126.812 62.768 L 126.812 56.742 L 126.892 56.644 L 126.979 56.535 L 127.160 56.303 L 127.244 56.192 L 127.351 56.049 L 127.432 55.936 L 127.602 55.695 L 127.681 55.580 L 127.780 55.432 L 127.856 55.315 L 128.013 55.066 L 128.086 54.948 L 128.178 54.795 L 128.248 54.674 L 128.393 54.418 L 128.461 54.296 L 128.545 54.139 L 128.609 54.015 L 128.741 53.752 L 128.802 53.627 L 128.879 53.465 L 128.937 53.339 L 129.056 53.070 L 129.111 52.941 L 129.179 52.777 L 129.231 52.647 L 129.337 52.373 L 129.385 52.242 L 129.446 52.074 L 129.491 51.942 L 129.583 51.663 L 129.625 51.530 L 129.677 51.359 L 129.716 51.225 L 129.795 50.941 L 129.830 50.807 L 129.873 50.634 L 129.906 50.498 L 129.970 50.211 L 129.999 50.074 L 130.034 49.899 L 130.059 49.762 L 130.110 49.472 L 130.132 49.335 L 130.158 49.158 L 130.177 49.020 L 130.213 48.728 L 130.228 48.589 L 130.246 48.412 L 130.257 48.273 L 130.279 47.979 L 130.288 47.840 L 130.296 47.662 L 130.302 47.523 L 130.309 47.229 L 130.311 47.089 L 130.311 46.911 L 130.309 46.771 L 130.302 46.477 L 130.296 46.338 L 130.288 46.160 L 130.279 46.021 L 130.257 45.727 L 130.246 45.588 L 130.228 45.411 L 130.213 45.272 L 130.177 44.980 L 130.158 44.842 L 130.132 44.665 L 130.110 44.528 L 130.059 44.238 L 130.034 44.101 L 129.999 43.926 L 129.970 43.789 L 129.906 43.502 L 129.873 43.366 L 129.830 43.193 L 129.795 43.059 L 129.716 42.775 L 129.677 42.641 L 129.625 42.470 L 129.583 42.337 L 129.491 42.058 L 129.446 41.926 L 129.385 41.758 L 129.337 41.627 L 129.231 41.353 L 129.179 41.223 L 129.111 41.059 L 129.056 40.930 L 128.937 40.661 L 128.879 40.535 L 128.802 40.373 L 128.741 40.248 L 128.609 39.985 L 128.545 39.861 L 128.461 39.704 L 128.393 39.582 L 128.248 39.326 L 128.178 39.205 L 128.086 39.052 L 128.013 38.934 L 127.856 38.685 L 127.780 38.568 L 127.681 38.420 L 127.602 38.305 L 127.432 38.064 L 127.351 37.951 L 127.244 37.808 L 127.160 37.697 L 126.979 37.465 L 126.892 37.356 L 126.779 37.218 L 126.689 37.112 L 126.497 36.889 L 126.404 36.784 L 126.284 36.652 L 126.190 36.550 L 125.987 36.337 L 125.889 36.237 L 125.763 36.111 L 125.663 36.013 L 125.450 35.810 L 125.348 35.716 L 125.216 35.596 L 125.111 35.503 L 124.888 35.311 L 124.782 35.221 L 124.644 35.108 L 124.535 35.021 L 124.303 34.840 L 124.192 34.756 L 124.049 34.649 L 123.936 34.568 L 123.695 34.398 L 123.580 34.319 L 123.432 34.220 L 123.315 34.144 L 123.066 33.987 L 122.948 33.914 L 122.795 33.822 L 122.674 33.752 L 122.418 33.607 L 122.296 33.539 L 122.139 33.455 L 122.015 33.391 L 121.752 33.259 L 121.627 33.198 L 121.465 33.121 L 121.339 33.063 L 121.070 32.944 L 120.941 32.889 L 120.777 32.821 L 120.647 32.769 L 120.373 32.663 L 120.242 32.615 L 120.074 32.554 L 119.942 32.509 L 119.663 32.417 L 119.530 32.375 L 119.359 32.323 L 119.225 32.284 L 118.941 32.205 L 118.807 32.170 L 118.634 32.127 L 118.498 32.094 L 118.211 32.030 L 118.074 32.001 L 117.899 31.966 L 117.762 31.941 L 117.472 31.890 L 117.335 31.868 L 117.158 31.842 L 117.020 31.823 L 116.728 31.787 L 116.589 31.772 L 116.412 31.754 L 116.273 31.743 L 115.979 31.721 L 115.840 31.712 L 115.662 31.704 L 115.523 31.698 L 115.229 31.691 L 115.089 31.689 L 114.911 31.689 L 114.771 31.691 L 114.477 31.698 L 114.338 31.704 L 114.160 31.712 L 114.021 31.721 L 113.727 31.743 L 113.588 31.754 L 113.411 31.772 L 113.272 31.787 L 112.980 31.823 L 112.842 31.842 L 112.665 31.868 L 112.528 31.890 L 112.238 31.941 L 112.101 31.966 L 111.926 32.001 L 111.789 32.030 L 111.502 32.094 L 111.366 32.127 L 111.193 32.170 L 111.059 32.205 L 110.775 32.284 L 110.641 32.323 L 110.470 32.375 L 110.337 32.417 L 110.058 32.509 L 109.926 32.554 L 109.758 32.615 L 109.627 32.663 L 109.353 32.769 L 109.223 32.821 L 109.059 32.889 L 108.930 32.944 L 108.661 33.063 L 108.535 33.121 L 108.373 33.198 L 108.248 33.259 L 107.985 33.391 L 107.861 33.455 L 107.704 33.539 L 107.582 33.607 L 107.326 33.752 L 107.205 33.822 L 107.052 33.914 L 106.934 33.987 L 106.685 34.144 L 106.568 34.220 L 106.420 34.319 L 106.305 34.398 L 106.064 34.568 L 105.951 34.649 L 105.808 34.756 L 105.697 34.840 L 105.465 35.021 L 105.356 35.108 L 105.218 35.221 L 105.112 35.311 L 104.889 35.503 L 104.784 35.596 L 104.652 35.716 L 104.550 35.810 L 104.337 36.013 L 104.237 36.111 L 104.111 36.237 L 104.013 36.337 L 103.810 36.550 L 103.716 36.652 L 103.596 36.784 L 103.503 36.889 L 103.311 37.112 L 103.221 37.218 L 103.108 37.356 L 103.021 37.465 L 102.840 37.697 L 102.756 37.808 L 102.649 37.951 L 102.568 38.064 L 102.398 38.305 L 102.319 38.420 L 102.220 38.568 L 102.144 38.685 L 101.987 38.934 L 101.914 39.052 L 101.822 39.205 L 101.752 39.326 L 101.607 39.582 L 101.539 39.704 L 101.455 39.861 L 101.391 39.985 L 101.259 40.248 L 101.198 40.373 L 101.121 40.535 L 101.063 40.661 L 100.944 40.930 L 100.889 41.059 L 100.821 41.223 L 100.769 41.353 L 100.663 41.627 L 100.615 41.758 L 100.554 41.926 L 100.509 42.058 L 100.417 42.337 L 100.375 42.470 L 100.323 42.641 L 100.284 42.775 L 100.205 43.059 L 100.170 43.193 L 100.127 43.366 L 100.094 43.502 L 100.030 43.789 L 100.001 43.926 L 100.000 43.931 L 99.999 43.926 L 99.970 43.789 L 99.906 43.502 L 99.873 43.366 L 99.830 43.193 L 99.795 43.059 L 99.716 42.775 L 99.677 42.641 L 99.625 42.470 L 99.583 42.337 L 99.491 42.058 L 99.446 41.926 L 99.385 41.758 L 99.337 41.627 L 99.231 41.353 L 99.179 41.223 L 99.111 41.059 L 99.056 40.930 L 98.937 40.661 L 98.879 40.535 L 98.802 40.373 L 98.741 40.248 L 98.609 39.985 L 98.545 39.861 L 98.461 39.704 L 98.393 39.582 L 98.248 39.326 L 98.178 39.205 L 98.086 39.052 L 98.013 38.934 L 97.856 38.685 L 97.780 38.568 L 97.681 38.420 L 97.602 38.305 L 97.432 38.064 L 97.351 37.951 L 97.244 37.808 L 97.160 37.697 L 96.979 37.465 L 96.892 37.356 L 96.779 37.218 L 96.689 37.112 L 96.497 36.889 L 96.404 36.784 L 96.284 36.652 L 96.190 36.550 L 95.987 36.337 L 95.889 36.237 L 95.763 36.111 L 95.663 36.013 L 95.450 35.810 L 95.348 35.716 L 95.216 35.596 L 95.111 35.503 L 94.888 35.311 L 94.782 35.221 L 94.644 35.108 L 94.535 35.021 L 94.303 34.840 L 94.192 34.756 L 94.049 34.649 L 93.936 34.568 L 93.695 34.398 L 93.580 34.319 L 93.432 34.220 L 93.315 34.144 L 93.066 33.987 L 92.948 33.914 L 92.795 33.822 L 92.674 33.752 L 92.418 33.607 L 92.296 33.539 L 92.139 33.455 L 92.015 33.391 L 91.752 33.259 L 91.627 33.198 L 91.465 33.121 L 91.339 33.063 L 91.070 32.944 L 90.941 32.889 L 90.777 32.821 L 90.647 32.769 L 90.373 32.663 L 90.242 32.615 L 90.074 32.554 L 89.942 32.509 L 89.663 32.417 L 89.530 32.375 L 89.359 32.323 L 89.225 32.284 L 88.941 32.205 L 88.807 32.170 L 88.634 32.127 L 88.498 32.094 L 88.211 32.030 L 88.074 32.001 L 87.899 31.966 L 87.762 31.941 L 87.472 31.890 L 87.335 31.868 L 87.158 31.842 L 87.020 31.823 L 86.728 31.787 L 86.589 31.772 L 86.412 31.754 L 86.273 31.743 L 85.979 31.721 L 85.840 31.712 L 85.662 31.704 L 85.523 31.698 L 85.229 31.691 L 85.089 31.689 L 84.911 31.689 L 84.771 31.691 L 84.477 31.698 L 84.338 31.704 L 84.160 31.712 L 84.021 31.721 L 83.727 31.743 L 83.588 31.754 L 83.411 31.772 L 83.272 31.787 L 82.980 31.823 L 82.842 31.842 L 82.665 31.868 L 82.528 31.890 L 82.238 31.941 L 82.101 31.966 L 81.926 32.001 L 81.789 32.030 L 81.502 32.094 L 81.366 32.127 L 81.193 32.170 L 81.059 32.205 L 80.775 32.284 L 80.641 32.323 L 80.470 32.375 L 80.337 32.417 L 80.058 32.509 L 79.926 32.554 L 79.758 32.615 L 79.627 32.663 L 79.353 32.769 L 79.223 32.821 L 79.059 32.889 L 78.930 32.944 L 78.661 33.063 L 78.535 33.121 L 78.373 33.198 L 78.248 33.259 L 77.985 33.391 L 77.861 33.455 L 77.704 33.539 L 77.582 33.607 L 77.326 33.752 L 77.205 33.822 L 77.052 33.914 L 76.934 33.987 L 76.685 34.144 L 76.568 34.220 L 76.420 34.319 L 76.305 34.398 L 76.064 34.568 L 75.951 34.649 L 75.808 34.756 L 75.697 34.840 L 75.465 35.021 L 75.356 35.108 L 75.218 35.221 L 75.112 35.311 L 74.889 35.503 L 74.784 35.596 L 74.652 35.716 L 74.550 35.810 L 74.337 36.013 L 74.237 36.111 L 74.111 36.237 L 74.013 36.337 L 73.810 36.550 L 73.716 36.652 L 73.596 36.784 L 73.503 36.889 L 73.311 37.112 L 73.221 37.218 L 73.108 37.356 L 73.021 37.465 L 72.840 37.697 L 72.756 37.808 L 72.649 37.951 L 72.568 38.064 L 72.398 38.305 L 72.319 38.420 L 72.220 38.568 L 72.144 38.685 L 71.987 38.934 L 71.914 39.052 L 71.822 39.205 L 71.752 39.326 L 71.607 39.582 L 71.539 39.704 L 71.455 39.861 L 71.391 39.985 L 71.259 40.248 L 71.198 40.373 L 71.121 40.535 L 71.063 40.661 L 70.944 40.930 L 70.889 41.059 L 70.821 41.223 L 70.769 41.353 L 70.663 41.627 L 70.615 41.758 L 70.554 41.926 L 70.509 42.058 L 70.417 42.337 L 70.375 42.470 L 70.323 42.641 L 70.284 42.775 L 70.205 43.059 L 70.170 43.193 L 70.127 43.366 L 70.094 43.502 L 70.030 43.789 L 70.001 43.926 L 69.966 44.101 L 69.941 44.238 L 69.890 44.528 L 69.868 44.665 L 69.842 44.842 L 69.823 44.980 L 69.787 45.272 L 69.772 45.411 L 69.754 45.588 L 69.743 45.727 L 69.721 46.021 L 69.712 46.160 L 69.704 46.338 L 69.698 46.477 L 69.691 46.771 L 69.689 46.911 L 69.689 47.089 L 69.691 47.229 L 69.698 47.523 L 69.704 47.662 L 69.712 47.840 L 69.721 47.979 L 69.743 48.273 L 69.754 48.412 L 69.772 48.589 L 69.787 48.728 L 69.823 49.020 L 69.842 49.158 L 69.868 49.335 L 69.890 49.472 L 69.941 49.762 L 69.966 49.899 L 70.001 50.074 L 70.030 50.211 L 70.094 50.498 L 70.127 50.634 L 70.170 50.807 L 70.205 50.941 L 70.284 51.225 L 70.323 51.359 L 70.375 51.530 L 70.417 51.663 L 70.509 51.942 L 70.554 52.074 L 70.615 52.242 L 70.663 52.373 L 70.769 52.647 L 70.821 52.777 L 70.889 52.941 L 70.944 53.070 L 71.063 53.339 L 71.121 53.465 L 71.198 53.627 L 71.259 53.752 L 71.391 54.015 L 71.455 54.139 L 71.539 54.296 L 71.607 54.418 L 71.752 54.674 L 71.822 54.795 L 71.914 54.948 L 71.987 55.066 L 72.144 55.315 L 72.220 55.432 L 72.319 55.580 L 72.398 55.695 L 72.568 55.936 L 72.649 56.049 L 72.756 56.192 L 72.840 56.303 L 73.021 56.535 L 73.108 56.644 L 73.188 56.742 L 73.188 62.768 L 73.131 62.801 L 72.177 63.357 L 72.117 63.393 L 72.040 63.439 L 71.981 63.475 L 71.040 64.054 L 70.981 64.091 L 70.906 64.139 L 70.847 64.176 L 69.921 64.779 L 69.863 64.817 L 69.789 64.867 L 69.731 64.906 L 68.821 65.530 L 68.764 65.570 L 68.691 65.622 L 68.634 65.662 L 67.739 66.309 L 67.683 66.350 L 67.611 66.403 L 67.555 66.445 L 66.676 67.114 L 66.621 67.156 L 66.551 67.211 L 66.496 67.254 L 65.634 67.945 L 65.580 67.988 L 65.511 68.045 L 65.457 68.090 L 64.612 68.801 L 64.559 68.846 L 64.492 68.904 L 64.439 68.950 L 63.612 69.682 L 63.560 69.728 L 63.494 69.788 L 63.442 69.835 L 62.633 70.587 L 62.582 70.634 L 62.518 70.696 L 62.468 70.744 L 61.677 71.516 L 61.628 71.565 L 61.565 71.628 L 61.516 71.677 L 60.744 72.468 L 60.696 72.518 L 60.634 72.582 L 60.587 72.633 L 59.835 73.442 L 59.788 73.494 L 59.728 73.560 L 59.682 73.612 L 58.950 74.439 L 58.904 74.492 L 58.846 74.559 L 58.801 74.612 L 58.090 75.457 L 58.045 75.511 L 57.988 75.580 L 57.945 75.634 L 57.254 76.496 L 57.211 76.551 L 57.156 76.621 L 57.114 76.676 L 56.445 77.555 L 56.403 77.611 L 56.350 77.683 L 56.309 77.739 L 55.662 78.634 L 55.622 78.691 L 55.570 78.764 L 55.530 78.821 L 54.906 79.731 L 54.867 79.789 L 54.817 79.863 L 54.779 79.921 L 54.176 80.847 L 54.139 80.906 L 54.091 80.981 L 54.054 81.040 L 53.475 81.981 L 53.439 82.040 L 53.393 82.117 L 53.357 82.177 L 52.801 83.131 L 52.766 83.191 L 52.722 83.269 L 52.688 83.330 L 52.156 84.297 L 52.123 84.358 L 52.081 84.437 L 52.048 84.499 L 51.540 85.479 L 51.508 85.541 L 51.468 85.621 L 51.437 85.683 L 50.952 86.676 L 50.922 86.739 L 50.884 86.819 L 50.855 86.882 L 50.395 87.887 L 50.366 87.950 L 50.330 88.032 L 50.302 88.095 L 49.867 89.111 L 49.840 89.175 L 49.806 89.257 L 49.780 89.322 L 49.369 90.347 L 49.344 90.412 L 49.312 90.495 L 49.287 90.560 L 48.902 91.596 L 48.878 91.661 L 48.848 91.745 L 48.825 91.811 L 48.466 92.855 L 48.444 92.921 L 48.416 93.006 L 48.394 93.072 L 48.061 94.125 L 48.040 94.192 L 48.014 94.277 L 47.995 94.344 L 47.687 95.404 L 47.668 95.471 L 47.644 95.557 L 47.626 95.625 L 47.344 96.693 L 47.327 96.760 L 47.305 96.847 L 47.289 96.914 L 47.034 97.989 L 47.018 98.057 L 46.999 98.144 L 46.984 98.212 L 46.755 99.292 L 46.741 99.361 L 46.724 99.448 L 46.710 99.517 L 46.508 100.602 L 46.496 100.671 L 46.481 100.759 L 46.469 100.827 L 46.294 101.918 L 46.283 101.987 L 46.270 102.075 L 46.260 102.144 L 46.112 103.238 L 46.103 103.307 L 46.092 103.396 L 46.084 103.465 L 45.962 104.563 L 45.955 104.632 L 45.946 104.721 L 45.939 104.790 L 45.845 105.891 L 45.839 105.960 L 45.833 106.049 L 45.828 106.119 L 45.760 107.221 L 45.756 107.291 L 45.752 107.380 L 45.749 107.449 L 45.708 108.553 L 45.706 108.623 L 45.704 108.712 L 45.703 108.781 L 45.689 109.886 L 45.689 109.955 L 45.689 110.045 L 45.689 110.114 L 45.703 111.219 L 45.704 111.288 L 45.706 111.377 L 45.708 111.447 L 45.749 112.551 L 45.752 112.620 L 45.756 112.709 L 45.760 112.779 L 45.828 113.881 L 45.833 113.951 L 45.839 114.040 L 45.845 114.109 L 45.939 115.210 L 45.946 115.279 L 45.955 115.368 L 45.962 115.437 L 46.084 116.535 L 46.092 116.604 L 46.103 116.693 L 46.112 116.762 L 46.260 117.856 L 46.270 117.925 L 46.283 118.013 L 46.294 118.082 L 46.469 119.173 L 46.481 119.241 L 46.496 119.329 L 46.508 119.398 L 46.710 120.483 L 46.724 120.552 L 46.741 120.639 L 46.755 120.708 L 46.984 121.788 L 46.999 121.856 L 47.018 121.943 L 47.034 122.011 L 47.289 123.086 L 47.305 123.153 L 47.327 123.240 L 47.344 123.307 L 47.626 124.375 L 47.644 124.443 L 47.668 124.529 L 47.687 124.596 L 47.995 125.656 L 48.014 125.723 L 48.040 125.808 L 48.061 125.875 L 48.394 126.928 L 48.416 126.994 L 48.444 127.079 L 48.466 127.145 L 48.825 128.189 L 48.848 128.255 L 48.878 128.339 L 48.902 128.404 L 49.287 129.440 L 49.312 129.505 L 49.344 129.588 L 49.369 129.653 L 49.780 130.678 L 49.806 130.743 L 49.840 130.825 L 49.867 130.889 L 50.302 131.905 L 50.330 131.968 L 50.366 132.050 L 50.395 132.113 L 50.855 133.118 L 50.884 133.181 L 50.922 133.261 L 50.952 133.324 L 51.437 134.317 L 51.468 134.379 L 51.508 134.459 L 51.540 134.521 L 52.048 135.501 L 52.081 135.563 L 52.123 135.642 L 52.156 135.703 L 52.688 136.670 L 52.722 136.731 L 52.766 136.809 L 52.801 136.869 L 53.357 137.823 L 53.393 137.883 L 53.439 137.960 L 53.475 138.019 L 54.054 138.960 L 54.091 139.019 L 54.139 139.094 L 54.176 139.153 L 54.779 140.079 L 54.817 140.137 L 54.867 140.211 L 54.906 140.269 L 55.530 141.179 L 55.570 141.236 L 55.622 141.309 L 55.662 141.366 L 56.309 142.261 L 56.350 142.317 L 56.403 142.389 L 56.445 142.445 L 57.114 143.324 L 57.156 143.379 L 57.211 143.449 L 57.254 143.504 L 57.945 144.366 L 57.988 144.420 L 58.045 144.489 L 58.090 144.543 L 58.801 145.388 L 58.846 145.441 L 58.904 145.508 L 58.950 145.561 L 59.682 146.388 L 59.728 146.440 L 59.788 146.506 L 59.835 146.558 L 60.587 147.367 L 60.634 147.418 L 60.696 147.482 L 60.744 147.532 L 61.516 148.323 L 61.565 148.372 L 61.628 148.435 L 61.677 148.484 L 62.468 149.256 L 62.518 149.304 L 62.582 149.366 L 62.633 149.413 L 63.442 150.165 L 63.494 150.212 L 63.560 150.272 L 63.612 150.318 L 64.439 151.050 L 64.492 151.096 L 64.559 151.154 L 64.612 151.199 L 65.457 151.910 L 65.511 151.955 L 65.580 152.012 L 65.634 152.055 L 66.496 152.746 L 66.551 152.789 L 66.621 152.844 L 66.676 152.886 L 66.964 153.105 Z" fill="#ebe2fd" stroke="none"/>
<!-- Body -->
<path d="M 100 65 A 45 45 0 0 0 100 155 Z" fill="#5c2d91"/>
<path d="M 100 65 A 45 45 0 0 1 100 155 Z" fill="#9b59d0"/>
<!-- Face -->
<circle cx="100" cy="110" r="32" fill="#ebe2fd"/>
<!-- Eyes -->
<circle cx="90" cy="106" r="5" fill="#5c2d91"/>
<circle cx="110" cy="106" r="5" fill="#5c2d91"/>
<!-- Smile -->
<path d="M 88 120 Q 100 128 112 120" stroke="#5c2d91" stroke-width="3" stroke-linecap="round" fill="none"/>
<!-- Antennae -->
<line x1="85" y1="68" x2="85" y2="50" stroke="#5c2d91" stroke-width="5" stroke-linecap="round"/>
<circle cx="85" cy="47" r="6" fill="#9b59d0"/>
<line x1="115" y1="68" x2="115" y2="50" stroke="#9b59d0" stroke-width="5" stroke-linecap="round"/>
<circle cx="115" cy="47" r="6" fill="#5c2d91"/>
<!-- Feet -->
<circle cx="85" cy="160" r="10" fill="#5c2d91"/>
<circle cx="115" cy="160" r="10" fill="#9b59d0"/>
<!-- URL arc -->
<defs><path id="url-arc" d="M 63.76 126.92 A 40 40 0 0 0 136.24 126.92"/></defs>
<text fill="#ebe2fd" font-family="Nunito, Helvetica, Arial, sans-serif"
      font-weight="700" font-size="7" letter-spacing="0.9">
  <textPath href="#url-arc" startOffset="50%" text-anchor="middle">purplecomputer.org</textPath>
</text>
</g>
  </g>
  <g inkscape:groupmode="layer" inkscape:label="cut" id="cut">
    <g transform="translate(-96.562 -66.975) scale(2.11349)"><path d="M 74.444 151.374 L 74.405 151.420 L 74.103 151.807 L 73.997 151.951 L 73.714 152.352 L 73.615 152.500 L 73.353 152.915 L 73.261 153.068 L 73.019 153.495 L 72.935 153.652 L 72.714 154.091 L 72.638 154.252 L 72.439 154.701 L 72.371 154.865 L 72.194 155.323 L 72.134 155.491 L 71.980 155.957 L 71.928 156.128 L 71.798 156.601 L 71.754 156.774 L 71.647 157.253 L 71.612 157.428 L 71.528 157.911 L 71.502 158.088 L 71.442 158.575 L 71.424 158.753 L 71.388 159.242 L 71.379 159.420 L 71.367 159.911 L 71.367 160.089 L 71.379 160.580 L 71.388 160.758 L 71.424 161.247 L 71.442 161.425 L 71.502 161.912 L 71.528 162.089 L 71.612 162.572 L 71.647 162.747 L 71.754 163.226 L 71.798 163.399 L 71.928 163.872 L 71.980 164.043 L 72.134 164.509 L 72.194 164.677 L 72.371 165.135 L 72.439 165.299 L 72.638 165.748 L 72.714 165.909 L 72.935 166.348 L 73.019 166.505 L 73.261 166.932 L 73.353 167.085 L 73.615 167.500 L 73.714 167.648 L 73.997 168.049 L 74.103 168.193 L 74.405 168.580 L 74.518 168.717 L 74.839 169.089 L 74.959 169.221 L 75.297 169.577 L 75.423 169.703 L 75.779 170.041 L 75.911 170.161 L 76.283 170.482 L 76.420 170.595 L 76.807 170.897 L 76.951 171.003 L 77.352 171.286 L 77.500 171.385 L 77.915 171.647 L 78.068 171.739 L 78.495 171.981 L 78.652 172.065 L 79.091 172.286 L 79.252 172.362 L 79.701 172.561 L 79.865 172.629 L 80.323 172.806 L 80.491 172.866 L 80.957 173.020 L 81.128 173.072 L 81.601 173.202 L 81.774 173.246 L 82.253 173.353 L 82.428 173.388 L 82.911 173.472 L 83.088 173.498 L 83.575 173.558 L 83.753 173.576 L 84.242 173.612 L 84.420 173.621 L 84.911 173.633 L 85.089 173.633 L 85.580 173.621 L 85.758 173.612 L 86.247 173.576 L 86.425 173.558 L 86.912 173.498 L 87.089 173.472 L 87.572 173.388 L 87.747 173.353 L 88.226 173.246 L 88.399 173.202 L 88.872 173.072 L 89.043 173.020 L 89.509 172.866 L 89.677 172.806 L 90.135 172.629 L 90.299 172.561 L 90.748 172.362 L 90.909 172.286 L 91.348 172.065 L 91.505 171.981 L 91.932 171.739 L 92.085 171.647 L 92.500 171.385 L 92.648 171.286 L 93.049 171.003 L 93.193 170.897 L 93.580 170.595 L 93.717 170.482 L 94.089 170.161 L 94.221 170.041 L 94.577 169.703 L 94.703 169.577 L 95.041 169.221 L 95.161 169.089 L 95.482 168.717 L 95.595 168.580 L 95.897 168.193 L 96.003 168.049 L 96.286 167.648 L 96.385 167.500 L 96.647 167.085 L 96.739 166.932 L 96.981 166.505 L 97.065 166.348 L 97.286 165.909 L 97.362 165.748 L 97.561 165.299 L 97.629 165.135 L 97.806 164.677 L 97.866 164.509 L 98.020 164.043 L 98.072 163.872 L 98.202 163.399 L 98.246 163.226 L 98.353 162.747 L 98.388 162.572 L 98.472 162.089 L 98.498 161.912 L 98.558 161.425 L 98.576 161.247 L 98.612 160.758 L 98.621 160.580 L 98.633 160.089 L 98.633 159.911 L 98.621 159.420 L 98.612 159.242 L 98.576 158.753 L 98.562 158.610 L 98.762 158.618 L 98.851 158.620 L 99.955 158.634 L 100.045 158.634 L 101.149 158.620 L 101.238 158.618 L 101.438 158.610 L 101.424 158.753 L 101.388 159.242 L 101.379 159.420 L 101.367 159.911 L 101.367 160.089 L 101.379 160.580 L 101.388 160.758 L 101.424 161.247 L 101.442 161.425 L 101.502 161.912 L 101.528 162.089 L 101.612 162.572 L 101.647 162.747 L 101.754 163.226 L 101.798 163.399 L 101.928 163.872 L 101.980 164.043 L 102.134 164.509 L 102.194 164.677 L 102.371 165.135 L 102.439 165.299 L 102.638 165.748 L 102.714 165.909 L 102.935 166.348 L 103.019 166.505 L 103.261 166.932 L 103.353 167.085 L 103.615 167.500 L 103.714 167.648 L 103.997 168.049 L 104.103 168.193 L 104.405 168.580 L 104.518 168.717 L 104.839 169.089 L 104.959 169.221 L 105.297 169.577 L 105.423 169.703 L 105.779 170.041 L 105.911 170.161 L 106.283 170.482 L 106.420 170.595 L 106.807 170.897 L 106.951 171.003 L 107.352 171.286 L 107.500 171.385 L 107.915 171.647 L 108.068 171.739 L 108.495 171.981 L 108.652 172.065 L 109.091 172.286 L 109.252 172.362 L 109.701 172.561 L 109.865 172.629 L 110.323 172.806 L 110.491 172.866 L 110.957 173.020 L 111.128 173.072 L 111.601 173.202 L 111.774 173.246 L 112.253 173.353 L 112.428 173.388 L 112.911 173.472 L 113.088 173.498 L 113.575 173.558 L 113.753 173.576 L 114.242 173.612 L 114.420 173.621 L 114.911 173.633 L 115.089 173.633 L 115.580 173.621 L 115.758 173.612 L 116.247 173.576 L 116.425 173.558 L 116.912 173.498 L 117.089 173.472 L 117.572 173.388 L 117.747 173.353 L 118.226 173.246 L 118.399 173.202 L 118.872 173.072 L 119.043 173.020 L 119.509 172.866 L 119.677 172.806 L 120.135 172.629 L 120.299 172.561 L 120.748 172.362 L 120.909 172.286 L 121.348 172.065 L 121.505 171.981 L 121.932 171.739 L 122.085 171.647 L 122.500 171.385 L 122.648 171.286 L 123.049 171.003 L 123.193 170.897 L 123.580 170.595 L 123.717 170.482 L 124.089 170.161 L 124.221 170.041 L 124.577 169.703 L 124.703 169.577 L 125.041 169.221 L 125.161 169.089 L 125.482 168.717 L 125.595 168.580 L 125.897 168.193 L 126.003 168.049 L 126.286 167.648 L 126.385 167.500 L 126.647 167.085 L 126.739 166.932 L 126.981 166.505 L 127.065 166.348 L 127.286 165.909 L 127.362 165.748 L 127.561 165.299 L 127.629 165.135 L 127.806 164.677 L 127.866 164.509 L 128.020 164.043 L 128.072 163.872 L 128.202 163.399 L 128.246 163.226 L 128.353 162.747 L 128.388 162.572 L 128.472 162.089 L 128.498 161.912 L 128.558 161.425 L 128.576 161.247 L 128.612 160.758 L 128.621 160.580 L 128.633 160.089 L 128.633 159.911 L 128.621 159.420 L 128.612 159.242 L 128.576 158.753 L 128.558 158.575 L 128.498 158.088 L 128.472 157.911 L 128.388 157.428 L 128.353 157.253 L 128.246 156.774 L 128.202 156.601 L 128.072 156.128 L 128.020 155.957 L 127.866 155.491 L 127.806 155.323 L 127.629 154.865 L 127.561 154.701 L 127.362 154.252 L 127.286 154.091 L 127.065 153.652 L 126.981 153.495 L 126.739 153.068 L 126.647 152.915 L 126.385 152.500 L 126.286 152.352 L 126.003 151.951 L 125.897 151.807 L 125.595 151.420 L 125.556 151.374 L 125.981 151.112 L 126.056 151.064 L 126.982 150.462 L 127.056 150.413 L 127.967 149.788 L 128.040 149.736 L 128.935 149.089 L 129.007 149.036 L 129.886 148.368 L 129.956 148.313 L 130.818 147.623 L 130.887 147.566 L 131.732 146.855 L 131.800 146.797 L 132.627 146.065 L 132.693 146.005 L 133.502 145.253 L 133.567 145.192 L 134.358 144.421 L 134.421 144.358 L 135.192 143.567 L 135.253 143.502 L 136.005 142.693 L 136.065 142.627 L 136.797 141.800 L 136.855 141.732 L 137.566 140.887 L 137.623 140.818 L 138.313 139.956 L 138.368 139.886 L 139.036 139.007 L 139.089 138.935 L 139.736 138.040 L 139.788 137.967 L 140.413 137.056 L 140.462 136.982 L 141.064 136.056 L 141.112 135.981 L 141.691 135.041 L 141.737 134.964 L 142.293 134.010 L 142.337 133.933 L 142.870 132.965 L 142.912 132.886 L 143.421 131.906 L 143.461 131.826 L 143.945 130.834 L 143.983 130.753 L 144.443 129.749 L 144.479 129.668 L 144.914 128.652 L 144.949 128.570 L 145.359 127.545 L 145.391 127.461 L 145.776 126.426 L 145.806 126.342 L 146.165 125.298 L 146.193 125.213 L 146.526 124.160 L 146.552 124.075 L 146.860 123.014 L 146.884 122.928 L 147.165 121.860 L 147.187 121.774 L 147.442 120.699 L 147.462 120.612 L 147.690 119.532 L 147.708 119.444 L 147.910 118.358 L 147.925 118.271 L 148.101 117.180 L 148.114 117.092 L 148.262 115.998 L 148.273 115.909 L 148.395 114.811 L 148.404 114.723 L 148.498 113.622 L 148.505 113.533 L 148.573 112.431 L 148.577 112.342 L 148.618 111.238 L 148.620 111.149 L 148.634 110.045 L 148.634 109.955 L 148.620 108.851 L 148.618 108.762 L 148.577 107.658 L 148.573 107.569 L 148.505 106.467 L 148.498 106.378 L 148.404 105.277 L 148.395 105.189 L 148.273 104.091 L 148.262 104.002 L 148.114 102.908 L 148.101 102.820 L 147.925 101.729 L 147.910 101.642 L 147.708 100.556 L 147.690 100.468 L 147.462 99.388 L 147.442 99.301 L 147.187 98.226 L 147.165 98.140 L 146.884 97.072 L 146.860 96.986 L 146.552 95.925 L 146.526 95.840 L 146.193 94.787 L 146.165 94.702 L 145.806 93.658 L 145.776 93.574 L 145.391 92.539 L 145.359 92.455 L 144.949 91.430 L 144.914 91.348 L 144.479 90.332 L 144.443 90.251 L 143.983 89.247 L 143.945 89.166 L 143.461 88.174 L 143.421 88.094 L 142.912 87.114 L 142.870 87.035 L 142.337 86.067 L 142.293 85.990 L 141.737 85.036 L 141.691 84.959 L 141.112 84.019 L 141.064 83.944 L 140.462 83.018 L 140.413 82.944 L 139.788 82.033 L 139.736 81.960 L 139.089 81.065 L 139.036 80.993 L 138.368 80.114 L 138.313 80.044 L 137.623 79.182 L 137.566 79.113 L 136.855 78.268 L 136.797 78.200 L 136.065 77.373 L 136.005 77.307 L 135.253 76.498 L 135.192 76.433 L 134.421 75.642 L 134.358 75.579 L 133.567 74.808 L 133.502 74.747 L 132.693 73.995 L 132.627 73.935 L 131.800 73.203 L 131.732 73.145 L 130.887 72.434 L 130.818 72.377 L 129.956 71.687 L 129.886 71.632 L 129.007 70.964 L 128.935 70.911 L 128.040 70.264 L 127.967 70.212 L 127.056 69.587 L 126.982 69.538 L 126.056 68.936 L 125.981 68.888 L 125.041 68.309 L 124.964 68.263 L 124.010 67.707 L 123.933 67.663 L 122.965 67.130 L 122.886 67.088 L 121.906 66.579 L 121.826 66.539 L 121.134 66.201 L 121.134 54.427 L 121.180 54.390 L 121.403 54.197 L 121.535 54.077 L 121.748 53.874 L 121.874 53.748 L 122.077 53.535 L 122.197 53.403 L 122.390 53.180 L 122.503 53.042 L 122.684 52.810 L 122.790 52.667 L 122.960 52.426 L 123.059 52.277 L 123.216 52.029 L 123.308 51.876 L 123.453 51.619 L 123.537 51.462 L 123.670 51.199 L 123.746 51.038 L 123.865 50.769 L 123.934 50.604 L 124.040 50.329 L 124.100 50.161 L 124.192 49.882 L 124.244 49.711 L 124.322 49.427 L 124.366 49.254 L 124.430 48.967 L 124.465 48.792 L 124.515 48.502 L 124.542 48.325 L 124.578 48.033 L 124.595 47.855 L 124.617 47.562 L 124.625 47.384 L 124.633 47.089 L 124.633 46.911 L 124.625 46.616 L 124.617 46.438 L 124.595 46.145 L 124.578 45.967 L 124.542 45.675 L 124.515 45.498 L 124.465 45.208 L 124.430 45.033 L 124.366 44.746 L 124.322 44.573 L 124.244 44.289 L 124.192 44.118 L 124.100 43.839 L 124.040 43.671 L 123.934 43.396 L 123.865 43.231 L 123.746 42.962 L 123.670 42.801 L 123.537 42.538 L 123.453 42.381 L 123.308 42.124 L 123.216 41.971 L 123.059 41.723 L 122.960 41.574 L 122.790 41.333 L 122.684 41.190 L 122.503 40.958 L 122.390 40.820 L 122.197 40.597 L 122.077 40.465 L 121.874 40.252 L 121.748 40.126 L 121.535 39.923 L 121.403 39.803 L 121.180 39.610 L 121.042 39.497 L 120.810 39.316 L 120.667 39.210 L 120.426 39.040 L 120.277 38.941 L 120.029 38.784 L 119.876 38.692 L 119.619 38.547 L 119.462 38.463 L 119.199 38.330 L 119.038 38.254 L 118.769 38.135 L 118.604 38.066 L 118.329 37.960 L 118.161 37.900 L 117.882 37.808 L 117.711 37.756 L 117.427 37.678 L 117.254 37.634 L 116.967 37.570 L 116.792 37.535 L 116.502 37.485 L 116.325 37.458 L 116.033 37.422 L 115.855 37.405 L 115.562 37.383 L 115.384 37.375 L 115.089 37.367 L 114.911 37.367 L 114.616 37.375 L 114.438 37.383 L 114.145 37.405 L 113.967 37.422 L 113.675 37.458 L 113.498 37.485 L 113.208 37.535 L 113.033 37.570 L 112.746 37.634 L 112.573 37.678 L 112.289 37.756 L 112.118 37.808 L 111.839 37.900 L 111.671 37.960 L 111.396 38.066 L 111.231 38.135 L 110.962 38.254 L 110.801 38.330 L 110.538 38.463 L 110.381 38.547 L 110.124 38.692 L 109.971 38.784 L 109.723 38.941 L 109.574 39.040 L 109.333 39.210 L 109.190 39.316 L 108.958 39.497 L 108.820 39.610 L 108.597 39.803 L 108.465 39.923 L 108.252 40.126 L 108.126 40.252 L 107.923 40.465 L 107.803 40.597 L 107.610 40.820 L 107.497 40.958 L 107.316 41.190 L 107.210 41.333 L 107.040 41.574 L 106.941 41.723 L 106.784 41.971 L 106.692 42.124 L 106.547 42.381 L 106.463 42.538 L 106.330 42.801 L 106.254 42.962 L 106.135 43.231 L 106.066 43.396 L 105.960 43.671 L 105.900 43.839 L 105.808 44.118 L 105.756 44.289 L 105.678 44.573 L 105.634 44.746 L 105.570 45.033 L 105.535 45.208 L 105.485 45.498 L 105.458 45.675 L 105.422 45.967 L 105.405 46.145 L 105.383 46.438 L 105.375 46.616 L 105.367 46.911 L 105.367 47.089 L 105.375 47.384 L 105.383 47.562 L 105.405 47.855 L 105.422 48.033 L 105.458 48.325 L 105.485 48.502 L 105.535 48.792 L 105.570 48.967 L 105.634 49.254 L 105.678 49.427 L 105.756 49.711 L 105.808 49.882 L 105.900 50.161 L 105.960 50.329 L 106.066 50.604 L 106.135 50.769 L 106.254 51.038 L 106.330 51.199 L 106.463 51.462 L 106.547 51.619 L 106.692 51.876 L 106.784 52.029 L 106.941 52.277 L 107.040 52.426 L 107.210 52.667 L 107.316 52.810 L 107.497 53.042 L 107.610 53.180 L 107.803 53.403 L 107.923 53.535 L 108.126 53.748 L 108.252 53.874 L 108.465 54.077 L 108.597 54.197 L 108.820 54.390 L 108.866 54.427 L 108.866 62.185 L 108.358 62.090 L 108.271 62.075 L 107.180 61.899 L 107.092 61.886 L 105.998 61.738 L 105.909 61.727 L 104.811 61.605 L 104.723 61.596 L 103.622 61.502 L 103.533 61.495 L 102.431 61.427 L 102.342 61.423 L 101.238 61.382 L 101.149 61.380 L 100.045 61.366 L 99.955 61.366 L 98.851 61.380 L 98.762 61.382 L 97.658 61.423 L 97.569 61.427 L 96.467 61.495 L 96.378 61.502 L 95.277 61.596 L 95.189 61.605 L 94.091 61.727 L 94.002 61.738 L 92.908 61.886 L 92.820 61.899 L 91.729 62.075 L 91.642 62.090 L 91.134 62.185 L 91.134 54.427 L 91.180 54.390 L 91.403 54.197 L 91.535 54.077 L 91.748 53.874 L 91.874 53.748 L 92.077 53.535 L 92.197 53.403 L 92.390 53.180 L 92.503 53.042 L 92.684 52.810 L 92.790 52.667 L 92.960 52.426 L 93.059 52.277 L 93.216 52.029 L 93.308 51.876 L 93.453 51.619 L 93.537 51.462 L 93.670 51.199 L 93.746 51.038 L 93.865 50.769 L 93.934 50.604 L 94.040 50.329 L 94.100 50.161 L 94.192 49.882 L 94.244 49.711 L 94.322 49.427 L 94.366 49.254 L 94.430 48.967 L 94.465 48.792 L 94.515 48.502 L 94.542 48.325 L 94.578 48.033 L 94.595 47.855 L 94.617 47.562 L 94.625 47.384 L 94.633 47.089 L 94.633 46.911 L 94.625 46.616 L 94.617 46.438 L 94.595 46.145 L 94.578 45.967 L 94.542 45.675 L 94.515 45.498 L 94.465 45.208 L 94.430 45.033 L 94.366 44.746 L 94.322 44.573 L 94.244 44.289 L 94.192 44.118 L 94.100 43.839 L 94.040 43.671 L 93.934 43.396 L 93.865 43.231 L 93.746 42.962 L 93.670 42.801 L 93.537 42.538 L 93.453 42.381 L 93.308 42.124 L 93.216 41.971 L 93.059 41.723 L 92.960 41.574 L 92.790 41.333 L 92.684 41.190 L 92.503 40.958 L 92.390 40.820 L 92.197 40.597 L 92.077 40.465 L 91.874 40.252 L 91.748 40.126 L 91.535 39.923 L 91.403 39.803 L 91.180 39.610 L 91.042 39.497 L 90.810 39.316 L 90.667 39.210 L 90.426 39.040 L 90.277 38.941 L 90.029 38.784 L 89.876 38.692 L 89.619 38.547 L 89.462 38.463 L 89.199 38.330 L 89.038 38.254 L 88.769 38.135 L 88.604 38.066 L 88.329 37.960 L 88.161 37.900 L 87.882 37.808 L 87.711 37.756 L 87.427 37.678 L 87.254 37.634 L 86.967 37.570 L 86.792 37.535 L 86.502 37.485 L 86.325 37.458 L 86.033 37.422 L 85.855 37.405 L 85.562 37.383 L 85.384 37.375 L 85.089 37.367 L 84.911 37.367 L 84.616 37.375 L 84.438 37.383 L 84.145 37.405 L 83.967 37.422 L 83.675 37.458 L 83.498 37.485 L 83.208 37.535 L 83.033 37.570 L 82.746 37.634 L 82.573 37.678 L 82.289 37.756 L 82.118 37.808 L 81.839 37.900 L 81.671 37.960 L 81.396 38.066 L 81.231 38.135 L 80.962 38.254 L 80.801 38.330 L 80.538 38.463 L 80.381 38.547 L 80.124 38.692 L 79.971 38.784 L 79.723 38.941 L 79.574 39.040 L 79.333 39.210 L 79.190 39.316 L 78.958 39.497 L 78.820 39.610 L 78.597 39.803 L 78.465 39.923 L 78.252 40.126 L 78.126 40.252 L 77.923 40.465 L 77.803 40.597 L 77.610 40.820 L 77.497 40.958 L 77.316 41.190 L 77.210 41.333 L 77.040 41.574 L 76.941 41.723 L 76.784 41.971 L 76.692 42.124 L 76.547 42.381 L 76.463 42.538 L 76.330 42.801 L 76.254 42.962 L 76.135 43.231 L 76.066 43.396 L 75.960 43.671 L 75.900 43.839 L 75.808 44.118 L 75.756 44.289 L 75.678 44.573 L 75.634 44.746 L 75.570 45.033 L 75.535 45.208 L 75.485 45.498 L 75.458 45.675 L 75.422 45.967 L 75.405 46.145 L 75.383 46.438 L 75.375 46.616 L 75.367 46.911 L 75.367 47.089 L 75.375 47.384 L 75.383 47.562 L 75.405 47.855 L 75.422 48.033 L 75.458 48.325 L 75.485 48.502 L 75.535 48.792 L 75.570 48.967 L 75.634 49.254 L 75.678 49.427 L 75.756 49.711 L 75.808 49.882 L 75.900 50.161 L 75.960 50.329 L 76.066 50.604 L 76.135 50.769 L 76.254 51.038 L 76.330 51.199 L 76.463 51.462 L 76.547 51.619 L 76.692 51.876 L 76.784 52.029 L 76.941 52.277 L 77.040 52.426 L 77.210 52.667 L 77.316 52.810 L 77.497 53.042 L 77.610 53.180 L 77.803 53.403 L 77.923 53.535 L 78.126 53.748 L 78.252 53.874 L 78.465 54.077 L 78.597 54.197 L 78.820 54.390 L 78.866 54.427 L 78.866 66.201 L 78.174 66.539 L 78.094 66.579 L 77.114 67.088 L 77.035 67.130 L 76.067 67.663 L 75.990 67.707 L 75.036 68.263 L 74.959 68.309 L 74.019 68.888 L 73.944 68.936 L 73.018 69.538 L 72.944 69.587 L 72.033 70.212 L 71.960 70.264 L 71.065 70.911 L 70.993 70.964 L 70.114 71.632 L 70.044 71.687 L 69.182 72.377 L 69.113 72.434 L 68.268 73.145 L 68.200 73.203 L 67.373 73.935 L 67.307 73.995 L 66.498 74.747 L 66.433 74.808 L 65.642 75.579 L 65.579 75.642 L 64.808 76.433 L 64.747 76.498 L 63.995 77.307 L 63.935 77.373 L 63.203 78.200 L 63.145 78.268 L 62.434 79.113 L 62.377 79.182 L 61.687 80.044 L 61.632 80.114 L 60.964 80.993 L 60.911 81.065 L 60.264 81.960 L 60.212 82.033 L 59.587 82.944 L 59.538 83.018 L 58.936 83.944 L 58.888 84.019 L 58.309 84.959 L 58.263 85.036 L 57.707 85.990 L 57.663 86.067 L 57.130 87.035 L 57.088 87.114 L 56.579 88.094 L 56.539 88.174 L 56.055 89.166 L 56.017 89.247 L 55.557 90.251 L 55.521 90.332 L 55.086 91.348 L 55.051 91.430 L 54.641 92.455 L 54.609 92.539 L 54.224 93.574 L 54.194 93.658 L 53.835 94.702 L 53.807 94.787 L 53.474 95.840 L 53.448 95.925 L 53.140 96.986 L 53.116 97.072 L 52.835 98.140 L 52.813 98.226 L 52.558 99.301 L 52.538 99.388 L 52.310 100.468 L 52.292 100.556 L 52.090 101.642 L 52.075 101.729 L 51.899 102.820 L 51.886 102.908 L 51.738 104.002 L 51.727 104.091 L 51.605 105.189 L 51.596 105.277 L 51.502 106.378 L 51.495 106.467 L 51.427 107.569 L 51.423 107.658 L 51.382 108.762 L 51.380 108.851 L 51.366 109.955 L 51.366 110.045 L 51.380 111.149 L 51.382 111.238 L 51.423 112.342 L 51.427 112.431 L 51.495 113.533 L 51.502 113.622 L 51.596 114.723 L 51.605 114.811 L 51.727 115.909 L 51.738 115.998 L 51.886 117.092 L 51.899 117.180 L 52.075 118.271 L 52.090 118.358 L 52.292 119.444 L 52.310 119.532 L 52.538 120.612 L 52.558 120.699 L 52.813 121.774 L 52.835 121.860 L 53.116 122.928 L 53.140 123.014 L 53.448 124.075 L 53.474 124.160 L 53.807 125.213 L 53.835 125.298 L 54.194 126.342 L 54.224 126.426 L 54.609 127.461 L 54.641 127.545 L 55.051 128.570 L 55.086 128.652 L 55.521 129.668 L 55.557 129.749 L 56.017 130.753 L 56.055 130.834 L 56.539 131.826 L 56.579 131.906 L 57.088 132.886 L 57.130 132.965 L 57.663 133.933 L 57.707 134.010 L 58.263 134.964 L 58.309 135.041 L 58.888 135.981 L 58.936 136.056 L 59.538 136.982 L 59.587 137.056 L 60.212 137.967 L 60.264 138.040 L 60.911 138.935 L 60.964 139.007 L 61.632 139.886 L 61.687 139.956 L 62.377 140.818 L 62.434 140.887 L 63.145 141.732 L 63.203 141.800 L 63.935 142.627 L 63.995 142.693 L 64.747 143.502 L 64.808 143.567 L 65.579 144.358 L 65.642 144.421 L 66.433 145.192 L 66.498 145.253 L 67.307 146.005 L 67.373 146.065 L 68.200 146.797 L 68.268 146.855 L 69.113 147.566 L 69.182 147.623 L 70.044 148.313 L 70.114 148.368 L 70.993 149.036 L 71.065 149.089 L 71.960 149.736 L 72.033 149.788 L 72.944 150.413 L 73.018 150.462 L 73.944 151.064 L 74.019 151.112 L 74.444 151.374 Z" fill="none" stroke="#FF00FF" stroke-width="0.4732"/></g>
  </g>
</svg>
