<?xml version="1.0" encoding="UTF-8"?>
<svg xmlns="http://www.w3.org/2000/svg"
     xmlns:inkscape="http://www.inkscape.org/namespaces/inkscape"
     width="2.419in" height="3.250in"
     viewBox="0 0 232.184 311.993">
  <g inkscape:groupmode="layer" inkscape:label="art" id="art">
    <g transform="translate(-88.559 -59.911) scale(2.04651)"><path d="M 64.134 153.949 L 64.128 153.969 L 63.997 154.442 L 63.961 154.582 L 63.891 154.861 L 63.857 155.001 L 63.750 155.480 L 63.720 155.620 L 63.664 155.903 L 63.638 156.044 L 63.554 156.528 L 63.531 156.670 L 63.489 156.955 L 63.469 157.097 L 63.409 157.584 L 63.393 157.727 L 63.365 158.014 L 63.353 158.157 L 63.317 158.647 L 63.308 158.790 L 63.294 159.078 L 63.288 159.222 L 63.276 159.712 L 63.274 159.856 L 63.274 160.144 L 63.276 160.288 L 63.288 160.778 L 63.294 160.922 L 63.308 161.210 L 63.317 161.353 L 63.353 161.843 L 63.365 161.986 L 63.393 162.273 L 63.409 162.416 L 63.469 162.903 L 63.489 163.045 L 63.531 163.330 L 63.554 163.472 L 63.638 163.956 L 63.664 164.097 L 63.720 164.380 L 63.750 164.520 L 63.857 164.999 L 63.891 165.139 L 63.961 165.418 L 63.997 165.558 L 64.128 166.031 L 64.168 166.169 L 64.252 166.444 L 64.295 166.581 L 64.449 167.048 L 64.496 167.184 L 64.593 167.455 L 64.643 167.589 L 64.820 168.047 L 64.873 168.181 L 64.983 168.447 L 65.040 168.579 L 65.239 169.028 L 65.299 169.159 L 65.422 169.419 L 65.485 169.548 L 65.706 169.987 L 65.772 170.114 L 65.908 170.368 L 65.977 170.494 L 66.219 170.921 L 66.291 171.046 L 66.439 171.293 L 66.515 171.415 L 66.777 171.830 L 66.856 171.950 L 67.016 172.190 L 67.097 172.308 L 67.380 172.710 L 67.464 172.826 L 67.636 173.057 L 67.723 173.172 L 68.025 173.559 L 68.115 173.671 L 68.297 173.894 L 68.390 174.004 L 68.710 174.376 L 68.806 174.483 L 68.999 174.697 L 69.097 174.802 L 69.435 175.157 L 69.536 175.260 L 69.740 175.464 L 69.843 175.565 L 70.198 175.903 L 70.303 176.001 L 70.517 176.194 L 70.624 176.290 L 70.996 176.610 L 71.106 176.703 L 71.329 176.885 L 71.441 176.975 L 71.828 177.277 L 71.943 177.364 L 72.174 177.536 L 72.290 177.620 L 72.692 177.903 L 72.810 177.984 L 73.050 178.144 L 73.170 178.223 L 73.585 178.485 L 73.707 178.561 L 73.954 178.709 L 74.079 178.781 L 74.506 179.023 L 74.632 179.092 L 74.886 179.228 L 75.013 179.294 L 75.452 179.515 L 75.581 179.578 L 75.841 179.701 L 75.972 179.761 L 76.421 179.960 L 76.553 180.017 L 76.819 180.127 L 76.953 180.180 L 77.411 180.357 L 77.545 180.407 L 77.816 180.504 L 77.952 180.551 L 78.419 180.705 L 78.556 180.748 L 78.831 180.832 L 78.969 180.872 L 79.442 181.003 L 79.582 181.039 L 79.861 181.109 L 80.001 181.143 L 80.480 181.250 L 80.620 181.280 L 80.903 181.336 L 81.044 181.362 L 81.528 181.446 L 81.670 181.469 L 81.955 181.511 L 82.097 181.531 L 82.584 181.591 L 82.727 181.607 L 83.014 181.635 L 83.157 181.647 L 83.647 181.683 L 83.790 181.692 L 84.078 181.706 L 84.222 181.712 L 84.712 181.724 L 84.856 181.726 L 85.144 181.726 L 85.288 181.724 L 85.778 181.712 L 85.922 181.706 L 86.210 181.692 L 86.353 181.683 L 86.843 181.647 L 86.986 181.635 L 87.273 181.607 L 87.416 181.591 L 87.903 181.531 L 88.045 181.511 L 88.330 181.469 L 88.472 181.446 L 88.956 181.362 L 89.097 181.336 L 89.380 181.280 L 89.520 181.250 L 89.999 181.143 L 90.139 181.109 L 90.418 181.039 L 90.558 181.003 L 91.031 180.872 L 91.169 180.832 L 91.444 180.748 L 91.581 180.705 L 92.048 180.551 L 92.184 180.504 L 92.455 180.407 L 92.589 180.357 L 93.047 180.180 L 93.181 180.127 L 93.447 180.017 L 93.579 179.960 L 94.028 179.761 L 94.159 179.701 L 94.419 179.578 L 94.548 179.515 L 94.987 179.294 L 95.114 179.228 L 95.368 179.092 L 95.494 179.023 L 95.921 178.781 L 96.046 178.709 L 96.293 178.561 L 96.415 178.485 L 96.830 178.223 L 96.950 178.144 L 97.190 177.984 L 97.308 177.903 L 97.710 177.620 L 97.826 177.536 L 98.057 177.364 L 98.172 177.277 L 98.559 176.975 L 98.671 176.885 L 98.894 176.703 L 99.004 176.610 L 99.376 176.290 L 99.483 176.194 L 99.697 176.001 L 99.802 175.903 L 100.000 175.714 L 100.198 175.903 L 100.303 176.001 L 100.517 176.194 L 100.624 176.290 L 100.996 176.610 L 101.106 176.703 L 101.329 176.885 L 101.441 176.975 L 101.828 177.277 L 101.943 177.364 L 102.174 177.536 L 102.290 177.620 L 102.692 177.903 L 102.810 177.984 L 103.050 178.144 L 103.170 178.223 L 103.585 178.485 L 103.707 178.561 L 103.954 178.709 L 104.079 178.781 L 104.506 179.023 L 104.632 179.092 L 104.886 179.228 L 105.013 179.294 L 105.452 179.515 L 105.581 179.578 L 105.841 179.701 L 105.972 179.761 L 106.421 179.960 L 106.553 180.017 L 106.819 180.127 L 106.953 180.180 L 107.411 180.357 L 107.545 180.407 L 107.816 180.504 L 107.952 180.551 L 108.419 180.705 L 108.556 180.748 L 108.831 180.832 L 108.969 180.872 L 109.442 181.003 L 109.582 181.039 L 109.861 181.109 L 110.001 181.143 L 110.480 181.250 L 110.620 181.280 L 110.903 181.336 L 111.044 181.362 L 111.528 181.446 L 111.670 181.469 L 111.955 181.511 L 112.097 181.531 L 112.584 181.591 L 112.727 181.607 L 113.014 181.635 L 113.157 181.647 L 113.647 181.683 L 113.790 181.692 L 114.078 181.706 L 114.222 181.712 L 114.712 181.724 L 114.856 181.726 L 115.144 181.726 L 115.288 181.724 L 115.778 181.712 L 115.922 181.706 L 116.210 181.692 L 116.353 181.683 L 116.843 181.647 L 116.986 181.635 L 117.273 181.607 L 117.416 181.591 L 117.903 181.531 L 118.045 181.511 L 118.330 181.469 L 118.472 181.446 L 118.956 181.362 L 119.097 181.336 L 119.380 181.280 L 119.520 181.250 L 119.999 181.143 L 120.139 181.109 L 120.418 181.039 L 120.558 181.003 L 121.031 180.872 L 121.169 180.832 L 121.444 180.748 L 121.581 180.705 L 122.048 180.551 L 122.184 180.504 L 122.455 180.407 L 122.589 180.357 L 123.047 180.180 L 123.181 180.127 L 123.447 180.017 L 123.579 179.960 L 124.028 179.761 L 124.159 179.701 L 124.419 179.578 L 124.548 179.515 L 124.987 179.294 L 125.114 179.228 L 125.368 179.092 L 125.494 179.023 L 125.921 178.781 L 126.046 178.709 L 126.293 178.561 L 126.415 178.485 L 126.830 178.223 L 126.950 178.144 L 127.190 177.984 L 127.308 177.903 L 127.710 177.620 L 127.826 177.536 L 128.057 177.364 L 128.172 177.277 L 128.559 176.975 L 128.671 176.885 L 128.894 176.703 L 129.004 176.610 L 129.376 176.290 L 129.483 176.194 L 129.697 176.001 L 129.802 175.903 L 130.157 175.565 L 130.260 175.464 L 130.464 175.260 L 130.565 175.157 L 130.903 174.802 L 131.001 174.697 L 131.194 174.483 L 131.290 174.376 L 131.610 174.004 L 131.703 173.894 L 131.885 173.671 L 131.975 173.559 L 132.277 173.172 L 132.364 173.057 L 132.536 172.826 L 132.620 172.710 L 132.903 172.308 L 132.984 172.190 L 133.144 171.950 L 133.223 171.830 L 133.485 171.415 L 133.561 171.293 L 133.709 171.046 L 133.781 170.921 L 134.023 170.494 L 134.092 170.368 L 134.228 170.114 L 134.294 169.987 L 134.515 169.548 L 134.578 169.419 L 134.701 169.159 L 134.761 169.028 L 134.960 168.579 L 135.017 168.447 L 135.127 168.181 L 135.180 168.047 L 135.357 167.589 L 135.407 167.455 L 135.504 167.184 L 135.551 167.048 L 135.705 166.581 L 135.748 166.444 L 135.832 166.169 L 135.872 166.031 L 136.003 165.558 L 136.039 165.418 L 136.109 165.139 L 136.143 164.999 L 136.250 164.520 L 136.280 164.380 L 136.336 164.097 L 136.362 163.956 L 136.446 163.472 L 136.469 163.330 L 136.511 163.045 L 136.531 162.903 L 136.591 162.416 L 136.607 162.273 L 136.635 161.986 L 136.647 161.843 L 136.683 161.353 L 136.692 161.210 L 136.706 160.922 L 136.712 160.778 L 136.724 160.288 L 136.726 160.144 L 136.726 159.856 L 136.724 159.712 L 136.712 159.222 L 136.706 159.078 L 136.692 158.790 L 136.683 158.647 L 136.647 158.157 L 136.635 158.014 L 136.607 157.727 L 136.591 157.584 L 136.531 157.097 L 136.511 156.955 L 136.469 156.670 L 136.446 156.528 L 136.362 156.044 L 136.336 155.903 L 136.280 155.620 L 136.250 155.480 L 136.143 155.001 L 136.109 154.861 L 136.039 154.582 L 136.003 154.442 L 135.872 153.969 L 135.866 153.949 L 135.876 153.941 L 135.931 153.896 L 136.043 153.805 L 136.098 153.759 L 136.943 153.048 L 136.998 153.001 L 137.107 152.907 L 137.161 152.860 L 137.988 152.128 L 138.042 152.080 L 138.149 151.983 L 138.202 151.935 L 139.011 151.183 L 139.063 151.134 L 139.168 151.035 L 139.219 150.985 L 140.010 150.213 L 140.061 150.163 L 140.163 150.061 L 140.213 150.010 L 140.985 149.219 L 141.035 149.168 L 141.134 149.063 L 141.183 149.011 L 141.935 148.202 L 141.983 148.149 L 142.080 148.042 L 142.128 147.988 L 142.860 147.161 L 142.907 147.107 L 143.001 146.998 L 143.048 146.943 L 143.759 146.098 L 143.805 146.043 L 143.896 145.931 L 143.941 145.876 L 144.632 145.013 L 144.676 144.957 L 144.765 144.843 L 144.809 144.786 L 145.477 143.907 L 145.521 143.850 L 145.606 143.734 L 145.649 143.676 L 146.296 142.781 L 146.338 142.723 L 146.420 142.605 L 146.462 142.546 L 147.086 141.635 L 147.127 141.576 L 147.207 141.456 L 147.246 141.396 L 147.849 140.470 L 147.887 140.410 L 147.964 140.288 L 148.002 140.227 L 148.582 139.287 L 148.619 139.225 L 148.693 139.102 L 148.730 139.040 L 149.286 138.086 L 149.322 138.023 L 149.393 137.898 L 149.428 137.835 L 149.960 136.868 L 149.995 136.804 L 150.063 136.677 L 150.096 136.614 L 150.605 135.633 L 150.637 135.569 L 150.702 135.441 L 150.734 135.376 L 151.219 134.384 L 151.250 134.319 L 151.311 134.189 L 151.342 134.124 L 151.801 133.119 L 151.831 133.054 L 151.889 132.922 L 151.918 132.856 L 152.353 131.841 L 152.381 131.775 L 152.436 131.642 L 152.463 131.575 L 152.874 130.550 L 152.900 130.483 L 152.952 130.349 L 152.977 130.281 L 153.362 129.246 L 153.387 129.178 L 153.435 129.043 L 153.459 128.975 L 153.818 127.931 L 153.841 127.862 L 153.886 127.726 L 153.908 127.657 L 154.242 126.605 L 154.263 126.536 L 154.305 126.398 L 154.326 126.329 L 154.633 125.268 L 154.653 125.199 L 154.691 125.060 L 154.710 124.991 L 154.991 123.923 L 155.009 123.853 L 155.044 123.714 L 155.061 123.644 L 155.317 122.569 L 155.333 122.499 L 155.364 122.359 L 155.380 122.288 L 155.608 121.208 L 155.623 121.137 L 155.651 120.996 L 155.664 120.926 L 155.867 119.840 L 155.879 119.769 L 155.904 119.627 L 155.916 119.556 L 156.091 118.466 L 156.102 118.395 L 156.123 118.252 L 156.134 118.181 L 156.282 117.087 L 156.291 117.015 L 156.309 116.873 L 156.317 116.801 L 156.439 115.703 L 156.447 115.632 L 156.461 115.489 L 156.467 115.417 L 156.562 114.317 L 156.568 114.245 L 156.578 114.101 L 156.583 114.030 L 156.651 112.927 L 156.655 112.855 L 156.662 112.712 L 156.665 112.640 L 156.706 111.536 L 156.708 111.464 L 156.712 111.320 L 156.713 111.248 L 156.726 110.144 L 156.727 110.072 L 156.727 109.928 L 156.726 109.856 L 156.713 108.752 L 156.712 108.680 L 156.708 108.536 L 156.706 108.464 L 156.665 107.360 L 156.662 107.288 L 156.655 107.145 L 156.651 107.073 L 156.583 105.970 L 156.578 105.899 L 156.568 105.755 L 156.562 105.683 L 156.467 104.583 L 156.461 104.511 L 156.447 104.368 L 156.439 104.297 L 156.317 103.199 L 156.309 103.127 L 156.291 102.985 L 156.282 102.913 L 156.134 101.819 L 156.123 101.748 L 156.102 101.605 L 156.091 101.534 L 155.916 100.444 L 155.904 100.373 L 155.879 100.231 L 155.867 100.160 L 155.664 99.074 L 155.651 99.004 L 155.623 98.863 L 155.608 98.792 L 155.380 97.712 L 155.364 97.641 L 155.333 97.501 L 155.317 97.431 L 155.061 96.356 L 155.044 96.286 L 155.009 96.147 L 154.991 96.077 L 154.710 95.009 L 154.691 94.940 L 154.653 94.801 L 154.633 94.732 L 154.326 93.671 L 154.305 93.602 L 154.263 93.464 L 154.242 93.395 L 153.908 92.343 L 153.886 92.274 L 153.841 92.138 L 153.818 92.069 L 153.459 91.025 L 153.435 90.957 L 153.387 90.822 L 153.362 90.754 L 152.977 89.719 L 152.952 89.651 L 152.900 89.517 L 152.874 89.450 L 152.463 88.425 L 152.436 88.358 L 152.381 88.225 L 152.353 88.159 L 151.918 87.144 L 151.889 87.078 L 151.831 86.946 L 151.801 86.881 L 151.342 85.876 L 151.311 85.811 L 151.250 85.681 L 151.219 85.616 L 150.734 84.624 L 150.702 84.559 L 150.637 84.431 L 150.605 84.367 L 150.096 83.386 L 150.063 83.323 L 149.995 83.196 L 149.960 83.132 L 149.428 82.165 L 149.393 82.102 L 149.322 81.977 L 149.286 81.914 L 148.730 80.960 L 148.693 80.898 L 148.619 80.775 L 148.582 80.713 L 148.002 79.773 L 147.964 79.712 L 147.887 79.590 L 147.849 79.530 L 147.246 78.604 L 147.207 78.544 L 147.127 78.424 L 147.086 78.365 L 146.462 77.454 L 146.420 77.395 L 146.338 77.277 L 146.296 77.219 L 145.649 76.324 L 145.606 76.266 L 145.521 76.150 L 145.477 76.093 L 144.809 75.214 L 144.765 75.157 L 144.676 75.043 L 144.632 74.987 L 143.941 74.124 L 143.896 74.069 L 143.805 73.957 L 143.759 73.902 L 143.048 73.057 L 143.001 73.002 L 142.907 72.893 L 142.860 72.839 L 142.128 72.012 L 142.080 71.958 L 141.983 71.851 L 141.935 71.798 L 141.183 70.989 L 141.134 70.937 L 141.035 70.832 L 140.985 70.781 L 140.213 69.990 L 140.163 69.939 L 140.061 69.837 L 140.010 69.787 L 139.219 69.015 L 139.168 68.965 L 139.063 68.866 L 139.011 68.817 L 138.202 68.065 L 138.149 68.017 L 138.042 67.920 L 137.988 67.872 L 137.161 67.140 L 137.107 67.093 L 136.998 66.999 L 136.943 66.952 L 136.098 66.241 L 136.043 66.195 L 135.931 66.104 L 135.876 66.059 L 135.013 65.368 L 134.957 65.324 L 134.843 65.235 L 134.786 65.191 L 133.907 64.523 L 133.850 64.479 L 133.734 64.394 L 133.676 64.351 L 132.781 63.704 L 132.723 63.662 L 132.605 63.580 L 132.546 63.538 L 131.635 62.914 L 131.576 62.873 L 131.456 62.793 L 131.396 62.754 L 130.470 62.151 L 130.410 62.113 L 130.288 62.036 L 130.227 61.998 L 129.287 61.418 L 129.227 61.382 L 129.227 57.573 L 129.323 57.443 L 129.407 57.327 L 129.577 57.086 L 129.658 56.967 L 129.818 56.728 L 129.897 56.607 L 130.054 56.359 L 130.130 56.236 L 130.278 55.989 L 130.350 55.865 L 130.495 55.609 L 130.565 55.483 L 130.700 55.229 L 130.767 55.101 L 130.899 54.838 L 130.962 54.709 L 131.085 54.449 L 131.145 54.318 L 131.264 54.048 L 131.321 53.916 L 131.431 53.650 L 131.485 53.517 L 131.591 53.242 L 131.641 53.107 L 131.738 52.836 L 131.785 52.700 L 131.877 52.420 L 131.920 52.283 L 132.004 52.008 L 132.044 51.870 L 132.123 51.586 L 132.159 51.447 L 132.229 51.167 L 132.263 51.027 L 132.327 50.740 L 132.357 50.599 L 132.413 50.317 L 132.439 50.175 L 132.490 49.885 L 132.513 49.743 L 132.555 49.459 L 132.574 49.316 L 132.610 49.024 L 132.626 48.881 L 132.654 48.594 L 132.667 48.451 L 132.688 48.157 L 132.697 48.013 L 132.711 47.726 L 132.717 47.582 L 132.724 47.288 L 132.726 47.144 L 132.726 46.856 L 132.724 46.712 L 132.717 46.418 L 132.711 46.274 L 132.697 45.987 L 132.688 45.843 L 132.667 45.549 L 132.654 45.406 L 132.626 45.119 L 132.610 44.976 L 132.574 44.684 L 132.555 44.541 L 132.513 44.257 L 132.490 44.115 L 132.439 43.825 L 132.413 43.683 L 132.357 43.401 L 132.327 43.260 L 132.263 42.973 L 132.229 42.833 L 132.159 42.553 L 132.123 42.414 L 132.044 42.130 L 132.004 41.992 L 131.920 41.717 L 131.877 41.580 L 131.785 41.300 L 131.738 41.164 L 131.641 40.893 L 131.591 40.758 L 131.485 40.483 L 131.431 40.350 L 131.321 40.084 L 131.264 39.952 L 131.145 39.682 L 131.085 39.551 L 130.962 39.291 L 130.899 39.162 L 130.767 38.899 L 130.700 38.771 L 130.565 38.517 L 130.495 38.391 L 130.350 38.135 L 130.278 38.011 L 130.130 37.764 L 130.054 37.641 L 129.897 37.393 L 129.818 37.272 L 129.658 37.033 L 129.577 36.914 L 129.407 36.673 L 129.323 36.557 L 129.152 36.325 L 129.064 36.211 L 128.883 35.979 L 128.793 35.866 L 128.611 35.644 L 128.518 35.534 L 128.326 35.311 L 128.230 35.203 L 128.037 34.990 L 127.939 34.884 L 127.736 34.671 L 127.636 34.568 L 127.432 34.364 L 127.329 34.264 L 127.116 34.061 L 127.010 33.963 L 126.797 33.770 L 126.689 33.674 L 126.466 33.482 L 126.356 33.389 L 126.134 33.207 L 126.021 33.117 L 125.789 32.936 L 125.675 32.848 L 125.443 32.677 L 125.327 32.593 L 125.086 32.423 L 124.967 32.342 L 124.728 32.182 L 124.607 32.103 L 124.359 31.946 L 124.236 31.870 L 123.989 31.722 L 123.865 31.650 L 123.609 31.505 L 123.483 31.435 L 123.229 31.300 L 123.101 31.233 L 122.838 31.101 L 122.709 31.038 L 122.449 30.915 L 122.318 30.855 L 122.048 30.736 L 121.916 30.679 L 121.650 30.569 L 121.517 30.515 L 121.242 30.409 L 121.107 30.359 L 120.836 30.262 L 120.700 30.215 L 120.420 30.123 L 120.283 30.080 L 120.008 29.996 L 119.870 29.956 L 119.586 29.877 L 119.447 29.841 L 119.167 29.771 L 119.027 29.737 L 118.740 29.673 L 118.599 29.643 L 118.317 29.587 L 118.175 29.561 L 117.885 29.510 L 117.743 29.487 L 117.459 29.445 L 117.316 29.426 L 117.024 29.390 L 116.881 29.374 L 116.594 29.346 L 116.451 29.333 L 116.157 29.312 L 116.013 29.303 L 115.726 29.289 L 115.582 29.283 L 115.288 29.276 L 115.144 29.274 L 114.856 29.274 L 114.712 29.276 L 114.418 29.283 L 114.274 29.289 L 113.987 29.303 L 113.843 29.312 L 113.549 29.333 L 113.406 29.346 L 113.119 29.374 L 112.976 29.390 L 112.684 29.426 L 112.541 29.445 L 112.257 29.487 L 112.115 29.510 L 111.825 29.561 L 111.683 29.587 L 111.401 29.643 L 111.260 29.673 L 110.973 29.737 L 110.833 29.771 L 110.553 29.841 L 110.414 29.877 L 110.130 29.956 L 109.992 29.996 L 109.717 30.080 L 109.580 30.123 L 109.300 30.215 L 109.164 30.262 L 108.893 30.359 L 108.758 30.409 L 108.483 30.515 L 108.350 30.569 L 108.084 30.679 L 107.952 30.736 L 107.682 30.855 L 107.551 30.915 L 107.291 31.038 L 107.162 31.101 L 106.899 31.233 L 106.771 31.300 L 106.517 31.435 L 106.391 31.505 L 106.135 31.650 L 106.011 31.722 L 105.764 31.870 L 105.641 31.946 L 105.393 32.103 L 105.272 32.182 L 105.033 32.342 L 104.914 32.423 L 104.673 32.593 L 104.557 32.677 L 104.325 32.848 L 104.211 32.936 L 103.979 33.117 L 103.866 33.207 L 103.644 33.389 L 103.534 33.482 L 103.311 33.674 L 103.203 33.770 L 102.990 33.963 L 102.884 34.061 L 102.671 34.264 L 102.568 34.364 L 102.364 34.568 L 102.264 34.671 L 102.061 34.884 L 101.963 34.990 L 101.770 35.203 L 101.674 35.311 L 101.482 35.534 L 101.389 35.644 L 101.207 35.866 L 101.117 35.979 L 100.936 36.211 L 100.848 36.325 L 100.677 36.557 L 100.593 36.673 L 100.423 36.914 L 100.342 37.033 L 100.182 37.272 L 100.103 37.393 L 100.000 37.556 L 99.897 37.393 L 99.818 37.272 L 99.658 37.033 L 99.577 36.914 L 99.407 36.673 L 99.323 36.557 L 99.152 36.325 L 99.064 36.211 L 98.883 35.979 L 98.793 35.866 L 98.611 35.644 L 98.518 35.534 L 98.326 35.311 L 98.230 35.203 L 98.037 34.990 L 97.939 34.884 L 97.736 34.671 L 97.636 34.568 L 97.432 34.364 L 97.329 34.264 L 97.116 34.061 L 97.010 33.963 L 96.797 33.770 L 96.689 33.674 L 96.466 33.482 L 96.356 33.389 L 96.134 33.207 L 96.021 33.117 L 95.789 32.936 L 95.675 32.848 L 95.443 32.677 L 95.327 32.593 L 95.086 32.423 L 94.967 32.342 L 94.728 32.182 L 94.607 32.103 L 94.359 31.946 L 94.236 31.870 L 93.989 31.722 L 93.865 31.650 L 93.609 31.505 L 93.483 31.435 L 93.229 31.300 L 93.101 31.233 L 92.838 31.101 L 92.709 31.038 L 92.449 30.915 L 92.318 30.855 L 92.048 30.736 L 91.916 30.679 L 91.650 30.569 L 91.517 30.515 L 91.242 30.409 L 91.107 30.359 L 90.836 30.262 L 90.700 30.215 L 90.420 30.123 L 90.283 30.080 L 90.008 29.996 L 89.870 29.956 L 89.586 29.877 L 89.447 29.841 L 89.167 29.771 L 89.027 29.737 L 88.740 29.673 L 88.599 29.643 L 88.317 29.587 L 88.175 29.561 L 87.885 29.510 L 87.743 29.487 L 87.459 29.445 L 87.316 29.426 L 87.024 29.390 L 86.881 29.374 L 86.594 29.346 L 86.451 29.333 L 86.157 29.312 L 86.013 29.303 L 85.726 29.289 L 85.582 29.283 L 85.288 29.276 L 85.144 29.274 L 84.856 29.274 L 84.712 29.276 L 84.418 29.283 L 84.274 29.289 L 83.987 29.303 L 83.843 29.312 L 83.549 29.333 L 83.406 29.346 L 83.119 29.374 L 82.976 29.390 L 82.684 29.426 L 82.541 29.445 L 82.257 29.487 L 82.115 29.510 L 81.825 29.561 L 81.683 29.587 L 81.401 29.643 L 81.260 29.673 L 80.973 29.737 L 80.833 29.771 L 80.553 29.841 L 80.414 29.877 L 80.130 29.956 L 79.992 29.996 L 79.717 30.080 L 79.580 30.123 L 79.300 30.215 L 79.164 30.262 L 78.893 30.359 L 78.758 30.409 L 78.483 30.515 L 78.350 30.569 L 78.084 30.679 L 77.952 30.736 L 77.682 30.855 L 77.551 30.915 L 77.291 31.038 L 77.162 31.101 L 76.899 31.233 L 76.771 31.300 L 76.517 31.435 L 76.391 31.505 L 76.135 31.650 L 76.011 31.722 L 75.764 31.870 L 75.641 31.946 L 75.393 32.103 L 75.272 32.182 L 75.033 32.342 L 74.914 32.423 L 74.673 32.593 L 74.557 32.677 L 74.325 32.848 L 74.211 32.936 L 73.979 33.117 L 73.866 33.207 L 73.644 33.389 L 73.534 33.482 L 73.311 33.674 L 73.203 33.770 L 72.990 33.963 L 72.884 34.061 L 72.671 34.264 L 72.568 34.364 L 72.364 34.568 L 72.264 34.671 L 72.061 34.884 L 71.963 34.990 L 71.770 35.203 L 71.674 35.311 L 71.482 35.534 L 71.389 35.644 L 71.207 35.866 L 71.117 35.979 L 70.936 36.211 L 70.848 36.325 L 70.677 36.557 L 70.593 36.673 L 70.423 36.914 L 70.342 37.033 L 70.182 37.272 L 70.103 37.393 L 69.946 37.641 L 69.870 37.764 L 69.722 38.011 L 69.650 38.135 L 69.505 38.391 L 69.435 38.517 L 69.300 38.771 L 69.233 38.899 L 69.101 39.162 L 69.038 39.291 L 68.915 39.551 L 68.855 39.682 L 68.736 39.952 L 68.679 40.084 L 68.569 40.350 L 68.515 40.483 L 68.409 40.758 L 68.359 40.893 L 68.262 41.164 L 68.215 41.300 L 68.123 41.580 L 68.080 41.717 L 67.996 41.992 L 67.956 42.130 L 67.877 42.414 L 67.841 42.553 L 67.771 42.833 L 67.737 42.973 L 67.673 43.260 L 67.643 43.401 L 67.587 43.683 L 67.561 43.825 L 67.510 44.115 L 67.487 44.257 L 67.445 44.541 L 67.426 44.684 L 67.390 44.976 L 67.374 45.119 L 67.346 45.406 L 67.333 45.549 L 67.312 45.843 L 67.303 45.987 L 67.289 46.274 L 67.283 46.418 L 67.276 46.712 L 67.274 46.856 L 67.274 47.144 L 67.276 47.288 L 67.283 47.582 L 67.289 47.726 L 67.303 48.013 L 67.312 48.157 L 67.333 48.451 L 67.346 48.594 L 67.374 48.881 L 67.390 49.024 L 67.426 49.316 L 67.445 49.459 L 67.487 49.743 L 67.510 49.885 L 67.561 50.175 L 67.587 50.317 L 67.643 50.599 L 67.673 50.740 L 67.737 51.027 L 67.771 51.167 L 67.841 51.447 L 67.877 51.586 L 67.956 51.870 L 67.996 52.008 L 68.080 52.283 L 68.123 52.420 L 68.215 52.700 L 68.262 52.836 L 68.359 53.107 L 68.409 53.242 L 68.515 53.517 L 68.569 53.650 L 68.679 53.916 L 68.736 54.048 L 68.855 54.318 L 68.915 54.449 L 69.038 54.709 L 69.101 54.838 L 69.233 55.101 L 69.300 55.229 L 69.435 55.483 L 69.505 55.609 L 69.650 55.865 L 69.722 55.989 L 69.870 56.236 L 69.946 56.359 L 70.103 56.607 L 70.182 56.728 L 70.342 56.967 L 70.423 57.086 L 70.593 57.327 L 70.677 57.443 L 70.773 57.573 L 70.773 61.382 L 70.713 61.418 L 69.773 61.998 L 69.712 62.036 L 69.590 62.113 L 69.530 62.151 L 68.604 62.754 L 68.544 62.793 L 68.424 62.873 L 68.365 62.914 L 67.454 63.538 L 67.395 63.580 L 67.277 63.662 L 67.219 63.704 L 66.324 64.351 L 66.266 64.394 L 66.150 64.479 L 66.093 64.523 L 65.214 65.191 L 65.157 65.235 L 65.043 65.324 L 64.987 65.368 L 64.124 66.059 L 64.069 66.104 L 63.957 66.195 L 63.902 66.241 L 63.057 66.952 L 63.002 66.999 L 62.893 67.093 L 62.839 67.140 L 62.012 67.872 L 61.958 67.920 L 61.851 68.017 L 61.798 68.065 L 60.989 68.817 L 60.937 68.866 L 60.832 68.965 L 60.781 69.015 L 59.990 69.787 L 59.939 69.837 L 59.837 69.939 L 59.787 69.990 L 59.015 70.781 L 58.965 70.832 L 58.866 70.937 L 58.817 70.989 L 58.065 71.798 L 58.017 71.851 L 57.920 71.958 L 57.872 72.012 L 57.140 72.839 L 57.093 72.893 L 56.999 73.002 L 56.952 73.057 L 56.241 73.902 L 56.195 73.957 L 56.104 74.069 L 56.059 74.124 L 55.368 74.987 L 55.324 75.043 L 55.235 75.157 L 55.191 75.214 L 54.523 76.093 L 54.479 76.150 L 54.394 76.266 L 54.351 76.324 L 53.704 77.219 L 53.662 77.277 L 53.580 77.395 L 53.538 77.454 L 52.914 78.365 L 52.873 78.424 L 52.793 78.544 L 52.754 78.604 L 52.151 79.530 L 52.113 79.590 L 52.036 79.712 L 51.998 79.773 L 51.418 80.713 L 51.381 80.775 L 51.307 80.898 L 51.270 80.960 L 50.714 81.914 L 50.678 81.977 L 50.607 82.102 L 50.572 82.165 L 50.040 83.132 L 50.005 83.196 L 49.937 83.323 L 49.904 83.386 L 49.395 84.367 L 49.363 84.431 L 49.298 84.559 L 49.266 84.624 L 48.781 85.616 L 48.750 85.681 L 48.689 85.811 L 48.658 85.876 L 48.199 86.881 L 48.169 86.946 L 48.111 87.078 L 48.082 87.144 L 47.647 88.159 L 47.619 88.225 L 47.564 88.358 L 47.537 88.425 L 47.126 89.450 L 47.100 89.517 L 47.048 89.651 L 47.023 89.719 L 46.638 90.754 L 46.613 90.822 L 46.565 90.957 L 46.541 91.025 L 46.182 92.069 L 46.159 92.138 L 46.114 92.274 L 46.092 92.343 L 45.758 93.395 L 45.737 93.464 L 45.695 93.602 L 45.674 93.671 L 45.367 94.732 L 45.347 94.801 L 45.309 94.940 L 45.290 95.009 L 45.009 96.077 L 44.991 96.147 L 44.956 96.286 L 44.939 96.356 L 44.683 97.431 L 44.667 97.501 L 44.636 97.641 L 44.620 97.712 L 44.392 98.792 L 44.377 98.863 L 44.349 99.004 L 44.336 99.074 L 44.133 100.160 L 44.121 100.231 L 44.096 100.373 L 44.084 100.444 L 43.909 101.534 L 43.898 101.605 L 43.877 101.748 L 43.866 101.819 L 43.718 102.913 L 43.709 102.985 L 43.691 103.127 L 43.683 103.199 L 43.561 104.297 L 43.553 104.368 L 43.539 104.511 L 43.533 104.583 L 43.438 105.683 L 43.432 105.755 L 43.422 105.899 L 43.417 105.970 L 43.349 107.073 L 43.345 107.145 L 43.338 107.288 L 43.335 107.360 L 43.294 108.464 L 43.292 108.536 L 43.288 108.680 L 43.287 108.752 L 43.274 109.856 L 43.273 109.928 L 43.273 110.072 L 43.274 110.144 L 43.287 111.248 L 43.288 111.320 L 43.292 111.464 L 43.294 111.536 L 43.335 112.640 L 43.338 112.712 L 43.345 112.855 L 43.349 112.927 L 43.417 114.030 L 43.422 114.101 L 43.432 114.245 L 43.438 114.317 L 43.533 115.417 L 43.539 115.489 L 43.553 115.632 L 43.561 115.703 L 43.683 116.801 L 43.691 116.873 L 43.709 117.015 L 43.718 117.087 L 43.866 118.181 L 43.877 118.252 L 43.898 118.395 L 43.909 118.466 L 44.084 119.556 L 44.096 119.627 L 44.121 119.769 L 44.133 119.840 L 44.336 120.926 L 44.349 120.996 L 44.377 121.137 L 44.392 121.208 L 44.620 122.288 L 44.636 122.359 L 44.667 122.499 L 44.683 122.569 L 44.939 123.644 L 44.956 123.714 L 44.991 123.853 L 45.009 123.923 L 45.290 124.991 L 45.309 125.060 L 45.347 125.199 L 45.367 125.268 L 45.674 126.329 L 45.695 126.398 L 45.737 126.536 L 45.758 126.605 L 46.092 127.657 L 46.114 127.726 L 46.159 127.862 L 46.182 127.931 L 46.541 128.975 L 46.565 129.043 L 46.613 129.178 L 46.638 129.246 L 47.023 130.281 L 47.048 130.349 L 47.100 130.483 L 47.126 130.550 L 47.537 131.575 L 47.564 131.642 L 47.619 131.775 L 47.647 131.841 L 48.082 132.856 L 48.111 132.922 L 48.169 133.054 L 48.199 133.119 L 48.658 134.124 L 48.689 134.189 L 48.750 134.319 L 48.781 134.384 L 49.266 135.376 L 49.298 135.441 L 49.363 135.569 L 49.395 135.633 L 49.904 136.614 L 49.937 136.677 L 50.005 136.804 L 50.040 136.868 L 50.572 137.835 L 50.607 137.898 L 50.678 138.023 L 50.714 138.086 L 51.270 139.040 L 51.307 139.102 L 51.381 139.225 L 51.418 139.287 L 51.998 140.227 L 52.036 140.288 L 52.113 140.410 L 52.151 140.470 L 52.754 141.396 L 52.793 141.456 L 52.873 141.576 L 52.914 141.635 L 53.538 142.546 L 53.580 142.605 L 53.662 142.723 L 53.704 142.781 L 54.351 143.676 L 54.394 143.734 L 54.479 143.850 L 54.523 143.907 L 55.191 144.786 L 55.235 144.843 L 55.324 144.957 L 55.368 145.013 L 56.059 145.876 L 56.104 145.931 L 56.195 146.043 L 56.241 146.098 L 56.952 146.943 L 56.999 146.998 L 57.093 147.107 L 57.140 147.161 L 57.872 147.988 L 57.920 148.042 L 58.017 148.149 L 58.065 148.202 L 58.817 149.011 L 58.866 149.063 L 58.965 149.168 L 59.015 149.219 L 59.787 150.010 L 59.837 150.061 L 59.939 150.163 L 59.990 150.213 L 60.781 150.985 L 60.832 151.035 L 60.937 151.134 L 60.989 151.183 L 61.798 151.935 L 61.851 151.983 L 61.958 152.080 L 62.012 152.128 L 62.839 152.860 L 62.893 152.907 L 63.002 153.001 L 63.057 153.048 L 63.902 153.759 L 63.957 153.805 L 64.069 153.896 L 64.124 153.941 L 64.134 153.949 Z" fill="#ebe2fd" stroke="none"/>
<!-- Body -->
<path d="M 100 65 A 45 45 0 0 0 100 155 Z" fill="#5c2d91"/>
<path d="M 100 65 A 45 45 0 0 1 100 155 Z" fill="#9b59d0"/>
<!-- Face -->
<circle cx="100" cy="110" r="32" fill="#ebe2fd"/>
<!-- Eyes -->
<circle cx="90" cy="106" r="5" fill="#5c2d91"/>
<circle cx="110" cy="106" r="5" fill="#5c2d91"/>
<!-- Smile -->
<path d="M 88 120 Q 100 128 112 120" stroke="#5c2d91" stroke-width="3" stroke-linecap="round" fill="none"/>
<!-- Antennae -->
<line x1="85" y1="68" x2="85" y2="50" stroke="#5c2d91" stroke-width="5" stroke-linecap="round"/>
<circle cx="85" cy="47" r="6" fill="#9b59d0"/>
<line x1="115" y1="68" x2="115" y2="50" stroke="#9b59d0" stroke-width="5" stroke-linecap="round"/>
<circle cx="115" cy="47" r="6" fill="#5c2d91"/>
<!-- Feet -->
<circle cx="85" cy="160" r="10" fill="#5c2d91"/>
<circle cx="115" cy="160" r="10" fill="#9b59d0"/>
<!-- URL arc -->
<defs><path id="url-arc" d="M 63.76 126.92 A 40 40 0 0 0 136.24 126.92"/></defs>
<text fill="#ebe2fd" font-family="Nunito, Helvetica, Arial, sans-serif"
      font-weight="700" font-size="7" letter-spacing="0.9">
  <textPath href="#url-arc" startOffset="50%" text-anchor="middle">purplecomputer.org</textPath>
</text>
</g>
  </g>
  <g inkscape:groupmode="layer" inkscape:label="cut" id="cut">
    <g transform="translate(-88.559 -59.911) scale(2.04651)"><path d="M 71.307 151.994 L 71.079 152.396 L 70.943 152.650 L 70.723 153.088 L 70.600 153.348 L 70.401 153.797 L 70.290 154.063 L 70.114 154.521 L 70.017 154.792 L 69.863 155.258 L 69.779 155.533 L 69.648 156.006 L 69.579 156.285 L 69.471 156.764 L 69.415 157.047 L 69.331 157.530 L 69.289 157.815 L 69.229 158.302 L 69.200 158.588 L 69.164 159.078 L 69.150 159.365 L 69.138 159.856 L 69.138 160.144 L 69.150 160.635 L 69.164 160.922 L 69.200 161.412 L 69.229 161.698 L 69.289 162.185 L 69.331 162.470 L 69.415 162.953 L 69.471 163.236 L 69.579 163.715 L 69.648 163.994 L 69.779 164.467 L 69.863 164.742 L 70.017 165.208 L 70.114 165.479 L 70.290 165.937 L 70.401 166.203 L 70.600 166.652 L 70.723 166.912 L 70.943 167.350 L 71.079 167.604 L 71.321 168.031 L 71.469 168.278 L 71.731 168.693 L 71.891 168.932 L 72.174 169.333 L 72.345 169.564 L 72.647 169.951 L 72.830 170.174 L 73.150 170.546 L 73.344 170.759 L 73.682 171.114 L 73.886 171.318 L 74.241 171.656 L 74.454 171.850 L 74.826 172.170 L 75.049 172.353 L 75.436 172.655 L 75.667 172.826 L 76.068 173.109 L 76.307 173.269 L 76.722 173.531 L 76.969 173.679 L 77.396 173.921 L 77.650 174.057 L 78.088 174.277 L 78.348 174.400 L 78.797 174.599 L 79.063 174.710 L 79.521 174.886 L 79.792 174.983 L 80.258 175.137 L 80.533 175.221 L 81.006 175.352 L 81.285 175.421 L 81.764 175.529 L 82.047 175.585 L 82.530 175.669 L 82.815 175.711 L 83.302 175.771 L 83.588 175.800 L 84.078 175.836 L 84.365 175.850 L 84.856 175.862 L 85.144 175.862 L 85.635 175.850 L 85.922 175.836 L 86.412 175.800 L 86.698 175.771 L 87.185 175.711 L 87.470 175.669 L 87.953 175.585 L 88.236 175.529 L 88.715 175.421 L 88.994 175.352 L 89.467 175.221 L 89.742 175.137 L 90.208 174.983 L 90.479 174.886 L 90.937 174.710 L 91.203 174.599 L 91.652 174.400 L 91.912 174.277 L 92.350 174.057 L 92.604 173.921 L 93.031 173.679 L 93.278 173.531 L 93.693 173.269 L 93.932 173.109 L 94.333 172.826 L 94.564 172.655 L 94.951 172.353 L 95.174 172.170 L 95.546 171.850 L 95.759 171.656 L 96.114 171.318 L 96.318 171.114 L 96.656 170.759 L 96.850 170.546 L 97.170 170.174 L 97.353 169.951 L 97.655 169.564 L 97.826 169.333 L 98.109 168.932 L 98.269 168.693 L 98.531 168.278 L 98.679 168.031 L 98.921 167.604 L 99.057 167.350 L 99.277 166.912 L 99.400 166.652 L 99.599 166.203 L 99.710 165.937 L 99.886 165.479 L 99.983 165.208 L 100.000 165.157 L 100.017 165.208 L 100.114 165.479 L 100.290 165.937 L 100.401 166.203 L 100.600 166.652 L 100.723 166.912 L 100.943 167.350 L 101.079 167.604 L 101.321 168.031 L 101.469 168.278 L 101.731 168.693 L 101.891 168.932 L 102.174 169.333 L 102.345 169.564 L 102.647 169.951 L 102.830 170.174 L 103.150 170.546 L 103.344 170.759 L 103.682 171.114 L 103.886 171.318 L 104.241 171.656 L 104.454 171.850 L 104.826 172.170 L 105.049 172.353 L 105.436 172.655 L 105.667 172.826 L 106.068 173.109 L 106.307 173.269 L 106.722 173.531 L 106.969 173.679 L 107.396 173.921 L 107.650 174.057 L 108.088 174.277 L 108.348 174.400 L 108.797 174.599 L 109.063 174.710 L 109.521 174.886 L 109.792 174.983 L 110.258 175.137 L 110.533 175.221 L 111.006 175.352 L 111.285 175.421 L 111.764 175.529 L 112.047 175.585 L 112.530 175.669 L 112.815 175.711 L 113.302 175.771 L 113.588 175.800 L 114.078 175.836 L 114.365 175.850 L 114.856 175.862 L 115.144 175.862 L 115.635 175.850 L 115.922 175.836 L 116.412 175.800 L 116.698 175.771 L 117.185 175.711 L 117.470 175.669 L 117.953 175.585 L 118.236 175.529 L 118.715 175.421 L 118.994 175.352 L 119.467 175.221 L 119.742 175.137 L 120.208 174.983 L 120.479 174.886 L 120.937 174.710 L 121.203 174.599 L 121.652 174.400 L 121.912 174.277 L 122.350 174.057 L 122.604 173.921 L 123.031 173.679 L 123.278 173.531 L 123.693 173.269 L 123.932 173.109 L 124.333 172.826 L 124.564 172.655 L 124.951 172.353 L 125.174 172.170 L 125.546 171.850 L 125.759 171.656 L 126.114 171.318 L 126.318 171.114 L 126.656 170.759 L 126.850 170.546 L 127.170 170.174 L 127.353 169.951 L 127.655 169.564 L 127.826 169.333 L 128.109 168.932 L 128.269 168.693 L 128.531 168.278 L 128.679 168.031 L 128.921 167.604 L 129.057 167.350 L 129.277 166.912 L 129.400 166.652 L 129.599 166.203 L 129.710 165.937 L 129.886 165.479 L 129.983 165.208 L 130.137 164.742 L 130.221 164.467 L 130.352 163.994 L 130.421 163.715 L 130.529 163.236 L 130.585 162.953 L 130.669 162.470 L 130.711 162.185 L 130.771 161.698 L 130.800 161.412 L 130.836 160.922 L 130.850 160.635 L 130.862 160.144 L 130.862 159.856 L 130.850 159.365 L 130.836 159.078 L 130.800 158.588 L 130.771 158.302 L 130.711 157.815 L 130.669 157.530 L 130.585 157.047 L 130.529 156.764 L 130.421 156.285 L 130.352 156.006 L 130.221 155.533 L 130.137 155.258 L 129.983 154.792 L 129.886 154.521 L 129.710 154.063 L 129.599 153.797 L 129.400 153.348 L 129.277 153.088 L 129.057 152.650 L 128.921 152.396 L 128.693 151.994 L 129.229 151.626 L 129.346 151.544 L 130.241 150.897 L 130.357 150.811 L 131.236 150.142 L 131.349 150.054 L 132.212 149.363 L 132.323 149.272 L 133.168 148.561 L 133.277 148.467 L 134.104 147.735 L 134.211 147.639 L 135.020 146.887 L 135.124 146.788 L 135.915 146.017 L 136.017 145.915 L 136.788 145.124 L 136.887 145.020 L 137.639 144.211 L 137.735 144.104 L 138.467 143.277 L 138.561 143.168 L 139.272 142.323 L 139.363 142.212 L 140.054 141.349 L 140.142 141.236 L 140.811 140.357 L 140.897 140.241 L 141.544 139.346 L 141.626 139.229 L 142.251 138.318 L 142.331 138.198 L 142.933 137.272 L 143.010 137.151 L 143.590 136.211 L 143.664 136.087 L 144.220 135.133 L 144.291 135.008 L 144.823 134.040 L 144.891 133.913 L 145.400 132.933 L 145.465 132.804 L 145.949 131.812 L 146.011 131.682 L 146.470 130.678 L 146.529 130.546 L 146.964 129.531 L 147.019 129.398 L 147.429 128.373 L 147.481 128.238 L 147.866 127.203 L 147.914 127.068 L 148.273 126.023 L 148.319 125.887 L 148.652 124.834 L 148.694 124.696 L 149.002 123.635 L 149.040 123.497 L 149.321 122.429 L 149.356 122.289 L 149.612 121.214 L 149.643 121.074 L 149.872 119.993 L 149.900 119.852 L 150.102 118.767 L 150.127 118.625 L 150.302 117.534 L 150.323 117.392 L 150.472 116.298 L 150.489 116.155 L 150.611 115.057 L 150.625 114.914 L 150.720 113.813 L 150.731 113.670 L 150.798 112.568 L 150.805 112.424 L 150.846 111.320 L 150.850 111.176 L 150.863 110.072 L 150.863 109.928 L 150.850 108.824 L 150.846 108.680 L 150.805 107.576 L 150.798 107.432 L 150.731 106.330 L 150.720 106.187 L 150.625 105.086 L 150.611 104.943 L 150.489 103.845 L 150.472 103.702 L 150.323 102.608 L 150.302 102.466 L 150.127 101.375 L 150.102 101.233 L 149.900 100.148 L 149.872 100.007 L 149.643 98.926 L 149.612 98.786 L 149.356 97.711 L 149.321 97.571 L 149.040 96.503 L 149.002 96.365 L 148.694 95.304 L 148.652 95.166 L 148.319 94.113 L 148.273 93.977 L 147.914 92.932 L 147.866 92.797 L 147.481 91.762 L 147.429 91.627 L 147.019 90.602 L 146.964 90.469 L 146.529 89.454 L 146.470 89.322 L 146.011 88.318 L 145.949 88.188 L 145.465 87.196 L 145.400 87.067 L 144.891 86.087 L 144.823 85.960 L 144.291 84.992 L 144.220 84.867 L 143.664 83.913 L 143.590 83.789 L 143.010 82.849 L 142.933 82.728 L 142.331 81.802 L 142.251 81.682 L 141.626 80.771 L 141.544 80.654 L 140.897 79.759 L 140.811 79.643 L 140.142 78.764 L 140.054 78.651 L 139.363 77.788 L 139.272 77.677 L 138.561 76.832 L 138.467 76.723 L 137.735 75.896 L 137.639 75.789 L 136.887 74.980 L 136.788 74.876 L 136.017 74.085 L 135.915 73.983 L 135.124 73.212 L 135.020 73.113 L 134.211 72.361 L 134.104 72.265 L 133.277 71.533 L 133.168 71.439 L 132.323 70.728 L 132.212 70.637 L 131.349 69.946 L 131.236 69.858 L 130.357 69.189 L 130.241 69.103 L 129.346 68.456 L 129.229 68.374 L 128.318 67.749 L 128.198 67.669 L 127.272 67.067 L 127.151 66.990 L 126.211 66.410 L 126.087 66.336 L 125.133 65.780 L 125.008 65.709 L 124.040 65.177 L 123.913 65.109 L 123.364 64.824 L 123.364 55.412 L 123.489 55.286 L 123.692 55.073 L 123.886 54.859 L 124.078 54.636 L 124.261 54.414 L 124.442 54.182 L 124.613 53.951 L 124.783 53.710 L 124.943 53.470 L 125.100 53.222 L 125.248 52.975 L 125.393 52.719 L 125.529 52.465 L 125.661 52.202 L 125.785 51.942 L 125.904 51.672 L 126.014 51.406 L 126.120 51.132 L 126.217 50.861 L 126.309 50.581 L 126.393 50.306 L 126.471 50.022 L 126.541 49.743 L 126.606 49.455 L 126.662 49.173 L 126.712 48.883 L 126.755 48.598 L 126.791 48.306 L 126.819 48.019 L 126.841 47.726 L 126.855 47.438 L 126.862 47.144 L 126.862 46.856 L 126.855 46.562 L 126.841 46.274 L 126.819 45.981 L 126.791 45.694 L 126.755 45.402 L 126.712 45.117 L 126.662 44.827 L 126.606 44.545 L 126.541 44.257 L 126.471 43.978 L 126.393 43.694 L 126.309 43.419 L 126.217 43.139 L 126.120 42.868 L 126.014 42.594 L 125.904 42.328 L 125.785 42.058 L 125.661 41.798 L 125.529 41.535 L 125.393 41.281 L 125.248 41.025 L 125.100 40.778 L 124.943 40.530 L 124.783 40.290 L 124.613 40.049 L 124.442 39.818 L 124.261 39.586 L 124.078 39.364 L 123.886 39.141 L 123.692 38.927 L 123.489 38.714 L 123.286 38.511 L 123.073 38.308 L 122.859 38.114 L 122.636 37.922 L 122.414 37.739 L 122.182 37.558 L 121.951 37.387 L 121.710 37.217 L 121.470 37.057 L 121.222 36.900 L 120.975 36.752 L 120.719 36.607 L 120.465 36.471 L 120.202 36.339 L 119.942 36.215 L 119.672 36.096 L 119.406 35.986 L 119.132 35.880 L 118.861 35.783 L 118.581 35.691 L 118.306 35.607 L 118.022 35.529 L 117.743 35.459 L 117.455 35.394 L 117.173 35.338 L 116.883 35.288 L 116.598 35.245 L 116.306 35.209 L 116.019 35.181 L 115.726 35.159 L 115.438 35.145 L 115.144 35.138 L 114.856 35.138 L 114.562 35.145 L 114.274 35.159 L 113.981 35.181 L 113.694 35.209 L 113.402 35.245 L 113.117 35.288 L 112.827 35.338 L 112.545 35.394 L 112.257 35.459 L 111.978 35.529 L 111.694 35.607 L 111.419 35.691 L 111.139 35.783 L 110.868 35.880 L 110.594 35.986 L 110.328 36.096 L 110.058 36.215 L 109.798 36.339 L 109.535 36.471 L 109.281 36.607 L 109.025 36.752 L 108.778 36.900 L 108.530 37.057 L 108.290 37.217 L 108.049 37.387 L 107.818 37.558 L 107.586 37.739 L 107.364 37.922 L 107.141 38.114 L 106.927 38.308 L 106.714 38.511 L 106.511 38.714 L 106.308 38.927 L 106.114 39.141 L 105.922 39.364 L 105.739 39.586 L 105.558 39.818 L 105.387 40.049 L 105.217 40.290 L 105.057 40.530 L 104.900 40.778 L 104.752 41.025 L 104.607 41.281 L 104.471 41.535 L 104.339 41.798 L 104.215 42.058 L 104.096 42.328 L 103.986 42.594 L 103.880 42.868 L 103.783 43.139 L 103.691 43.419 L 103.607 43.694 L 103.529 43.978 L 103.459 44.257 L 103.394 44.545 L 103.338 44.827 L 103.288 45.117 L 103.245 45.402 L 103.209 45.694 L 103.181 45.981 L 103.159 46.274 L 103.145 46.562 L 103.138 46.856 L 103.138 47.144 L 103.145 47.438 L 103.159 47.726 L 103.181 48.019 L 103.209 48.306 L 103.245 48.598 L 103.288 48.883 L 103.338 49.173 L 103.394 49.455 L 103.459 49.743 L 103.529 50.022 L 103.607 50.306 L 103.691 50.581 L 103.783 50.861 L 103.880 51.132 L 103.986 51.406 L 104.096 51.672 L 104.215 51.942 L 104.339 52.202 L 104.471 52.465 L 104.607 52.719 L 104.752 52.975 L 104.900 53.222 L 105.057 53.470 L 105.217 53.710 L 105.387 53.951 L 105.558 54.182 L 105.739 54.414 L 105.922 54.636 L 106.114 54.859 L 106.308 55.073 L 106.511 55.286 L 106.636 55.412 L 106.636 59.574 L 106.298 59.528 L 106.155 59.511 L 105.057 59.389 L 104.914 59.375 L 103.813 59.280 L 103.670 59.269 L 102.568 59.202 L 102.424 59.195 L 101.320 59.154 L 101.176 59.150 L 100.072 59.137 L 99.928 59.137 L 98.824 59.150 L 98.680 59.154 L 97.576 59.195 L 97.432 59.202 L 96.330 59.269 L 96.187 59.280 L 95.086 59.375 L 94.943 59.389 L 93.845 59.511 L 93.702 59.528 L 93.364 59.574 L 93.364 55.412 L 93.489 55.286 L 93.692 55.073 L 93.886 54.859 L 94.078 54.636 L 94.261 54.414 L 94.442 54.182 L 94.613 53.951 L 94.783 53.710 L 94.943 53.470 L 95.100 53.222 L 95.248 52.975 L 95.393 52.719 L 95.529 52.465 L 95.661 52.202 L 95.785 51.942 L 95.904 51.672 L 96.014 51.406 L 96.120 51.132 L 96.217 50.861 L 96.309 50.581 L 96.393 50.306 L 96.471 50.022 L 96.541 49.743 L 96.606 49.455 L 96.662 49.173 L 96.712 48.883 L 96.755 48.598 L 96.791 48.306 L 96.819 48.019 L 96.841 47.726 L 96.855 47.438 L 96.862 47.144 L 96.862 46.856 L 96.855 46.562 L 96.841 46.274 L 96.819 45.981 L 96.791 45.694 L 96.755 45.402 L 96.712 45.117 L 96.662 44.827 L 96.606 44.545 L 96.541 44.257 L 96.471 43.978 L 96.393 43.694 L 96.309 43.419 L 96.217 43.139 L 96.120 42.868 L 96.014 42.594 L 95.904 42.328 L 95.785 42.058 L 95.661 41.798 L 95.529 41.535 L 95.393 41.281 L 95.248 41.025 L 95.100 40.778 L 94.943 40.530 L 94.783 40.290 L 94.613 40.049 L 94.442 39.818 L 94.261 39.586 L 94.078 39.364 L 93.886 39.141 L 93.692 38.927 L 93.489 38.714 L 93.286 38.511 L 93.073 38.308 L 92.859 38.114 L 92.636 37.922 L 92.414 37.739 L 92.182 37.558 L 91.951 37.387 L 91.710 37.217 L 91.470 37.057 L 91.222 36.900 L 90.975 36.752 L 90.719 36.607 L 90.465 36.471 L 90.202 36.339 L 89.942 36.215 L 89.672 36.096 L 89.406 35.986 L 89.132 35.880 L 88.861 35.783 L 88.581 35.691 L 88.306 35.607 L 88.022 35.529 L 87.743 35.459 L 87.455 35.394 L 87.173 35.338 L 86.883 35.288 L 86.598 35.245 L 86.306 35.209 L 86.019 35.181 L 85.726 35.159 L 85.438 35.145 L 85.144 35.138 L 84.856 35.138 L 84.562 35.145 L 84.274 35.159 L 83.981 35.181 L 83.694 35.209 L 83.402 35.245 L 83.117 35.288 L 82.827 35.338 L 82.545 35.394 L 82.257 35.459 L 81.978 35.529 L 81.694 35.607 L 81.419 35.691 L 81.139 35.783 L 80.868 35.880 L 80.594 35.986 L 80.328 36.096 L 80.058 36.215 L 79.798 36.339 L 79.535 36.471 L 79.281 36.607 L 79.025 36.752 L 78.778 36.900 L 78.530 37.057 L 78.290 37.217 L 78.049 37.387 L 77.818 37.558 L 77.586 37.739 L 77.364 37.922 L 77.141 38.114 L 76.927 38.308 L 76.714 38.511 L 76.511 38.714 L 76.308 38.927 L 76.114 39.141 L 75.922 39.364 L 75.739 39.586 L 75.558 39.818 L 75.387 40.049 L 75.217 40.290 L 75.057 40.530 L 74.900 40.778 L 74.752 41.025 L 74.607 41.281 L 74.471 41.535 L 74.339 41.798 L 74.215 42.058 L 74.096 42.328 L 73.986 42.594 L 73.880 42.868 L 73.783 43.139 L 73.691 43.419 L 73.607 43.694 L 73.529 43.978 L 73.459 44.257 L 73.394 44.545 L 73.338 44.827 L 73.288 45.117 L 73.245 45.402 L 73.209 45.694 L 73.181 45.981 L 73.159 46.274 L 73.145 46.562 L 73.138 46.856 L 73.138 47.144 L 73.145 47.438 L 73.159 47.726 L 73.181 48.019 L 73.209 48.306 L 73.245 48.598 L 73.288 48.883 L 73.338 49.173 L 73.394 49.455 L 73.459 49.743 L 73.529 50.022 L 73.607 50.306 L 73.691 50.581 L 73.783 50.861 L 73.880 51.132 L 73.986 51.406 L 74.096 51.672 L 74.215 51.942 L 74.339 52.202 L 74.471 52.465 L 74.607 52.719 L 74.752 52.975 L 74.900 53.222 L 75.057 53.470 L 75.217 53.710 L 75.387 53.951 L 75.558 54.182 L 75.739 54.414 L 75.922 54.636 L 76.114 54.859 L 76.308 55.073 L 76.511 55.286 L 76.636 55.412 L 76.636 64.824 L 76.087 65.109 L 75.960 65.177 L 74.992 65.709 L 74.867 65.780 L 73.913 66.336 L 73.789 66.410 L 72.849 66.990 L 72.728 67.067 L 71.802 67.669 L 71.682 67.749 L 70.771 68.374 L 70.654 68.456 L 69.759 69.103 L 69.643 69.189 L 68.764 69.858 L 68.651 69.946 L 67.788 70.637 L 67.677 70.728 L 66.832 71.439 L 66.723 71.533 L 65.896 72.265 L 65.789 72.361 L 64.980 73.113 L 64.876 73.212 L 64.085 73.983 L 63.983 74.085 L 63.212 74.876 L 63.113 74.980 L 62.361 75.789 L 62.265 75.896 L 61.533 76.723 L 61.439 76.832 L 60.728 77.677 L 60.637 77.788 L 59.946 78.651 L 59.858 78.764 L 59.189 79.643 L 59.103 79.759 L 58.456 80.654 L 58.374 80.771 L 57.749 81.682 L 57.669 81.802 L 57.067 82.728 L 56.990 82.849 L 56.410 83.789 L 56.336 83.913 L 55.780 84.867 L 55.709 84.992 L 55.177 85.960 L 55.109 86.087 L 54.600 87.067 L 54.535 87.196 L 54.051 88.188 L 53.989 88.318 L 53.530 89.322 L 53.471 89.454 L 53.036 90.469 L 52.981 90.602 L 52.571 91.627 L 52.519 91.762 L 52.134 92.797 L 52.086 92.932 L 51.727 93.977 L 51.681 94.113 L 51.348 95.166 L 51.306 95.304 L 50.998 96.365 L 50.960 96.503 L 50.679 97.571 L 50.644 97.711 L 50.388 98.786 L 50.357 98.926 L 50.128 100.007 L 50.100 100.148 L 49.898 101.233 L 49.873 101.375 L 49.698 102.466 L 49.677 102.608 L 49.528 103.702 L 49.511 103.845 L 49.389 104.943 L 49.375 105.086 L 49.280 106.187 L 49.269 106.330 L 49.202 107.432 L 49.195 107.576 L 49.154 108.680 L 49.150 108.824 L 49.137 109.928 L 49.137 110.072 L 49.150 111.176 L 49.154 111.320 L 49.195 112.424 L 49.202 112.568 L 49.269 113.670 L 49.280 113.813 L 49.375 114.914 L 49.389 115.057 L 49.511 116.155 L 49.528 116.298 L 49.677 117.392 L 49.698 117.534 L 49.873 118.625 L 49.898 118.767 L 50.100 119.852 L 50.128 119.993 L 50.357 121.074 L 50.388 121.214 L 50.644 122.289 L 50.679 122.429 L 50.960 123.497 L 50.998 123.635 L 51.306 124.696 L 51.348 124.834 L 51.681 125.887 L 51.727 126.023 L 52.086 127.068 L 52.134 127.203 L 52.519 128.238 L 52.571 128.373 L 52.981 129.398 L 53.036 129.531 L 53.471 130.546 L 53.530 130.678 L 53.989 131.682 L 54.051 131.812 L 54.535 132.804 L 54.600 132.933 L 55.109 133.913 L 55.177 134.040 L 55.709 135.008 L 55.780 135.133 L 56.336 136.087 L 56.410 136.211 L 56.990 137.151 L 57.067 137.272 L 57.669 138.198 L 57.749 138.318 L 58.374 139.229 L 58.456 139.346 L 59.103 140.241 L 59.189 140.357 L 59.858 141.236 L 59.946 141.349 L 60.637 142.212 L 60.728 142.323 L 61.439 143.168 L 61.533 143.277 L 62.265 144.104 L 62.361 144.211 L 63.113 145.020 L 63.212 145.124 L 63.983 145.915 L 64.085 146.017 L 64.876 146.788 L 64.980 146.887 L 65.789 147.639 L 65.896 147.735 L 66.723 148.467 L 66.832 148.561 L 67.677 149.272 L 67.788 149.363 L 68.651 150.054 L 68.764 150.142 L 69.643 150.811 L 69.759 150.897 L 70.654 151.544 L 70.771 151.626 L 71.307 151.994 Z" fill="none" stroke="#FF00FF" stroke-width="0.4886"/></g>
  </g>
</svg>
