<?xml version="1.0" encoding="UTF-8"?>
<svg xmlns="http://www.w3.org/2000/svg"
     xmlns:inkscape="http://www.inkscape.org/namespaces/inkscape"
     width="12.0in" height="4.0in"
     viewBox="0 0 1152.0 384.0">
  <g inkscape:groupmode="layer" inkscape:label="guides" id="guides">
    <line x1="576.0" y1="0" x2="576.0" y2="384.0" stroke="#CCCCCC" stroke-width="0.5" stroke-dasharray="4,4"/>
  </g>
  <g inkscape:groupmode="layer" inkscape:label="art" id="art">
    <rect x="172.457" y="71.657" width="80.229" height="80.229" rx="21.600" ry="21.600" fill="#E86262" stroke="none"/><text x="212.571" y="111.771" fill="#FFFFFF" font-family="Helvetica, Arial, sans-serif" font-weight="bold" font-size="30.93" text-anchor="middle" dominant-baseline="central">Q</text>
    <rect x="252.686" y="71.657" width="80.229" height="80.229" rx="21.600" ry="21.600" fill="#E65454" stroke="none"/><text x="292.800" y="111.771" fill="#FFFFFF" font-family="Helvetica, Arial, sans-serif" font-weight="bold" font-size="30.93" text-anchor="middle" dominant-baseline="central">W</text>
    <rect x="332.914" y="71.657" width="80.229" height="80.229" rx="21.600" ry="21.600" fill="#E44646" stroke="none"/><text x="373.029" y="111.771" fill="#FFFFFF" font-family="Helvetica, Arial, sans-serif" font-weight="bold" font-size="30.93" text-anchor="middle" dominant-baseline="central">E</text>
    <rect x="413.143" y="71.657" width="80.229" height="80.229" rx="21.600" ry="21.600" fill="#E23838" stroke="none"/><text x="453.257" y="111.771" fill="#FFFFFF" font-family="Helvetica, Arial, sans-serif" font-weight="bold" font-size="30.93" text-anchor="middle" dominant-baseline="central">R</text>
    <rect x="493.371" y="71.657" width="80.229" height="80.229" rx="21.600" ry="21.600" fill="#E02A2A" stroke="none"/><text x="533.486" y="111.771" fill="#FFFFFF" font-family="Helvetica, Arial, sans-serif" font-weight="bold" font-size="30.93" text-anchor="middle" dominant-baseline="central">T</text>
    <rect x="172.457" y="151.886" width="80.229" height="80.229" rx="21.600" ry="21.600" fill="#E8D262" stroke="none"/><text x="212.571" y="192.000" fill="#000000" font-family="Helvetica, Arial, sans-serif" font-weight="bold" font-size="30.93" text-anchor="middle" dominant-baseline="central">A</text>
    <rect x="252.686" y="151.886" width="80.229" height="80.229" rx="21.600" ry="21.600" fill="#E6CD53" stroke="none"/><text x="292.800" y="192.000" fill="#000000" font-family="Helvetica, Arial, sans-serif" font-weight="bold" font-size="30.93" text-anchor="middle" dominant-baseline="central">S</text>
    <rect x="332.914" y="151.886" width="80.229" height="80.229" rx="21.600" ry="21.600" fill="#E4C943" stroke="none"/><text x="373.029" y="192.000" fill="#000000" font-family="Helvetica, Arial, sans-serif" font-weight="bold" font-size="30.93" text-anchor="middle" dominant-baseline="central">D</text>
    <rect x="413.143" y="151.886" width="80.229" height="80.229" rx="21.600" ry="21.600" fill="#E1C433" stroke="none"/><text x="453.257" y="192.000" fill="#000000" font-family="Helvetica, Arial, sans-serif" font-weight="bold" font-size="30.93" text-anchor="middle" dominant-baseline="central">F</text>
    <rect x="493.371" y="151.886" width="80.229" height="80.229" rx="21.600" ry="21.600" fill="#DFC024" stroke="none"/><text x="533.486" y="192.000" fill="#000000" font-family="Helvetica, Arial, sans-serif" font-weight="bold" font-size="30.93" text-anchor="middle" dominant-baseline="central">G</text>
    <rect x="172.457" y="232.114" width="80.229" height="80.229" rx="21.600" ry="21.600" fill="#628FE8" stroke="none"/><text x="212.571" y="272.229" fill="#FFFFFF" font-family="Helvetica, Arial, sans-serif" font-weight="bold" font-size="30.93" text-anchor="middle" dominant-baseline="central">Z</text>
    <rect x="252.686" y="232.114" width="80.229" height="80.229" rx="21.600" ry="21.600" fill="#5183E6" stroke="none"/><text x="292.800" y="272.229" fill="#FFFFFF" font-family="Helvetica, Arial, sans-serif" font-weight="bold" font-size="30.93" text-anchor="middle" dominant-baseline="central">X</text>
    <rect x="332.914" y="232.114" width="80.229" height="80.229" rx="21.600" ry="21.600" fill="#4076E3" stroke="none"/><text x="373.029" y="272.229" fill="#FFFFFF" font-family="Helvetica, Arial, sans-serif" font-weight="bold" font-size="30.93" text-anchor="middle" dominant-baseline="central">C</text>
    <rect x="413.143" y="232.114" width="80.229" height="80.229" rx="21.600" ry="21.600" fill="#2E6AE1" stroke="none"/><text x="453.257" y="272.229" fill="#FFFFFF" font-family="Helvetica, Arial, sans-serif" font-weight="bold" font-size="30.93" text-anchor="middle" dominant-baseline="central">V</text>
    <rect x="493.371" y="232.114" width="80.229" height="80.229" rx="21.600" ry="21.600" fill="#1F5EDC" stroke="none"/><text x="533.486" y="272.229" fill="#FFFFFF" font-family="Helvetica, Arial, sans-serif" font-weight="bold" font-size="30.93" text-anchor="middle" dominant-baseline="central">B</text>
    <rect x="578.400" y="71.657" width="80.229" height="80.229" rx="21.600" ry="21.600" fill="#DB1F1F" stroke="none"/><text x="618.514" y="111.771" fill="#FFFFFF" font-family="Helvetica, Arial, sans-serif" font-weight="bold" font-size="30.93" text-anchor="middle" dominant-baseline="central">Y</text>
    <rect x="658.629" y="71.657" width="80.229" height="80.229" rx="21.600" ry="21.600" fill="#CC1D1D" stroke="none"/><text x="698.743" y="111.771" fill="#FFFFFF" font-family="Helvetica, Arial, sans-serif" font-weight="bold" font-size="30.93" text-anchor="middle" dominant-baseline="central">U</text>
    <rect x="738.857" y="71.657" width="80.229" height="80.229" rx="21.600" ry="21.600" fill="#BE1B1B" stroke="none"/><text x="778.971" y="111.771" fill="#FFFFFF" font-family="Helvetica, Arial, sans-serif" font-weight="bold" font-size="30.93" text-anchor="middle" dominant-baseline="central">I</text>
    <rect x="819.086" y="71.657" width="80.229" height="80.229" rx="21.600" ry="21.600" fill="#B01919" stroke="none"/><text x="859.200" y="111.771" fill="#FFFFFF" font-family="Helvetica, Arial, sans-serif" font-weight="bold" font-size="30.93" text-anchor="middle" dominant-baseline="central">O</text>
    <rect x="899.314" y="71.657" width="80.229" height="80.229" rx="21.600" ry="21.600" fill="#A21717" stroke="none"/><text x="939.429" y="111.771" fill="#FFFFFF" font-family="Helvetica, Arial, sans-serif" font-weight="bold" font-size="30.93" text-anchor="middle" dominant-baseline="central">P</text>
    <rect x="979.543" y="71.657" width="80.229" height="80.229" rx="21.600" ry="21.600" fill="#941515" stroke="none"/><text x="1019.657" y="111.771" fill="#FFFFFF" font-family="Helvetica, Arial, sans-serif" font-weight="bold" font-size="30.93" text-anchor="middle" dominant-baseline="central">[</text>
    <rect x="1059.771" y="71.657" width="80.229" height="80.229" rx="21.600" ry="21.600" fill="#851313" stroke="none"/><text x="1099.886" y="111.771" fill="#FFFFFF" font-family="Helvetica, Arial, sans-serif" font-weight="bold" font-size="30.93" text-anchor="middle" dominant-baseline="central">]</text>
    <rect x="578.400" y="151.886" width="80.229" height="80.229" rx="21.600" ry="21.600" fill="#D3B51E" stroke="none"/><text x="618.514" y="192.000" fill="#000000" font-family="Helvetica, Arial, sans-serif" font-weight="bold" font-size="30.93" text-anchor="middle" dominant-baseline="central">H</text>
    <rect x="658.629" y="151.886" width="80.229" height="80.229" rx="21.600" ry="21.600" fill="#C4A81C" stroke="none"/><text x="698.743" y="192.000" fill="#000000" font-family="Helvetica, Arial, sans-serif" font-weight="bold" font-size="30.93" text-anchor="middle" dominant-baseline="central">J</text>
    <rect x="738.857" y="151.886" width="80.229" height="80.229" rx="21.600" ry="21.600" fill="#B49A19" stroke="none"/><text x="778.971" y="192.000" fill="#FFFFFF" font-family="Helvetica, Arial, sans-serif" font-weight="bold" font-size="30.93" text-anchor="middle" dominant-baseline="central">K</text>
    <rect x="819.086" y="151.886" width="80.229" height="80.229" rx="21.600" ry="21.600" fill="#A58D17" stroke="none"/><text x="859.200" y="192.000" fill="#FFFFFF" font-family="Helvetica, Arial, sans-serif" font-weight="bold" font-size="30.93" text-anchor="middle" dominant-baseline="central">L</text>
    <rect x="899.314" y="151.886" width="80.229" height="80.229" rx="21.600" ry="21.600" fill="#958015" stroke="none"/><text x="939.429" y="192.000" fill="#FFFFFF" font-family="Helvetica, Arial, sans-serif" font-weight="bold" font-size="30.93" text-anchor="middle" dominant-baseline="central">;</text>
    <rect x="979.543" y="151.886" width="80.229" height="80.229" rx="21.600" ry="21.600" fill="#857213" stroke="none"/><text x="1019.657" y="192.000" fill="#FFFFFF" font-family="Helvetica, Arial, sans-serif" font-weight="bold" font-size="30.93" text-anchor="middle" dominant-baseline="central">'</text>
    <rect x="578.400" y="232.114" width="80.229" height="80.229" rx="21.600" ry="21.600" fill="#1D57CB" stroke="none"/><text x="618.514" y="272.229" fill="#FFFFFF" font-family="Helvetica, Arial, sans-serif" font-weight="bold" font-size="30.93" text-anchor="middle" dominant-baseline="central">N</text>
    <rect x="658.629" y="232.114" width="80.229" height="80.229" rx="21.600" ry="21.600" fill="#1A4FB9" stroke="none"/><text x="698.743" y="272.229" fill="#FFFFFF" font-family="Helvetica, Arial, sans-serif" font-weight="bold" font-size="30.93" text-anchor="middle" dominant-baseline="central">M</text>
    <rect x="738.857" y="232.114" width="80.229" height="80.229" rx="21.600" ry="21.600" fill="#1848A8" stroke="none"/><text x="778.971" y="272.229" fill="#FFFFFF" font-family="Helvetica, Arial, sans-serif" font-weight="bold" font-size="30.93" text-anchor="middle" dominant-baseline="central">,</text>
    <rect x="819.086" y="232.114" width="80.229" height="80.229" rx="21.600" ry="21.600" fill="#154097" stroke="none"/><text x="859.200" y="272.229" fill="#FFFFFF" font-family="Helvetica, Arial, sans-serif" font-weight="bold" font-size="30.93" text-anchor="middle" dominant-baseline="central">.</text>
    <rect x="899.314" y="232.114" width="80.229" height="80.229" rx="21.600" ry="21.600" fill="#133985" stroke="none"/><text x="939.429" y="272.229" fill="#FFFFFF" font-family="Helvetica, Arial, sans-serif" font-weight="bold" font-size="30.93" text-anchor="middle" dominant-baseline="central">/</text>
  </g>
  <g inkscape:groupmode="layer" inkscape:label="cut" id="cut">
    <rect x="184.457" y="83.657" width="56.229" height="56.229" rx="9.600" ry="9.600" fill="none" stroke="#FF00FF" stroke-width="1.0"/>
    <rect x="264.686" y="83.657" width="56.229" height="56.229" rx="9.600" ry="9.600" fill="none" stroke="#FF00FF" stroke-width="1.0"/>
    <rect x="344.914" y="83.657" width="56.229" height="56.229" rx="9.600" ry="9.600" fill="none" stroke="#FF00FF" stroke-width="1.0"/>
    <rect x="425.143" y="83.657" width="56.229" height="56.229" rx="9.600" ry="9.600" fill="none" stroke="#FF00FF" stroke-width="1.0"/>
    <rect x="505.371" y="83.657" width="56.229" height="56.229" rx="9.600" ry="9.600" fill="none" stroke="#FF00FF" stroke-width="1.0"/>
    <rect x="184.457" y="163.886" width="56.229" height="56.229" rx="9.600" ry="9.600" fill="none" stroke="#FF00FF" stroke-width="1.0"/>
    <rect x="264.686" y="163.886" width="56.229" height="56.229" rx="9.600" ry="9.600" fill="none" stroke="#FF00FF" stroke-width="1.0"/>
    <rect x="344.914" y="163.886" width="56.229" height="56.229" rx="9.600" ry="9.600" fill="none" stroke="#FF00FF" stroke-width="1.0"/>
    <rect x="425.143" y="163.886" width="56.229" height="56.229" rx="9.600" ry="9.600" fill="none" stroke="#FF00FF" stroke-width="1.0"/>
    <rect x="505.371" y="163.886" width="56.229" height="56.229" rx="9.600" ry="9.600" fill="none" stroke="#FF00FF" stroke-width="1.0"/>
    <rect x="184.457" y="244.114" width="56.229" height="56.229" rx="9.600" ry="9.600" fill="none" stroke="#FF00FF" stroke-width="1.0"/>
    <rect x="264.686" y="244.114" width="56.229" height="56.229" rx="9.600" ry="9.600" fill="none" stroke="#FF00FF" stroke-width="1.0"/>
    <rect x="344.914" y="244.114" width="56.229" height="56.229" rx="9.600" ry="9.600" fill="none" stroke="#FF00FF" stroke-width="1.0"/>
    <rect x="425.143" y="244.114" width="56.229" height="56.229" rx="9.600" ry="9.600" fill="none" stroke="#FF00FF" stroke-width="1.0"/>
    <rect x="505.371" y="244.114" width="56.229" height="56.229" rx="9.600" ry="9.600" fill="none" stroke="#FF00FF" stroke-width="1.0"/>
    <rect x="590.400" y="83.657" width="56.229" height="56.229" rx="9.600" ry="9.600" fill="none" stroke="#FF00FF" stroke-width="1.0"/>
    <rect x="670.629" y="83.657" width="56.229" height="56.229" rx="9.600" ry="9.600" fill="none" stroke="#FF00FF" stroke-width="1.0"/>
    <rect x="750.857" y="83.657" width="56.229" height="56.229" rx="9.600" ry="9.600" fill="none" stroke="#FF00FF" stroke-width="1.0"/>
    <rect x="831.086" y="83.657" width="56.229" height="56.229" rx="9.600" ry="9.600" fill="none" stroke="#FF00FF" stroke-width="1.0"/>
    <rect x="911.314" y="83.657" width="56.229" height="56.229" rx="9.600" ry="9.600" fill="none" stroke="#FF00FF" stroke-width="1.0"/>
    <rect x="991.543" y="83.657" width="56.229" height="56.229" rx="9.600" ry="9.600" fill="none" stroke="#FF00FF" stroke-width="1.0"/>
    <rect x="1071.771" y="83.657" width="56.229" height="56.229" rx="9.600" ry="9.600" fill="none" stroke="#FF00FF" stroke-width="1.0"/>
    <rect x="590.400" y="163.886" width="56.229" height="56.229" rx="9.600" ry="9.600" fill="none" stroke="#FF00FF" stroke-width="1.0"/>
    <rect x="670.629" y="163.886" width="56.229" height="56.229" rx="9.600" ry="9.600" fill="none" stroke="#FF00FF" stroke-width="1.0"/>
    <rect x="750.857" y="163.886" width="56.229" height="56.229" rx="9.600" ry="9.600" fill="none" stroke="#FF00FF" stroke-width="1.0"/>
    <rect x="831.086" y="163.886" width="56.229" height="56.229" rx="9.600" ry="9.600" fill="none" stroke="#FF00FF" stroke-width="1.0"/>
    <rect x="911.314" y="163.886" width="56.229" height="56.229" rx="9.600" ry="9.600" fill="none" stroke="#FF00FF" stroke-width="1.0"/>
    <rect x="991.543" y="163.886" width="56.229" height="56.229" rx="9.600" ry="9.600" fill="none" stroke="#FF00FF" stroke-width="1.0"/>
    <rect x="590.400" y="244.114" width="56.229" height="56.229" rx="9.600" ry="9.600" fill="none" stroke="#FF00FF" stroke-width="1.0"/>
    <rect x="670.629" y="244.114" width="56.229" height="56.229" rx="9.600" ry="9.600" fill="none" stroke="#FF00FF" stroke-width="1.0"/>
    <rect x="750.857" y="244.114" width="56.229" height="56.229" rx="9.600" ry="9.600" fill="none" stroke="#FF00FF" stroke-width="1.0"/>
    <rect x="831.086" y="244.114" width="56.229" height="56.229" rx="9.600" ry="9.600" fill="none" stroke="#FF00FF" stroke-width="1.0"/>
    <rect x="911.314" y="244.114" width="56.229" height="56.229" rx="9.600" ry="9.600" fill="none" stroke="#FF00FF" stroke-width="1.0"/>
  </g>
</svg>
