<?xml version="1.0" encoding="UTF-8"?>
<svg xmlns="http://www.w3.org/2000/svg"
     xmlns:inkscape="http://www.inkscape.org/namespaces/inkscape"
     width="12.0in" height="4.0in"
     viewBox="0 0 1152.0 384.0">
  <g inkscape:groupmode="layer" inkscape:label="guides" id="guides">
    <rect x="0.5" y="0.5" width="1151.0" height="383.0" fill="none" stroke="#CCCCCC" stroke-width="1"/>
    <line x1="576.0" y1="0" x2="576.0" y2="384.0" stroke="#CCCCCC" stroke-width="0.5" stroke-dasharray="4,4"/>
  </g>
  <g inkscape:groupmode="layer" inkscape:label="art" id="art">
    <rect x="0" y="0" width="1152.0" height="384.0" fill="#6633AA"/>
    <rect x="45.600" y="31.200" width="76.800" height="76.800" rx="20.640" ry="20.640" fill="#6633AA" stroke="none"/>
    <rect x="61.920" y="47.520" width="44.160" height="44.160" rx="4.320" ry="4.320" fill="#FFFFFF" stroke="none"/>
    <text x="91.392" y="69.600" fill="#000000" font-family="Helvetica, Arial, sans-serif" font-weight="bold" font-size="29.04" text-anchor="middle" dominant-baseline="central">1</text>
    <text x="73.440" y="65.376" fill="#000000" font-family="Helvetica, Arial, sans-serif" font-weight="bold" font-size="20.33" text-anchor="middle" dominant-baseline="central">!</text>
    <rect x="127.200" y="31.200" width="76.800" height="76.800" rx="20.640" ry="20.640" fill="#6633AA" stroke="none"/>
    <rect x="143.520" y="47.520" width="44.160" height="44.160" rx="4.320" ry="4.320" fill="#E8E8E8" stroke="none"/>
    <text x="172.992" y="69.600" fill="#000000" font-family="Helvetica, Arial, sans-serif" font-weight="bold" font-size="29.04" text-anchor="middle" dominant-baseline="central">2</text>
    <text x="152.928" y="65.376" fill="#000000" font-family="Helvetica, Arial, sans-serif" font-weight="bold" font-size="15.10" text-anchor="middle" dominant-baseline="central">@</text>
    <rect x="208.800" y="31.200" width="76.800" height="76.800" rx="20.640" ry="20.640" fill="#6633AA" stroke="none"/>
    <rect x="225.120" y="47.520" width="44.160" height="44.160" rx="4.320" ry="4.320" fill="#D0D0D0" stroke="none"/>
    <text x="254.592" y="69.600" fill="#000000" font-family="Helvetica, Arial, sans-serif" font-weight="bold" font-size="29.04" text-anchor="middle" dominant-baseline="central">3</text>
    <text x="234.528" y="65.376" fill="#000000" font-family="Helvetica, Arial, sans-serif" font-weight="bold" font-size="17.42" text-anchor="middle" dominant-baseline="central">#</text>
    <rect x="290.400" y="31.200" width="76.800" height="76.800" rx="20.640" ry="20.640" fill="#6633AA" stroke="none"/>
    <rect x="306.720" y="47.520" width="44.160" height="44.160" rx="4.320" ry="4.320" fill="#B8B8B8" stroke="none"/>
    <text x="336.192" y="69.600" fill="#000000" font-family="Helvetica, Arial, sans-serif" font-weight="bold" font-size="29.04" text-anchor="middle" dominant-baseline="central">4</text>
    <text x="316.128" y="65.376" fill="#000000" font-family="Helvetica, Arial, sans-serif" font-weight="bold" font-size="17.42" text-anchor="middle" dominant-baseline="central">$</text>
    <rect x="372.000" y="31.200" width="76.800" height="76.800" rx="20.640" ry="20.640" fill="#6633AA" stroke="none"/>
    <rect x="388.320" y="47.520" width="44.160" height="44.160" rx="4.320" ry="4.320" fill="#A0A0A0" stroke="none"/>
    <text x="417.792" y="69.600" fill="#FFFFFF" font-family="Helvetica, Arial, sans-serif" font-weight="bold" font-size="29.04" text-anchor="middle" dominant-baseline="central">5</text>
    <text x="397.728" y="65.376" fill="#FFFFFF" font-family="Helvetica, Arial, sans-serif" font-weight="bold" font-size="15.10" text-anchor="middle" dominant-baseline="central">%</text>
    <rect x="453.600" y="31.200" width="76.800" height="76.800" rx="20.640" ry="20.640" fill="#6633AA" stroke="none"/>
    <rect x="469.920" y="47.520" width="44.160" height="44.160" rx="4.320" ry="4.320" fill="#888888" stroke="none"/>
    <text x="499.392" y="69.600" fill="#FFFFFF" font-family="Helvetica, Arial, sans-serif" font-weight="bold" font-size="29.04" text-anchor="middle" dominant-baseline="central">6</text>
    <text x="479.328" y="65.376" fill="#FFFFFF" font-family="Helvetica, Arial, sans-serif" font-weight="bold" font-size="17.42" text-anchor="middle" dominant-baseline="central">^</text>
    <rect x="45.600" y="112.800" width="76.800" height="76.800" rx="20.640" ry="20.640" fill="#6633AA" stroke="none"/>
    <rect x="61.920" y="129.120" width="44.160" height="44.160" rx="4.320" ry="4.320" fill="#E86262" stroke="none"/>
    <text x="84.000" y="151.200" fill="#FFFFFF" font-family="Helvetica, Arial, sans-serif" font-weight="bold" font-size="29.04" text-anchor="middle" dominant-baseline="central">Q</text>
    <rect x="127.200" y="112.800" width="76.800" height="76.800" rx="20.640" ry="20.640" fill="#6633AA" stroke="none"/>
    <rect x="143.520" y="129.120" width="44.160" height="44.160" rx="4.320" ry="4.320" fill="#E65454" stroke="none"/>
    <text x="165.600" y="151.200" fill="#FFFFFF" font-family="Helvetica, Arial, sans-serif" font-weight="bold" font-size="29.04" text-anchor="middle" dominant-baseline="central">W</text>
    <rect x="208.800" y="112.800" width="76.800" height="76.800" rx="20.640" ry="20.640" fill="#6633AA" stroke="none"/>
    <rect x="225.120" y="129.120" width="44.160" height="44.160" rx="4.320" ry="4.320" fill="#E44646" stroke="none"/>
    <text x="247.200" y="151.200" fill="#FFFFFF" font-family="Helvetica, Arial, sans-serif" font-weight="bold" font-size="29.04" text-anchor="middle" dominant-baseline="central">E</text>
    <rect x="290.400" y="112.800" width="76.800" height="76.800" rx="20.640" ry="20.640" fill="#6633AA" stroke="none"/>
    <rect x="306.720" y="129.120" width="44.160" height="44.160" rx="4.320" ry="4.320" fill="#E23838" stroke="none"/>
    <text x="328.800" y="151.200" fill="#FFFFFF" font-family="Helvetica, Arial, sans-serif" font-weight="bold" font-size="29.04" text-anchor="middle" dominant-baseline="central">R</text>
    <rect x="372.000" y="112.800" width="76.800" height="76.800" rx="20.640" ry="20.640" fill="#6633AA" stroke="none"/>
    <rect x="388.320" y="129.120" width="44.160" height="44.160" rx="4.320" ry="4.320" fill="#E02A2A" stroke="none"/>
    <text x="410.400" y="151.200" fill="#FFFFFF" font-family="Helvetica, Arial, sans-serif" font-weight="bold" font-size="29.04" text-anchor="middle" dominant-baseline="central">T</text>
    <rect x="453.600" y="112.800" width="76.800" height="76.800" rx="20.640" ry="20.640" fill="#6633AA" stroke="none"/>
    <rect x="469.920" y="129.120" width="44.160" height="44.160" rx="4.320" ry="4.320" fill="#DB1F1F" stroke="none"/>
    <text x="492.000" y="151.200" fill="#FFFFFF" font-family="Helvetica, Arial, sans-serif" font-weight="bold" font-size="29.04" text-anchor="middle" dominant-baseline="central">Y</text>
    <rect x="45.600" y="194.400" width="76.800" height="76.800" rx="20.640" ry="20.640" fill="#6633AA" stroke="none"/>
    <rect x="61.920" y="210.720" width="44.160" height="44.160" rx="4.320" ry="4.320" fill="#E8D262" stroke="none"/>
    <text x="84.000" y="232.800" fill="#000000" font-family="Helvetica, Arial, sans-serif" font-weight="bold" font-size="29.04" text-anchor="middle" dominant-baseline="central">A</text>
    <rect x="127.200" y="194.400" width="76.800" height="76.800" rx="20.640" ry="20.640" fill="#6633AA" stroke="none"/>
    <rect x="143.520" y="210.720" width="44.160" height="44.160" rx="4.320" ry="4.320" fill="#E6CD53" stroke="none"/>
    <text x="165.600" y="232.800" fill="#000000" font-family="Helvetica, Arial, sans-serif" font-weight="bold" font-size="29.04" text-anchor="middle" dominant-baseline="central">S</text>
    <rect x="208.800" y="194.400" width="76.800" height="76.800" rx="20.640" ry="20.640" fill="#6633AA" stroke="none"/>
    <rect x="225.120" y="210.720" width="44.160" height="44.160" rx="4.320" ry="4.320" fill="#E4C943" stroke="none"/>
    <text x="247.200" y="232.800" fill="#000000" font-family="Helvetica, Arial, sans-serif" font-weight="bold" font-size="29.04" text-anchor="middle" dominant-baseline="central">D</text>
    <rect x="290.400" y="194.400" width="76.800" height="76.800" rx="20.640" ry="20.640" fill="#6633AA" stroke="none"/>
    <rect x="306.720" y="210.720" width="44.160" height="44.160" rx="4.320" ry="4.320" fill="#E1C433" stroke="none"/>
    <text x="328.800" y="232.800" fill="#000000" font-family="Helvetica, Arial, sans-serif" font-weight="bold" font-size="29.04" text-anchor="middle" dominant-baseline="central">F</text>
    <rect x="372.000" y="194.400" width="76.800" height="76.800" rx="20.640" ry="20.640" fill="#6633AA" stroke="none"/>
    <rect x="388.320" y="210.720" width="44.160" height="44.160" rx="4.320" ry="4.320" fill="#DFC024" stroke="none"/>
    <text x="410.400" y="232.800" fill="#000000" font-family="Helvetica, Arial, sans-serif" font-weight="bold" font-size="29.04" text-anchor="middle" dominant-baseline="central">G</text>
    <rect x="453.600" y="194.400" width="76.800" height="76.800" rx="20.640" ry="20.640" fill="#6633AA" stroke="none"/>
    <rect x="469.920" y="210.720" width="44.160" height="44.160" rx="4.320" ry="4.320" fill="#D3B51E" stroke="none"/>
    <text x="492.000" y="232.800" fill="#000000" font-family="Helvetica, Arial, sans-serif" font-weight="bold" font-size="29.04" text-anchor="middle" dominant-baseline="central">H</text>
    <rect x="45.600" y="276.000" width="76.800" height="76.800" rx="20.640" ry="20.640" fill="#6633AA" stroke="none"/>
    <rect x="61.920" y="292.320" width="44.160" height="44.160" rx="4.320" ry="4.320" fill="#628FE8" stroke="none"/>
    <text x="84.000" y="314.400" fill="#FFFFFF" font-family="Helvetica, Arial, sans-serif" font-weight="bold" font-size="29.04" text-anchor="middle" dominant-baseline="central">Z</text>
    <rect x="127.200" y="276.000" width="76.800" height="76.800" rx="20.640" ry="20.640" fill="#6633AA" stroke="none"/>
    <rect x="143.520" y="292.320" width="44.160" height="44.160" rx="4.320" ry="4.320" fill="#5183E6" stroke="none"/>
    <text x="165.600" y="314.400" fill="#FFFFFF" font-family="Helvetica, Arial, sans-serif" font-weight="bold" font-size="29.04" text-anchor="middle" dominant-baseline="central">X</text>
    <rect x="208.800" y="276.000" width="76.800" height="76.800" rx="20.640" ry="20.640" fill="#6633AA" stroke="none"/>
    <rect x="225.120" y="292.320" width="44.160" height="44.160" rx="4.320" ry="4.320" fill="#4076E3" stroke="none"/>
    <text x="247.200" y="314.400" fill="#FFFFFF" font-family="Helvetica, Arial, sans-serif" font-weight="bold" font-size="29.04" text-anchor="middle" dominant-baseline="central">C</text>
    <rect x="290.400" y="276.000" width="76.800" height="76.800" rx="20.640" ry="20.640" fill="#6633AA" stroke="none"/>
    <rect x="306.720" y="292.320" width="44.160" height="44.160" rx="4.320" ry="4.320" fill="#2E6AE1" stroke="none"/>
    <text x="328.800" y="314.400" fill="#FFFFFF" font-family="Helvetica, Arial, sans-serif" font-weight="bold" font-size="29.04" text-anchor="middle" dominant-baseline="central">V</text>
    <rect x="372.000" y="276.000" width="76.800" height="76.800" rx="20.640" ry="20.640" fill="#6633AA" stroke="none"/>
    <rect x="388.320" y="292.320" width="44.160" height="44.160" rx="4.320" ry="4.320" fill="#1F5EDC" stroke="none"/>
    <text x="410.400" y="314.400" fill="#FFFFFF" font-family="Helvetica, Arial, sans-serif" font-weight="bold" font-size="29.04" text-anchor="middle" dominant-baseline="central">B</text>
    <rect x="453.600" y="276.000" width="76.800" height="76.800" rx="20.640" ry="20.640" fill="#6633AA" stroke="none"/>
    <rect x="469.920" y="292.320" width="44.160" height="44.160" rx="4.320" ry="4.320" fill="#1D57CB" stroke="none"/>
    <text x="492.000" y="314.400" fill="#FFFFFF" font-family="Helvetica, Arial, sans-serif" font-weight="bold" font-size="29.04" text-anchor="middle" dominant-baseline="central">N</text>
    <rect x="621.600" y="31.200" width="76.800" height="76.800" rx="20.640" ry="20.640" fill="#6633AA" stroke="none"/>
    <rect x="637.920" y="47.520" width="44.160" height="44.160" rx="4.320" ry="4.320" fill="#707070" stroke="none"/>
    <text x="667.392" y="69.600" fill="#FFFFFF" font-family="Helvetica, Arial, sans-serif" font-weight="bold" font-size="29.04" text-anchor="middle" dominant-baseline="central">7</text>
    <text x="647.328" y="65.376" fill="#FFFFFF" font-family="Helvetica, Arial, sans-serif" font-weight="bold" font-size="17.42" text-anchor="middle" dominant-baseline="central">&amp;</text>
    <rect x="703.200" y="31.200" width="76.800" height="76.800" rx="20.640" ry="20.640" fill="#6633AA" stroke="none"/>
    <rect x="719.520" y="47.520" width="44.160" height="44.160" rx="4.320" ry="4.320" fill="#585858" stroke="none"/>
    <text x="748.992" y="69.600" fill="#FFFFFF" font-family="Helvetica, Arial, sans-serif" font-weight="bold" font-size="29.04" text-anchor="middle" dominant-baseline="central">8</text>
    <text x="728.928" y="65.376" fill="#FFFFFF" font-family="Helvetica, Arial, sans-serif" font-weight="bold" font-size="17.42" text-anchor="middle" dominant-baseline="central">×</text>
    <rect x="784.800" y="31.200" width="76.800" height="76.800" rx="20.640" ry="20.640" fill="#6633AA" stroke="none"/>
    <rect x="801.120" y="47.520" width="44.160" height="44.160" rx="4.320" ry="4.320" fill="#404040" stroke="none"/>
    <text x="830.592" y="69.600" fill="#FFFFFF" font-family="Helvetica, Arial, sans-serif" font-weight="bold" font-size="29.04" text-anchor="middle" dominant-baseline="central">9</text>
    <text x="810.528" y="65.376" fill="#FFFFFF" font-family="Helvetica, Arial, sans-serif" font-weight="bold" font-size="17.42" text-anchor="middle" dominant-baseline="central">(</text>
    <rect x="866.400" y="31.200" width="76.800" height="76.800" rx="20.640" ry="20.640" fill="#6633AA" stroke="none"/>
    <rect x="882.720" y="47.520" width="44.160" height="44.160" rx="4.320" ry="4.320" fill="#282828" stroke="none"/>
    <text x="912.192" y="69.600" fill="#FFFFFF" font-family="Helvetica, Arial, sans-serif" font-weight="bold" font-size="29.04" text-anchor="middle" dominant-baseline="central">0</text>
    <text x="892.128" y="65.376" fill="#FFFFFF" font-family="Helvetica, Arial, sans-serif" font-weight="bold" font-size="17.42" text-anchor="middle" dominant-baseline="central">)</text>
    <rect x="948.000" y="31.200" width="76.800" height="76.800" rx="20.640" ry="20.640" fill="#6633AA" stroke="none"/>
    <rect x="964.320" y="47.520" width="44.160" height="44.160" rx="4.320" ry="4.320" fill="#101010" stroke="none"/>
    <text x="986.400" y="69.600" fill="#FFFFFF" font-family="Helvetica, Arial, sans-serif" font-weight="bold" font-size="29.04" text-anchor="middle" dominant-baseline="central">-</text>
    <rect x="1029.600" y="31.200" width="76.800" height="76.800" rx="20.640" ry="20.640" fill="#6633AA" stroke="none"/>
    <rect x="1045.920" y="47.520" width="44.160" height="44.160" rx="4.320" ry="4.320" fill="#000000" stroke="none"/>
    <text x="1068.000" y="69.600" fill="#FFFFFF" font-family="Helvetica, Arial, sans-serif" font-weight="bold" font-size="29.04" text-anchor="middle" dominant-baseline="central">+</text>
    <rect x="621.600" y="112.800" width="76.800" height="76.800" rx="20.640" ry="20.640" fill="#6633AA" stroke="none"/>
    <rect x="637.920" y="129.120" width="44.160" height="44.160" rx="4.320" ry="4.320" fill="#CC1D1D" stroke="none"/>
    <text x="660.000" y="151.200" fill="#FFFFFF" font-family="Helvetica, Arial, sans-serif" font-weight="bold" font-size="29.04" text-anchor="middle" dominant-baseline="central">U</text>
    <rect x="703.200" y="112.800" width="76.800" height="76.800" rx="20.640" ry="20.640" fill="#6633AA" stroke="none"/>
    <rect x="719.520" y="129.120" width="44.160" height="44.160" rx="4.320" ry="4.320" fill="#BE1B1B" stroke="none"/>
    <text x="741.600" y="151.200" fill="#FFFFFF" font-family="Helvetica, Arial, sans-serif" font-weight="bold" font-size="29.04" text-anchor="middle" dominant-baseline="central">I</text>
    <rect x="784.800" y="112.800" width="76.800" height="76.800" rx="20.640" ry="20.640" fill="#6633AA" stroke="none"/>
    <rect x="801.120" y="129.120" width="44.160" height="44.160" rx="4.320" ry="4.320" fill="#B01919" stroke="none"/>
    <text x="823.200" y="151.200" fill="#FFFFFF" font-family="Helvetica, Arial, sans-serif" font-weight="bold" font-size="29.04" text-anchor="middle" dominant-baseline="central">O</text>
    <rect x="866.400" y="112.800" width="76.800" height="76.800" rx="20.640" ry="20.640" fill="#6633AA" stroke="none"/>
    <rect x="882.720" y="129.120" width="44.160" height="44.160" rx="4.320" ry="4.320" fill="#A21717" stroke="none"/>
    <text x="904.800" y="151.200" fill="#FFFFFF" font-family="Helvetica, Arial, sans-serif" font-weight="bold" font-size="29.04" text-anchor="middle" dominant-baseline="central">P</text>
    <rect x="948.000" y="112.800" width="76.800" height="76.800" rx="20.640" ry="20.640" fill="#6633AA" stroke="none"/>
    <rect x="964.320" y="129.120" width="44.160" height="44.160" rx="4.320" ry="4.320" fill="#941515" stroke="none"/>
    <text x="986.400" y="151.200" fill="#FFFFFF" font-family="Helvetica, Arial, sans-serif" font-weight="bold" font-size="29.04" text-anchor="middle" dominant-baseline="central">[</text>
    <rect x="1029.600" y="112.800" width="76.800" height="76.800" rx="20.640" ry="20.640" fill="#6633AA" stroke="none"/>
    <rect x="1045.920" y="129.120" width="44.160" height="44.160" rx="4.320" ry="4.320" fill="#851313" stroke="none"/>
    <text x="1068.000" y="151.200" fill="#FFFFFF" font-family="Helvetica, Arial, sans-serif" font-weight="bold" font-size="29.04" text-anchor="middle" dominant-baseline="central">]</text>
    <rect x="621.600" y="194.400" width="76.800" height="76.800" rx="20.640" ry="20.640" fill="#6633AA" stroke="none"/>
    <rect x="637.920" y="210.720" width="44.160" height="44.160" rx="4.320" ry="4.320" fill="#C4A81C" stroke="none"/>
    <text x="660.000" y="232.800" fill="#FFFFFF" font-family="Helvetica, Arial, sans-serif" font-weight="bold" font-size="29.04" text-anchor="middle" dominant-baseline="central">J</text>
    <rect x="703.200" y="194.400" width="76.800" height="76.800" rx="20.640" ry="20.640" fill="#6633AA" stroke="none"/>
    <rect x="719.520" y="210.720" width="44.160" height="44.160" rx="4.320" ry="4.320" fill="#B49A19" stroke="none"/>
    <text x="741.600" y="232.800" fill="#FFFFFF" font-family="Helvetica, Arial, sans-serif" font-weight="bold" font-size="29.04" text-anchor="middle" dominant-baseline="central">K</text>
    <rect x="784.800" y="194.400" width="76.800" height="76.800" rx="20.640" ry="20.640" fill="#6633AA" stroke="none"/>
    <rect x="801.120" y="210.720" width="44.160" height="44.160" rx="4.320" ry="4.320" fill="#A58D17" stroke="none"/>
    <text x="823.200" y="232.800" fill="#FFFFFF" font-family="Helvetica, Arial, sans-serif" font-weight="bold" font-size="29.04" text-anchor="middle" dominant-baseline="central">L</text>
    <rect x="866.400" y="194.400" width="76.800" height="76.800" rx="20.640" ry="20.640" fill="#6633AA" stroke="none"/>
    <rect x="882.720" y="210.720" width="44.160" height="44.160" rx="4.320" ry="4.320" fill="#958015" stroke="none"/>
    <text x="912.192" y="232.800" fill="#FFFFFF" font-family="Helvetica, Arial, sans-serif" font-weight="bold" font-size="29.04" text-anchor="middle" dominant-baseline="central">;</text>
    <text x="892.128" y="228.576" fill="#FFFFFF" font-family="Helvetica, Arial, sans-serif" font-weight="bold" font-size="17.42" text-anchor="middle" dominant-baseline="central">:</text>
    <rect x="948.000" y="194.400" width="76.800" height="76.800" rx="20.640" ry="20.640" fill="#6633AA" stroke="none"/>
    <rect x="964.320" y="210.720" width="44.160" height="44.160" rx="4.320" ry="4.320" fill="#857213" stroke="none"/>
    <text x="993.792" y="232.800" fill="#FFFFFF" font-family="Helvetica, Arial, sans-serif" font-weight="bold" font-size="29.04" text-anchor="middle" dominant-baseline="central">'</text>
    <text x="973.728" y="228.576" fill="#FFFFFF" font-family="Helvetica, Arial, sans-serif" font-weight="bold" font-size="24.68" text-anchor="middle" dominant-baseline="central">"</text>
    <rect x="621.600" y="276.000" width="76.800" height="76.800" rx="20.640" ry="20.640" fill="#6633AA" stroke="none"/>
    <rect x="637.920" y="292.320" width="44.160" height="44.160" rx="4.320" ry="4.320" fill="#1A4FB9" stroke="none"/>
    <text x="660.000" y="314.400" fill="#FFFFFF" font-family="Helvetica, Arial, sans-serif" font-weight="bold" font-size="29.04" text-anchor="middle" dominant-baseline="central">M</text>
    <rect x="703.200" y="276.000" width="76.800" height="76.800" rx="20.640" ry="20.640" fill="#6633AA" stroke="none"/>
    <rect x="719.520" y="292.320" width="44.160" height="44.160" rx="4.320" ry="4.320" fill="#1848A8" stroke="none"/>
    <text x="741.600" y="314.400" fill="#FFFFFF" font-family="Helvetica, Arial, sans-serif" font-weight="bold" font-size="29.04" text-anchor="middle" dominant-baseline="central">,</text>
    <rect x="784.800" y="276.000" width="76.800" height="76.800" rx="20.640" ry="20.640" fill="#6633AA" stroke="none"/>
    <rect x="801.120" y="292.320" width="44.160" height="44.160" rx="4.320" ry="4.320" fill="#154097" stroke="none"/>
    <text x="823.200" y="314.400" fill="#FFFFFF" font-family="Helvetica, Arial, sans-serif" font-weight="bold" font-size="29.04" text-anchor="middle" dominant-baseline="central">.</text>
    <rect x="866.400" y="276.000" width="76.800" height="76.800" rx="20.640" ry="20.640" fill="#6633AA" stroke="none"/>
    <rect x="882.720" y="292.320" width="44.160" height="44.160" rx="4.320" ry="4.320" fill="#133985" stroke="none"/>
    <text x="912.192" y="314.400" fill="#FFFFFF" font-family="Helvetica, Arial, sans-serif" font-weight="bold" font-size="29.04" text-anchor="middle" dominant-baseline="central">÷</text>
    <text x="892.128" y="310.176" fill="#FFFFFF" font-family="Helvetica, Arial, sans-serif" font-weight="bold" font-size="20.33" text-anchor="middle" dominant-baseline="central">?</text>
    <text x="1027.200" y="314.400" fill="#F2E8FA" font-family="Helvetica, Arial, sans-serif" font-weight="bold" font-size="17" text-anchor="middle" dominant-baseline="central" dy="-0.7em">Purple Computer</text><text x="1027.200" y="314.400" fill="#F2E8FA" font-family="Helvetica, Arial, sans-serif" font-size="13" text-anchor="middle" dominant-baseline="central" dy="1.2em">purplecomputer.org</text>
  </g>
  <g inkscape:groupmode="layer" inkscape:label="cut" id="cut">
    <rect x="57.600" y="43.200" width="52.800" height="52.800" rx="8.640" ry="8.640" fill="none" stroke="#FF00FF" stroke-width="1.0"/>
    <rect x="139.200" y="43.200" width="52.800" height="52.800" rx="8.640" ry="8.640" fill="none" stroke="#FF00FF" stroke-width="1.0"/>
    <rect x="220.800" y="43.200" width="52.800" height="52.800" rx="8.640" ry="8.640" fill="none" stroke="#FF00FF" stroke-width="1.0"/>
    <rect x="302.400" y="43.200" width="52.800" height="52.800" rx="8.640" ry="8.640" fill="none" stroke="#FF00FF" stroke-width="1.0"/>
    <rect x="384.000" y="43.200" width="52.800" height="52.800" rx="8.640" ry="8.640" fill="none" stroke="#FF00FF" stroke-width="1.0"/>
    <rect x="465.600" y="43.200" width="52.800" height="52.800" rx="8.640" ry="8.640" fill="none" stroke="#FF00FF" stroke-width="1.0"/>
    <rect x="57.600" y="124.800" width="52.800" height="52.800" rx="8.640" ry="8.640" fill="none" stroke="#FF00FF" stroke-width="1.0"/>
    <rect x="139.200" y="124.800" width="52.800" height="52.800" rx="8.640" ry="8.640" fill="none" stroke="#FF00FF" stroke-width="1.0"/>
    <rect x="220.800" y="124.800" width="52.800" height="52.800" rx="8.640" ry="8.640" fill="none" stroke="#FF00FF" stroke-width="1.0"/>
    <rect x="302.400" y="124.800" width="52.800" height="52.800" rx="8.640" ry="8.640" fill="none" stroke="#FF00FF" stroke-width="1.0"/>
    <rect x="384.000" y="124.800" width="52.800" height="52.800" rx="8.640" ry="8.640" fill="none" stroke="#FF00FF" stroke-width="1.0"/>
    <rect x="465.600" y="124.800" width="52.800" height="52.800" rx="8.640" ry="8.640" fill="none" stroke="#FF00FF" stroke-width="1.0"/>
    <rect x="57.600" y="206.400" width="52.800" height="52.800" rx="8.640" ry="8.640" fill="none" stroke="#FF00FF" stroke-width="1.0"/>
    <rect x="139.200" y="206.400" width="52.800" height="52.800" rx="8.640" ry="8.640" fill="none" stroke="#FF00FF" stroke-width="1.0"/>
    <rect x="220.800" y="206.400" width="52.800" height="52.800" rx="8.640" ry="8.640" fill="none" stroke="#FF00FF" stroke-width="1.0"/>
    <rect x="302.400" y="206.400" width="52.800" height="52.800" rx="8.640" ry="8.640" fill="none" stroke="#FF00FF" stroke-width="1.0"/>
    <rect x="384.000" y="206.400" width="52.800" height="52.800" rx="8.640" ry="8.640" fill="none" stroke="#FF00FF" stroke-width="1.0"/>
    <rect x="465.600" y="206.400" width="52.800" height="52.800" rx="8.640" ry="8.640" fill="none" stroke="#FF00FF" stroke-width="1.0"/>
    <rect x="57.600" y="288.000" width="52.800" height="52.800" rx="8.640" ry="8.640" fill="none" stroke="#FF00FF" stroke-width="1.0"/>
    <rect x="139.200" y="288.000" width="52.800" height="52.800" rx="8.640" ry="8.640" fill="none" stroke="#FF00FF" stroke-width="1.0"/>
    <rect x="220.800" y="288.000" width="52.800" height="52.800" rx="8.640" ry="8.640" fill="none" stroke="#FF00FF" stroke-width="1.0"/>
    <rect x="302.400" y="288.000" width="52.800" height="52.800" rx="8.640" ry="8.640" fill="none" stroke="#FF00FF" stroke-width="1.0"/>
    <rect x="384.000" y="288.000" width="52.800" height="52.800" rx="8.640" ry="8.640" fill="none" stroke="#FF00FF" stroke-width="1.0"/>
    <rect x="465.600" y="288.000" width="52.800" height="52.800" rx="8.640" ry="8.640" fill="none" stroke="#FF00FF" stroke-width="1.0"/>
    <rect x="633.600" y="43.200" width="52.800" height="52.800" rx="8.640" ry="8.640" fill="none" stroke="#FF00FF" stroke-width="1.0"/>
    <rect x="715.200" y="43.200" width="52.800" height="52.800" rx="8.640" ry="8.640" fill="none" stroke="#FF00FF" stroke-width="1.0"/>
    <rect x="796.800" y="43.200" width="52.800" height="52.800" rx="8.640" ry="8.640" fill="none" stroke="#FF00FF" stroke-width="1.0"/>
    <rect x="878.400" y="43.200" width="52.800" height="52.800" rx="8.640" ry="8.640" fill="none" stroke="#FF00FF" stroke-width="1.0"/>
    <rect x="960.000" y="43.200" width="52.800" height="52.800" rx="8.640" ry="8.640" fill="none" stroke="#FF00FF" stroke-width="1.0"/>
    <rect x="1041.600" y="43.200" width="52.800" height="52.800" rx="8.640" ry="8.640" fill="none" stroke="#FF00FF" stroke-width="1.0"/>
    <rect x="633.600" y="124.800" width="52.800" height="52.800" rx="8.640" ry="8.640" fill="none" stroke="#FF00FF" stroke-width="1.0"/>
    <rect x="715.200" y="124.800" width="52.800" height="52.800" rx="8.640" ry="8.640" fill="none" stroke="#FF00FF" stroke-width="1.0"/>
    <rect x="796.800" y="124.800" width="52.800" height="52.800" rx="8.640" ry="8.640" fill="none" stroke="#FF00FF" stroke-width="1.0"/>
    <rect x="878.400" y="124.800" width="52.800" height="52.800" rx="8.640" ry="8.640" fill="none" stroke="#FF00FF" stroke-width="1.0"/>
    <rect x="960.000" y="124.800" width="52.800" height="52.800" rx="8.640" ry="8.640" fill="none" stroke="#FF00FF" stroke-width="1.0"/>
    <rect x="1041.600" y="124.800" width="52.800" height="52.800" rx="8.640" ry="8.640" fill="none" stroke="#FF00FF" stroke-width="1.0"/>
    <rect x="633.600" y="206.400" width="52.800" height="52.800" rx="8.640" ry="8.640" fill="none" stroke="#FF00FF" stroke-width="1.0"/>
    <rect x="715.200" y="206.400" width="52.800" height="52.800" rx="8.640" ry="8.640" fill="none" stroke="#FF00FF" stroke-width="1.0"/>
    <rect x="796.800" y="206.400" width="52.800" height="52.800" rx="8.640" ry="8.640" fill="none" stroke="#FF00FF" stroke-width="1.0"/>
    <rect x="878.400" y="206.400" width="52.800" height="52.800" rx="8.640" ry="8.640" fill="none" stroke="#FF00FF" stroke-width="1.0"/>
    <rect x="960.000" y="206.400" width="52.800" height="52.800" rx="8.640" ry="8.640" fill="none" stroke="#FF00FF" stroke-width="1.0"/>
    <rect x="633.600" y="288.000" width="52.800" height="52.800" rx="8.640" ry="8.640" fill="none" stroke="#FF00FF" stroke-width="1.0"/>
    <rect x="715.200" y="288.000" width="52.800" height="52.800" rx="8.640" ry="8.640" fill="none" stroke="#FF00FF" stroke-width="1.0"/>
    <rect x="796.800" y="288.000" width="52.800" height="52.800" rx="8.640" ry="8.640" fill="none" stroke="#FF00FF" stroke-width="1.0"/>
    <rect x="878.400" y="288.000" width="52.800" height="52.800" rx="8.640" ry="8.640" fill="none" stroke="#FF00FF" stroke-width="1.0"/>
  </g>
</svg>
