<?xml version="1.0" encoding="UTF-8"?>
<svg xmlns="http://www.w3.org/2000/svg"
     xmlns:inkscape="http://www.inkscape.org/namespaces/inkscape"
     width="3.015in" height="3.000in"
     viewBox="0 0 289.397 288.000">
  <g inkscape:groupmode="layer" inkscape:label="art" id="art">
    <g transform="translate(5.617 2.279) scale(7.72327)">
<path fill="#3b1a5c" d="M12.45 21.329s-2.459 4.086-1.78 5.652c.409.945 1.123 2.064 2.389 2.271.423.069.623.898.501 1.505-.139.686-.621 1.646-.886 2.132-.265.487-.777.481-1.411 1.041-.442.39-.597 1.075.153 1.082l3.545.029c.664.006 1.093-.398 1.24-1.067.204-.928.76-4.461.551-5.146-.15-.491-.667-.886-.995-1.835-.243-.703.343-1.803.343-1.803l-3.65-3.861zm-5.748-5.571s.824-.146 1.272-.061c.448.086 1.705 1.019 2.085 1.16.38.141 1.299-.075 1.299-.075s1.065 1.436.995 1.581c-.07.145-1.617.47-1.981.579-.363.109-1.755-2.081-2.146-2.327s-.98.359-1.373.341c-.392-.018-.282-.298-.005-.374 0 0-.467.157-.483-.019-.016-.176.388-.281.388-.281s-.409.146-.475-.026c-.064-.172.063-.38.424-.498z"/><path fill="#5c2d91" d="M26.724 30.309c-1.101-2.09-6.263-4.52-7.324-5.413-1.061-.894-3.012-6.693-4.634-7.756-1.161-.76-1.624-2.415-1.942-3.968-.126-.617-1.672-1.333-1.787-1.855-.295.505-3.17 2.043-1.624 2.459 1.384.372.367 4.27 1.865 6.728.907 1.487.991 3.889 3.095 6.033 2.038 2.077 6.383 1.324 8.357 4.051 3.533 4.88 9.644 4.87 12.129 1.469 0 0-2.543.77-4.135.733-1.685-.039-3.003-.59-4-2.481z"/><path fill="#9b59d0" d="M14.136 21.625s-1.471 3.333-.728 5.108c.687 1.643 2.359 2.952 3.897 3.472.374.126 1.093.116 1.268.658s-.164 2.343-.408 2.791c-.244.448-1.532.685-1.799 1.506-.1.307-.303.749.281.803.687.063 4.266.026 4.877.032.611.005.765-.474.771-1.104.003-.398-.688-2.39-.39-3.803.176-.835.526-1.626 1.002-2.334 1.001-1.489.044-1.661-1.351-1.661-2.176 0-4.34-.611-4.34-.611l-3.08-4.857zm-7.892-3.142s.78-.424 1.26-.489c.48-.064 2.057.452 2.488.466.43.014 1.69-.85 1.69-.85s1.146 1.425 1.124 1.595c-.022.169-1.469 1.016-1.798 1.248-.329.232-2.143-1.459-2.619-1.575-.476-.116-1.188.646-1.588.76-.401.114-.384-.205-.13-.375 0 0-.417.315-.493.144-.075-.171.296-.413.296-.413s-.362.285-.486.133c-.125-.152-.067-.403.256-.644z"/><path fill="#1e1033" d="M10.64 8.102c.111.194-1.26 1.786-1.677 2.011-.243.134-.797.086-1.34.037.723-.302.527-.751.202-1.164.256.086.459.144.559.139.409-.034 1.941-1.616 2.256-1.023z"/><path fill="#9b59d0" d="M8.957 11.055c-.543.142-1.212 0-1.527-.242-.251-.176-.294-.414.075-.606.029-.012.058-.033.098-.046.01-.001.009-.011.019-.011.544.049 1.098.097 1.34-.037.418-.224 1.789-1.817 1.677-2.011-.315-.593-1.847.988-2.256 1.022-.1.006-.304-.053-.559-.138-.14-.182-.3-.353-.429-.506 0 0 .341-.691 1.34-1.26.999-.569 2.665-.174 3.275.502.611.677-2.066 3.076-3.053 3.333z"/><path fill="#9b59d0" d="M9.026 13.803c-.517-.212-.677-.371-1.116-.716-.294-.23-.706-.445-1.239-.394-1.266.121-3.474.638-3.893.322-.419-.316-.65-1.195-.348-1.343.029-.012.088-.035.157-.059l.002.03s-.043.984.34 1.032c.384.058 3.315-1.234 4.009-1.544.235-.104.388-.223.493-.319.315.242.984.384 1.527.242.987-.257 3.664-2.657 3.054-3.333-.612-.675-2.278-1.069-3.277-.501-.999.569-1.34 1.26-1.34 1.26.129.153.289.324.43.506-.326-.101-.726-.258-1.115-.406.174-.281.335-.611.335-.611s-1.175-.573-1.921-.48c-.747.093-3.918.527-4.224.775-.297.238.251 1.058.251 1.058.034.068.068.126.102.194-.159.019-.278.036-.339.03C.43 9.494.101 7.789.318 7.216c.227-.574 1.215-2.044 2.726-2.763 1.521-.729 2.342-.794 2.756-1.249.111-.119.126-.476.654-.638.571-.175 1.549-.12 2.291-.797 2.216-2.022 2.556-.636 3.865-.205 1.648.543 2.54-.56 3.956 3.137 1.092 2.851-.663 4.345 1.291 6.132 0 0 1.667 1.543 2.941 2.195 8.734 4.467 5.016 13.718 9.487 17.011 4.08 3.005 4.782-1.706 3.977-3.145-.136-.242.114-.59.481-.243.892.841 1.169 2.697.918 3.855-.66 3.052-3.498 3.58-6.268 3.231-4.426-.557-6.575-7.672-10.763-5.514-2.202 1.135-3.547-3.743-5.097-6.071-1.371-2.058-3.049-7.104-3.33-8.034-.044-.149-.632-.092-1.177-.315z"/><path fill="#ebe2fd" d="M7.045 7.969s-.161.33-.335.611c-.13.188-.251.345-.34.37-.07.004-.146-.282-.192-.55l-.01.001-.067-.467s-.028.202-.066.424c-.073.285-.175.602-.314.62-.06.003-.262-.366-.408-.638-.079-.156-.136-.273-.136-.273s-.002.14-.012.321c-.013.292-.03.694-.089.707-.06.004-.268-.305-.412-.547l-.145-.252-.003.291c-.003.3-.019.722-.078.745-.07.004-.3-.333-.464-.574-.078-.136-.143-.232-.143-.232s-.003.12-.024.282c-.013.301-.058.735-.137.749-.08.005-.289-.324-.434-.576-.1-.165-.168-.301-.168-.301s.019.159.03.349c.037.298.061.708-.028.733-.088.035-.349-.32-.515-.581-.098-.145-.175-.271-.175-.271s.027.129.057.297c.047.298.092.726.014.761-.078.035-.32-.342-.487-.623l-.001-.01c-.1-.165-.178-.3-.178-.3l.02.35c.017.3.02.7-.038.734-.078.045-.292-.204-.516-.601-.032-.07-.066-.128-.1-.196 0 0-.548-.82-.251-1.058.306-.248 3.478-.682 4.224-.775.746-.093 1.921.48 1.921.48zm.574 2.472s-.001.16-.189.372c-.105.096-.258.215-.493.319-.693.311-3.625 1.602-4.009 1.544-.384-.048-.34-1.032-.34-1.032l-.002-.03c-.052-.558.004-.972.114-.979.09-.005.348.641.409.828.012.029.023.049.023.049s-.001-.02.006-.06c.017-.221.101-1.028.22-1.045.12-.007.308.654.362.891.013.049.025.079.025.079s-.002-.03.015-.091c.026-.252.113-.988.232-1.015.119-.027.315.593.39.849l.036.108s.008-.041.013-.121c.043-.293.139-1.06.238-1.086.098-.046.372.71.443.896.012.029.012.039.012.039l-.003-.05c.018-.211.052-1.005.151-1.021.07-.004.305.423.442.706.068.136.114.234.114.234s.001-.15-.009-.33c.002-.291.001-.661.06-.675.04-.002.172.2.294.404.133.223.257.446.257.446s.003-.301.018-.562c.01-.181.03-.342.059-.364.039-.022.159.151.26.346.121.193.224.408.224.408s.009-.191.047-.394c.02-.181.059-.364.107-.407.057-.053.213.218.326.442.022.029.033.048.034.068.068.137.114.234.114.234z"/><path fill="#9b59d0" d="M2.437 9.208c-.167.059-.325.098-.473.127l.001.01-.159.039c-.217.063-.405.104-.553.132-.034-.068-.068-.126-.102-.194 0 0-.548-.82-.251-1.058.306-.248 3.478-.682 4.224-.775.746-.093 1.921.48 1.921.48s-.161.33-.335.611c-.184-.06-.369-.129-.532-.18l-.01.001c-.051-.017-.091-.025-.133-.043-.234-.066-.426-.105-.525-.079-.04.012-.109.026-.197.061-.039.012-.089.025-.148.049-.138.038-.305.087-.501.159l-.148.038c-.168.05-.344.11-.541.172-.049.013-.108.036-.168.05-.187.061-.384.122-.571.173-.05.013-.099.026-.138.048-.187.051-.365.101-.542.152-.039.012-.079.024-.119.027zm2.66-4.262c2.271-.762 1.011-1.05 2.169-1.658.613-.317 1.458-.255 1.614.187.159.502.118 1.175-1.072 1.575-.688.23-2.711-.104-2.711-.104zm3.86 6.109c-.543.142-1.212 0-1.527-.242-.105.096-.258.215-.493.319-.693.311-3.625 1.602-4.009 1.544-.384-.048-.34-1.032-.34-1.032l-.002-.03.522-.15c.01-.001.02-.001.029-.012.178-.05.375-.102.582-.154.01-.001.03-.002.039-.012.207-.052.424-.115.622-.166.02-.001.03-.002.049-.013.267-.066.503-.139.68-.19l.009-.011c.049-.013.099-.026.138-.038.187-.061.321-.169.455-.277.038-.032.066-.064.105-.096.114-.107.219-.203.355-.271.077-.055.165-.09.274-.116.049-.013.099-.016.159-.019.05-.003.1-.006.16.001.08.005.171.01.271.014.13.002.282.024.433.035.05.007.101.014.151.011.544.049 1.098.097 1.34-.037.418-.224 1.789-1.817 1.677-2.011-.315-.593-1.847.988-2.256 1.022-.1.006-.304-.053-.559-.138-.137-.182-.297-.353-.426-.506 0 0 .341-.691 1.34-1.26.999-.569 2.665-.174 3.275.502.611.677-2.066 3.076-3.053 3.333z"/><path fill="#3b1a5c" d="M7.808 5.05c-.688.23-2.711-.104-2.711-.104 2.271-.762 1.011-1.05 2.169-1.658.613-.317 1.458-.255 1.614.187.159.502.118 1.175-1.072 1.575z"/><circle fill="#1e1033" cx="7.647" cy="4.11" r=".484"/><g fill="#3b1a5c"><path d="M20.363 14.538c-.127.245-.429.34-.674.213-.245-.127-.34-.429-.213-.674.127-.245.429-.34.674-.213.245.127.34.429.213.674zm1.246 3.151c-.181.349-.611.484-.96.303s-.484-.611-.303-.96.611-.484.96-.303c.349.182.484.612.303.96zm.537-2.21c-.096.185-.325.258-.51.161s-.258-.325-.161-.511.325-.258.511-.161.257.326.16.511zm1.062 1.438c-.091.175-.307.244-.483.152-.175-.091-.244-.307-.152-.483.091-.175.307-.243.483-.152.175.092.243.308.152.483zm3.005 7.533c-.069.133-.233.185-.366.116s-.185-.233-.116-.366c.069-.133.233-.185.366-.115s.185.232.116.365zm-1.216-5.37c-.169.324-.568.45-.893.282-.324-.169-.45-.568-.282-.893.169-.324.568-.45.893-.282.325.169.451.569.282.893z"/><circle cx="24.35" cy="23.682" r=".424"/><circle cx="22.836" cy="18.997" r=".424"/><circle cx="25.621" cy="22.387" r=".424"/><circle cx="24.04" cy="21.036" r=".627"/></g></g>
  </g>
  <g inkscape:groupmode="layer" inkscape:label="cut" id="cut">
    <g transform="translate(5.617 2.279) scale(7.72327)"><path d="M 0.713 10.511 L 0.715 10.513 L 0.741 10.548 L 0.768 10.583 L 0.798 10.615 L 0.924 10.752 L 0.958 10.787 L 0.993 10.819 L 1.030 10.851 L 1.068 10.880 L 1.108 10.907 L 1.149 10.933 L 1.191 10.956 L 1.284 11.005 L 1.327 11.026 L 1.372 11.046 L 1.417 11.063 L 1.463 11.078 L 1.510 11.090 L 1.558 11.101 L 1.576 11.104 L 1.573 11.264 L 1.515 11.337 L 1.486 11.375 L 1.460 11.414 L 1.435 11.455 L 1.412 11.496 L 1.391 11.539 L 1.372 11.583 L 1.355 11.627 L 1.340 11.673 L 1.328 11.718 L 1.317 11.765 L 1.309 11.812 L 1.304 11.859 L 1.300 11.906 L 1.299 11.954 L 1.300 12.002 L 1.303 12.049 L 1.309 12.096 L 1.317 12.143 L 1.327 12.190 L 1.477 12.811 L 1.489 12.858 L 1.504 12.905 L 1.521 12.950 L 1.541 12.995 L 1.562 13.039 L 1.586 13.081 L 1.611 13.123 L 1.639 13.163 L 1.668 13.201 L 2.038 13.660 L 2.069 13.697 L 2.102 13.732 L 2.136 13.766 L 2.172 13.798 L 2.210 13.828 L 2.248 13.856 L 2.289 13.882 L 2.330 13.907 L 2.373 13.929 L 2.416 13.949 L 2.461 13.967 L 2.506 13.983 L 2.552 13.997 L 2.599 14.008 L 2.934 14.082 L 2.980 14.091 L 3.027 14.098 L 3.073 14.103 L 3.120 14.105 L 3.167 14.105 L 3.680 14.095 L 3.724 14.094 L 3.767 14.090 L 4.402 14.022 L 4.439 14.017 L 5.140 13.915 L 5.149 13.913 L 5.854 13.804 L 6.469 13.717 L 6.884 13.698 L 7.138 13.777 L 7.466 14.003 L 7.895 14.326 L 7.930 14.351 L 7.966 14.374 L 8.003 14.397 L 8.041 14.417 L 8.574 14.689 L 8.616 14.709 L 8.659 14.727 L 8.703 14.743 L 8.747 14.757 L 8.792 14.769 L 9.100 14.844 L 9.139 14.985 L 9.180 15.193 L 9.217 15.442 L 9.249 15.724 L 9.278 16.035 L 9.306 16.371 L 9.335 16.724 L 9.335 16.729 L 9.351 16.916 L 8.350 15.939 L 8.314 15.905 L 8.277 15.874 L 8.238 15.844 L 8.197 15.816 L 8.156 15.791 L 8.113 15.767 L 8.069 15.746 L 8.024 15.726 L 7.978 15.709 L 7.931 15.695 L 7.884 15.682 L 7.836 15.672 L 7.788 15.664 L 7.739 15.659 L 7.690 15.656 L 7.641 15.656 L 7.592 15.658 L 7.543 15.662 L 7.495 15.669 L 7.447 15.678 L 7.399 15.689 L 7.352 15.703 L 7.306 15.719 L 7.282 15.728 L 7.237 15.746 L 7.193 15.766 L 7.150 15.789 L 7.107 15.814 L 7.067 15.840 L 7.027 15.869 L 6.989 15.900 L 6.953 15.932 L 6.918 15.966 L 6.885 16.002 L 6.853 16.040 L 6.824 16.079 L 6.796 16.119 L 6.771 16.161 L 6.747 16.203 L 6.726 16.247 L 6.707 16.292 L 6.690 16.338 L 6.676 16.385 L 6.663 16.432 L 6.653 16.480 L 6.646 16.528 L 6.640 16.577 L 6.638 16.625 L 6.637 16.674 L 6.639 16.723 L 6.643 16.772 L 6.650 16.820 L 6.659 16.868 L 6.671 16.915 L 6.684 16.962 L 6.700 17.008 L 6.719 17.054 L 6.739 17.098 L 6.762 17.141 L 6.787 17.183 L 6.813 17.224 L 6.842 17.264 L 6.873 17.302 L 6.905 17.338 L 6.939 17.373 L 10.138 20.473 L 10.283 20.766 L 10.315 20.825 L 10.466 21.085 L 10.563 21.265 L 10.653 21.454 L 10.742 21.660 L 10.829 21.883 L 10.905 22.088 L 10.849 22.197 L 10.844 22.208 L 10.728 22.445 L 10.722 22.457 L 10.604 22.706 L 10.598 22.719 L 10.479 22.977 L 10.473 22.992 L 10.356 23.258 L 10.349 23.274 L 10.236 23.546 L 10.228 23.564 L 10.120 23.840 L 10.112 23.861 L 10.010 24.138 L 10.001 24.162 L 9.907 24.439 L 9.898 24.468 L 9.814 24.743 L 9.805 24.776 L 9.732 25.047 L 9.723 25.087 L 9.663 25.351 L 9.654 25.399 L 9.610 25.656 L 9.601 25.713 L 9.573 25.960 L 9.568 26.030 L 9.558 26.265 L 9.557 26.308 L 9.558 26.351 L 9.568 26.573 L 9.572 26.625 L 9.578 26.678 L 9.609 26.883 L 9.617 26.926 L 9.626 26.968 L 9.637 27.010 L 9.691 27.198 L 9.703 27.237 L 9.717 27.277 L 9.733 27.315 L 9.811 27.496 L 9.825 27.529 L 9.914 27.715 L 9.928 27.744 L 10.024 27.932 L 10.041 27.964 L 10.146 28.151 L 10.167 28.186 L 10.281 28.372 L 10.306 28.410 L 10.429 28.591 L 10.459 28.633 L 10.592 28.809 L 10.627 28.853 L 10.771 29.021 L 10.813 29.068 L 10.967 29.227 L 11.017 29.275 L 11.182 29.424 L 11.210 29.449 L 11.240 29.473 L 11.416 29.609 L 11.449 29.634 L 11.483 29.657 L 11.672 29.779 L 11.709 29.802 L 11.747 29.824 L 11.948 29.930 L 11.990 29.951 L 12.032 29.970 L 12.245 30.058 L 12.290 30.076 L 12.336 30.091 L 12.563 30.160 L 12.576 30.164 L 12.590 30.236 L 12.599 30.371 L 12.593 30.500 L 12.571 30.622 L 12.532 30.767 L 12.476 30.942 L 12.406 31.133 L 12.325 31.332 L 12.238 31.534 L 12.146 31.733 L 12.054 31.925 L 11.964 32.104 L 11.879 32.267 L 11.824 32.369 L 11.800 32.405 L 11.798 32.407 L 11.750 32.441 L 11.631 32.509 L 11.455 32.603 L 11.432 32.616 L 11.228 32.732 L 11.172 32.766 L 10.953 32.910 L 10.917 32.935 L 10.881 32.962 L 10.649 33.147 L 10.613 33.177 L 10.578 33.210 L 10.545 33.243 L 10.372 33.427 L 10.338 33.464 L 10.307 33.503 L 10.278 33.543 L 10.251 33.585 L 10.125 33.787 L 10.101 33.827 L 10.080 33.868 L 10.060 33.910 L 10.042 33.953 L 10.027 33.997 L 9.958 34.202 L 9.945 34.246 L 9.933 34.290 L 9.924 34.335 L 9.917 34.380 L 9.911 34.426 L 9.908 34.471 L 9.907 34.517 L 9.907 34.707 L 9.909 34.753 L 9.912 34.800 L 9.917 34.846 L 9.925 34.892 L 9.935 34.937 L 9.946 34.982 L 9.960 35.026 L 9.976 35.070 L 9.994 35.113 L 10.014 35.155 L 10.094 35.312 L 10.117 35.355 L 10.142 35.397 L 10.169 35.437 L 10.198 35.476 L 10.229 35.514 L 10.261 35.550 L 10.296 35.584 L 10.332 35.617 L 10.370 35.648 L 10.409 35.677 L 10.449 35.704 L 10.619 35.811 L 10.663 35.838 L 10.709 35.862 L 10.756 35.884 L 10.804 35.903 L 10.852 35.920 L 10.902 35.934 L 10.952 35.946 L 11.003 35.955 L 11.272 35.995 L 11.319 36.001 L 11.366 36.005 L 11.413 36.006 L 11.634 36.008 L 11.856 36.010 L 12.300 36.014 L 12.522 36.015 L 12.743 36.017 L 12.965 36.019 L 13.631 36.025 L 13.853 36.026 L 14.074 36.028 L 14.296 36.030 L 14.740 36.034 L 14.963 36.035 L 15.004 36.035 L 15.046 36.033 L 15.281 36.015 L 15.309 36.012 L 15.317 36.038 L 15.334 36.084 L 15.353 36.130 L 15.375 36.174 L 15.398 36.218 L 15.424 36.260 L 15.452 36.301 L 15.481 36.340 L 15.621 36.516 L 15.653 36.555 L 15.687 36.591 L 15.723 36.627 L 15.761 36.660 L 15.801 36.691 L 15.841 36.720 L 15.884 36.748 L 15.927 36.772 L 15.972 36.795 L 16.018 36.816 L 16.065 36.834 L 16.113 36.849 L 16.161 36.863 L 16.438 36.931 L 16.482 36.941 L 16.526 36.948 L 16.571 36.954 L 16.615 36.958 L 16.761 36.967 L 16.783 36.968 L 16.971 36.975 L 16.984 36.976 L 17.210 36.982 L 17.218 36.982 L 17.476 36.986 L 17.482 36.986 L 17.767 36.990 L 17.771 36.990 L 18.078 36.992 L 18.081 36.992 L 18.403 36.994 L 18.405 36.994 L 18.738 36.995 L 18.740 36.995 L 19.079 36.995 L 19.080 36.995 L 19.418 36.994 L 19.419 36.994 L 19.752 36.994 L 20.075 36.993 L 20.381 36.992 L 20.665 36.990 L 20.922 36.990 L 21.145 36.989 L 21.330 36.989 L 21.472 36.989 L 21.524 36.988 L 21.731 36.977 L 21.777 36.974 L 21.822 36.969 L 21.867 36.961 L 21.912 36.952 L 21.956 36.940 L 22.000 36.926 L 22.233 36.848 L 22.279 36.831 L 22.324 36.812 L 22.368 36.791 L 22.411 36.768 L 22.452 36.742 L 22.493 36.715 L 22.531 36.686 L 22.569 36.655 L 22.738 36.508 L 22.774 36.474 L 22.810 36.438 L 22.843 36.401 L 22.874 36.362 L 22.903 36.322 L 22.931 36.280 L 22.956 36.237 L 23.069 36.031 L 23.091 35.987 L 23.112 35.943 L 23.130 35.897 L 23.146 35.850 L 23.160 35.803 L 23.226 35.548 L 23.238 35.497 L 23.247 35.446 L 23.253 35.394 L 23.282 35.100 L 23.286 35.050 L 23.287 35.000 L 23.286 34.827 L 23.285 34.779 L 23.281 34.731 L 23.275 34.684 L 23.256 34.556 L 23.248 34.507 L 23.215 34.342 L 23.211 34.322 L 23.167 34.124 L 23.166 34.119 L 23.115 33.893 L 23.060 33.648 L 23.006 33.388 L 22.954 33.117 L 22.908 32.840 L 22.869 32.560 L 22.842 32.283 L 22.985 32.436 L 23.011 32.463 L 23.278 32.726 L 23.305 32.752 L 23.577 33.001 L 23.606 33.026 L 23.883 33.261 L 23.913 33.285 L 24.195 33.506 L 24.225 33.529 L 24.512 33.737 L 24.544 33.759 L 24.834 33.952 L 24.867 33.973 L 25.161 34.153 L 25.194 34.172 L 25.491 34.339 L 25.525 34.357 L 25.826 34.510 L 25.860 34.527 L 26.163 34.666 L 26.198 34.682 L 26.503 34.809 L 26.539 34.823 L 26.845 34.936 L 26.881 34.949 L 27.188 35.049 L 27.226 35.061 L 27.533 35.148 L 27.571 35.158 L 27.879 35.233 L 27.917 35.241 L 28.225 35.303 L 28.264 35.310 L 28.571 35.359 L 28.610 35.365 L 28.917 35.401 L 28.956 35.405 L 29.261 35.430 L 29.301 35.432 L 29.604 35.444 L 29.644 35.445 L 29.946 35.445 L 29.986 35.444 L 30.285 35.432 L 30.325 35.429 L 30.621 35.405 L 30.662 35.401 L 30.954 35.365 L 30.995 35.359 L 31.283 35.311 L 31.324 35.303 L 31.609 35.243 L 31.650 35.234 L 31.929 35.162 L 31.971 35.151 L 32.245 35.068 L 32.287 35.054 L 32.556 34.960 L 32.597 34.944 L 32.860 34.839 L 32.902 34.821 L 33.158 34.704 L 33.199 34.684 L 33.449 34.557 L 33.490 34.534 L 33.733 34.395 L 33.773 34.371 L 34.008 34.221 L 34.048 34.194 L 34.275 34.034 L 34.314 34.005 L 34.455 33.928 L 34.495 33.905 L 34.535 33.880 L 34.573 33.853 L 35.010 33.526 L 35.049 33.495 L 35.087 33.462 L 35.123 33.427 L 35.511 33.033 L 35.547 32.995 L 35.580 32.955 L 35.612 32.914 L 35.945 32.448 L 35.973 32.406 L 36.000 32.362 L 36.024 32.317 L 36.296 31.775 L 36.317 31.731 L 36.336 31.686 L 36.352 31.641 L 36.558 31.019 L 36.571 30.977 L 36.582 30.934 L 36.591 30.890 L 36.698 30.318 L 36.706 30.273 L 36.711 30.228 L 36.714 30.183 L 36.742 29.601 L 36.743 29.544 L 36.741 29.488 L 36.701 28.872 L 36.696 28.817 L 36.688 28.762 L 36.578 28.142 L 36.565 28.083 L 36.549 28.025 L 36.368 27.432 L 36.352 27.386 L 36.334 27.340 L 36.315 27.296 L 36.060 26.760 L 36.038 26.718 L 36.015 26.677 L 35.990 26.637 L 35.962 26.598 L 35.633 26.151 L 35.604 26.113 L 35.573 26.078 L 35.541 26.043 L 35.507 26.011 L 35.472 25.979 L 35.435 25.950 L 35.397 25.922 L 35.358 25.897 L 35.318 25.873 L 35.276 25.851 L 35.233 25.831 L 35.190 25.813 L 35.146 25.797 L 34.613 25.620 L 34.566 25.606 L 34.518 25.594 L 34.470 25.584 L 34.421 25.577 L 34.372 25.572 L 34.323 25.570 L 34.274 25.570 L 34.225 25.572 L 34.176 25.577 L 34.127 25.585 L 34.079 25.594 L 34.031 25.606 L 33.984 25.621 L 33.938 25.638 L 33.893 25.657 L 33.848 25.678 L 33.805 25.701 L 33.763 25.727 L 33.722 25.755 L 33.683 25.784 L 33.645 25.816 L 33.609 25.849 L 33.574 25.884 L 33.541 25.921 L 33.511 25.959 L 33.482 25.999 L 33.455 26.040 L 33.430 26.083 L 33.407 26.126 L 33.386 26.171 L 33.368 26.217 L 33.352 26.263 L 33.338 26.310 L 33.327 26.358 L 33.318 26.407 L 33.311 26.456 L 33.307 26.505 L 33.306 26.554 L 33.306 26.603 L 33.324 27.042 L 33.327 27.089 L 33.332 27.137 L 33.339 27.184 L 33.349 27.231 L 33.361 27.277 L 33.375 27.322 L 33.489 27.657 L 33.545 27.998 L 33.557 28.403 L 33.517 28.824 L 33.424 29.219 L 33.287 29.549 L 33.128 29.783 L 32.967 29.921 L 32.791 29.995 L 32.524 30.013 L 32.093 29.919 L 31.476 29.632 L 30.805 29.184 L 30.524 28.944 L 30.266 28.675 L 30.033 28.381 L 29.821 28.060 L 29.628 27.710 L 29.452 27.332 L 29.292 26.927 L 29.146 26.494 L 29.013 26.037 L 28.890 25.556 L 28.774 25.055 L 28.665 24.534 L 28.558 23.996 L 28.451 23.444 L 28.342 22.880 L 28.341 22.874 L 28.227 22.304 L 28.224 22.293 L 28.102 21.719 L 28.099 21.702 L 27.965 21.126 L 27.960 21.104 L 27.812 20.526 L 27.805 20.499 L 27.640 19.922 L 27.631 19.890 L 27.445 19.315 L 27.433 19.279 L 27.224 18.707 L 27.208 18.666 L 26.973 18.100 L 26.954 18.056 L 26.689 17.496 L 26.665 17.449 L 26.367 16.897 L 26.339 16.848 L 26.005 16.306 L 25.972 16.256 L 25.600 15.726 L 25.562 15.676 L 25.148 15.159 L 25.106 15.110 L 24.646 14.607 L 24.600 14.560 L 24.093 14.074 L 24.043 14.030 L 23.485 13.563 L 23.433 13.522 L 22.820 13.074 L 22.768 13.038 L 22.097 12.611 L 22.044 12.580 L 21.322 12.180 L 20.724 11.833 L 20.131 11.422 L 19.557 10.979 L 19.064 10.571 L 18.705 10.259 L 18.556 10.125 L 18.282 9.843 L 18.060 9.521 L 17.942 9.236 L 17.883 8.927 L 17.868 8.550 L 17.890 8.087 L 17.927 7.553 L 17.929 7.522 L 17.951 6.940 L 17.952 6.902 L 17.951 6.864 L 17.927 6.239 L 17.924 6.186 L 17.917 6.132 L 17.817 5.456 L 17.810 5.415 L 17.801 5.374 L 17.791 5.333 L 17.584 4.598 L 17.568 4.544 L 17.548 4.492 L 17.140 3.492 L 17.122 3.450 L 17.102 3.410 L 16.686 2.606 L 16.664 2.565 L 16.640 2.525 L 16.614 2.487 L 16.216 1.928 L 16.186 1.888 L 16.154 1.849 L 16.120 1.812 L 16.084 1.777 L 15.697 1.416 L 15.659 1.382 L 15.620 1.351 L 15.580 1.322 L 15.538 1.295 L 15.494 1.270 L 15.107 1.059 L 15.066 1.038 L 15.024 1.018 L 14.981 1.001 L 14.937 0.986 L 14.893 0.973 L 14.497 0.865 L 14.451 0.854 L 14.406 0.845 L 14.360 0.838 L 13.945 0.786 L 13.919 0.783 L 13.513 0.742 L 13.140 0.678 L 12.780 0.561 L 12.437 0.377 L 12.061 0.142 L 12.021 0.119 L 11.980 0.097 L 11.580 -0.104 L 11.539 -0.124 L 11.497 -0.141 L 11.455 -0.157 L 11.412 -0.170 L 11.368 -0.182 L 11.324 -0.191 L 10.886 -0.277 L 10.840 -0.285 L 10.794 -0.290 L 10.748 -0.294 L 10.702 -0.295 L 10.655 -0.294 L 10.609 -0.291 L 10.563 -0.286 L 10.518 -0.279 L 10.000 -0.185 L 9.950 -0.175 L 9.901 -0.162 L 9.853 -0.146 L 9.806 -0.129 L 9.759 -0.108 L 9.714 -0.086 L 9.075 0.251 L 9.034 0.275 L 8.993 0.300 L 8.954 0.327 L 8.916 0.356 L 8.155 0.968 L 7.735 1.244 L 7.327 1.381 L 6.826 1.476 L 6.822 1.476 L 6.332 1.571 L 6.284 1.581 L 6.236 1.594 L 6.189 1.609 L 6.143 1.627 L 6.098 1.647 L 6.054 1.669 L 6.011 1.693 L 5.969 1.719 L 5.408 2.092 L 5.370 2.119 L 5.333 2.147 L 5.298 2.177 L 5.264 2.209 L 5.231 2.242 L 5.200 2.276 L 5.171 2.312 L 5.144 2.350 L 5.118 2.388 L 5.009 2.560 L 4.942 2.606 L 4.633 2.740 L 4.117 2.930 L 4.101 2.936 L 3.423 3.197 L 3.375 3.217 L 2.571 3.578 L 2.521 3.602 L 2.472 3.629 L 1.837 4.005 L 1.799 4.028 L 1.763 4.053 L 1.728 4.079 L 1.168 4.520 L 1.126 4.555 L 1.086 4.592 L 0.606 5.064 L 0.573 5.098 L 0.542 5.134 L 0.147 5.604 L 0.120 5.638 L 0.094 5.673 L -0.210 6.108 L -0.235 6.146 L -0.259 6.185 L -0.469 6.553 L -0.491 6.594 L -0.511 6.636 L -0.530 6.680 L -0.546 6.724 L -0.671 7.089 L -0.685 7.133 L -0.697 7.177 L -0.706 7.222 L -0.714 7.268 L -0.720 7.314 L -0.723 7.360 L -0.724 7.406 L -0.727 8.044 L -0.726 8.091 L -0.723 8.138 L -0.718 8.185 L -0.710 8.231 L -0.578 8.940 L -0.567 8.991 L -0.554 9.042 L -0.537 9.092 L -0.518 9.141 L -0.280 9.710 L -0.261 9.753 L -0.240 9.795 L -0.217 9.836 L -0.191 9.876 L -0.164 9.915 L -0.136 9.952 L -0.105 9.988 L -0.073 10.023 L -0.039 10.055 L -0.004 10.087 L 0.033 10.116 L 0.071 10.144 L 0.389 10.364 L 0.430 10.391 L 0.472 10.416 L 0.515 10.439 L 0.560 10.459 L 0.605 10.478 L 0.651 10.494 L 0.698 10.508 L 0.713 10.511 Z" fill="none" stroke="#FF00FF" stroke-width="0.1295"/></g>
  </g>
</svg>
